SplineFontDB: 3.2
FontName: D-DIN-PRO-Exp-Medium-Italic
FullName: D-DIN-PRO-Exp-Medium-Italic
FamilyName: D-DIN-PRO-Exp
Weight: Medium
Copyright: Copyright (c) CyberFei. All rights reserved
Version: 1.1.0
ItalicAngle: -13
UnderlinePosition: -150
UnderlineWidth: 50
Ascent: 831
Descent: 169
InvalidEm: 0
sfntRevision: 0x00010000
LayerCount: 2
Layer: 0 0 "Back" 1
Layer: 1 0 "Fore" 0
XUID: [1021 868 -1451673819 30918]
StyleMap: 0x0040
FSType: 4
OS2Version: 4
OS2_WeightWidthSlopeOnly: 1
OS2_UseTypoMetrics: 0
CreationTime: 1462909513
ModificationTime: 1778060080
PfmFamily: 17
TTFWeight: 500
TTFWidth: 7
LineGap: 0
VLineGap: 0
Panose: 2 11 5 4 2 2 2 3 2 4
OS2TypoAscent: 831
OS2TypoAOffset: 0
OS2TypoDescent: -169
OS2TypoDOffset: 0
OS2TypoLinegap: 86
OS2WinAscent: 902
OS2WinAOffset: 0
OS2WinDescent: 184
OS2WinDOffset: 0
HheadAscent: 902
HheadAOffset: 0
HheadDescent: -184
HheadDOffset: 0
OS2SubXSize: 650
OS2SubYSize: 600
OS2SubXOff: 0
OS2SubYOff: 75
OS2SupXSize: 650
OS2SupYSize: 600
OS2SupXOff: 0
OS2SupYOff: 350
OS2StrikeYSize: 50
OS2StrikeYPos: 307
OS2CapHeight: 690
OS2XHeight: 512
OS2Vendor: 'MONO'
OS2CodePages: 00000001.00000000
OS2UnicodeRanges: 8000006f.4000000a.00000000.00000000
Lookup: 1 0 0 "'rtla' Right to Left Alternates lookup 0" { "'rtla' Right to Left Alternates lookup 0 subtable"  } ['rtla' ('DFLT' <'dflt' > ) ]
Lookup: 1 0 0 "'sups' Superscript lookup 1" { "'sups' Superscript lookup 1 subtable" ("superior") } ['sups' ('DFLT' <'dflt' > ) ]
Lookup: 4 0 0 "'frac' Diagonal Fractions lookup 2" { "'frac' Diagonal Fractions lookup 2 subtable"  } ['frac' ('DFLT' <'dflt' > ) ]
Lookup: 258 0 0 "'kern' Horizontal Kerning in Latin lookup 0" { "'kern' Horizontal Kerning in Latin lookup 0 subtable"  } ['kern' ('DFLT' <'dflt' > 'latn' <'dflt' > ) ]
Lookup: 258 0 0 "Pairwise Positioning (kerning) lookup 1" { "Pairwise Positioning (kerning) lookup 1 subtable"  } []

StartChar: .notdef
Encoding: 65536 -1 0
Width: 601
GlyphClass: 1
Flags: MW
HStem: -0.120117 48.0205<77.9365 385.656 77.9365 422.591> 642.76 48.0205<215.271 522.99 215.271 215.271>
VStem: 102.317 48.0195 458.057 48.0205
LayerCount: 2
Fore
SplineSet
178.337890625 690.780273438 m 1
 582.09765625 690.780273438 l 1
 422.590820312 -0.1201171875 l 1
 18.8310546875 -0.1201171875 l 1
 178.337890625 690.780273438 l 1
77.9365234375 47.900390625 m 1
 385.65625 47.900390625 l 1
 522.990234375 642.759765625 l 1
 215.270507812 642.759765625 l 1
 77.9365234375 47.900390625 l 1
EndSplineSet
EndChar

StartChar: exclam
Encoding: 33 33 4
Width: 245
GlyphClass: 2
Flags: MW
HStem: -0.120117 116.62<14.3945 101.15 -12.5293 128.074> 670.78 20G<146.699 260.92 260.92 260.92>
VStem: 70.957 113.68 88.8652 78.8584
LayerCount: 2
Fore
SplineSet
146.69921875 690.780273438 m 1xd0
 260.919921875 690.780273438 l 1
 130.844726562 201.759765625 l 1
 51.986328125 201.759765625 l 1
 146.69921875 690.780273438 l 1xd0
14.39453125 116.5 m 1xe0
 128.07421875 116.5 l 1
 101.150390625 -0.1201171875 l 1
 -12.529296875 -0.1201171875 l 1
 14.39453125 116.5 l 1xe0
EndSplineSet
EndChar

StartChar: quotedbl
Encoding: 34 34 5
Width: 342
GlyphClass: 2
Flags: MW
HStem: 430.1 260.681<126.397 160.294 66.2139 220.478 126.397 223.014 283.197 318.074>
VStem: 50.377 94.0801 207.177 95.0605
LayerCount: 2
Fore
SplineSet
126.397460938 690.780273438 m 1
 220.477539062 690.780273438 l 1
 160.293945312 430.099609375 l 1
 66.2138671875 430.099609375 l 1
 126.397460938 690.780273438 l 1
283.197265625 690.780273438 m 1
 378.2578125 690.780273438 l 1
 318.07421875 430.099609375 l 1
 223.013671875 430.099609375 l 1
 283.197265625 690.780273438 l 1
EndSplineSet
EndChar

StartChar: numbersign
Encoding: 35 35 6
Width: 586
GlyphClass: 2
Flags: MW
HStem: -0.120117 21G<24.6758 111.04 24.6758 24.6758 221.655 308.021 221.655 221.655> 211.56 80.3604<9.81348 100.985 -8.73926 130.257 216.62 297.966 9.81348 187.351 412.62 509.681> 414.42 79.3799<79.9404 174.288 61.6143 203.33 79.9404 260.651 288.714 371.269 484.714 581.015> 670.78 20G<274.286 359.67 359.67 359.67 470.286 555.67 555.67 555.67>
LayerCount: 2
Fore
SplineSet
599.340820312 493.799804688 m 1
 581.014648438 414.419921875 l 1
 456.651367188 414.419921875 l 1
 412.620117188 291.919921875 l 1
 528.233398438 291.919921875 l 1
 509.680664062 211.559570312 l 1
 384.330078125 211.559570312 l 1
 308.020507812 -0.1201171875 l 1
 221.655273438 -0.1201171875 l 1
 297.965820312 211.559570312 l 1
 187.350585938 211.559570312 l 1
 111.040039062 -0.1201171875 l 1
 24.67578125 -0.1201171875 l 1
 100.985351562 211.559570312 l 1
 -8.7392578125 211.559570312 l 1
 9.8134765625 291.919921875 l 1
 130.256835938 291.919921875 l 1
 174.288085938 414.419921875 l 1
 61.6142578125 414.419921875 l 1
 79.9404296875 493.799804688 l 1
 203.330078125 493.799804688 l 1
 274.286132812 690.780273438 l 1
 359.669921875 690.780273438 l 1
 288.713867188 493.799804688 l 1
 399.330078125 493.799804688 l 1
 470.286132812 690.780273438 l 1
 555.669921875 690.780273438 l 1
 484.713867188 493.799804688 l 1
 599.340820312 493.799804688 l 1
327.237304688 291.919921875 m 1
 371.268554688 414.419921875 l 1
 260.651367188 414.419921875 l 1
 216.620117188 291.919921875 l 1
 327.237304688 291.919921875 l 1
EndSplineSet
EndChar

StartChar: dollar
Encoding: 36 36 7
Width: 522
GlyphClass: 2
Flags: MW
HStem: 27.9385 90.7871<142.908 163.868> 571.964 88.6826<268.506 288.98>
VStem: 46.457 98.9795 219.917 80.3604 387.497 98.9795
LayerCount: 2
Fore
SplineSet
307.484375 392.716796875 m 1
 340.959960938 386.9140625 402.139648438 376.30859375 436.419921875 332.426757812 c 0
 458.893554688 303.65625 463.907226562 263.743164062 452.42578125 214.008789062 c 0
 439.99609375 160.171875 412.8984375 116.44921875 371.137695312 84.1943359375 c 0
 331.09375 53.265625 281.668945312 35.0546875 223.509765625 28.984375 c 1
 203.44140625 -57.9404296875 l 1
 123.081054688 -57.9404296875 l 1
 142.908203125 27.9384765625 l 1
 84.1259765625 33.8115234375 -26.6533203125 60.107421875 0.2568359375 216.512695312 c 2
 1.5966796875 224.299804688 l 1
 97.384765625 224.299804688 l 1
 91.4248046875 178.76953125 91.4619140625 132.176757812 163.868164062 118.725585938 c 1
 208.231445312 310.8828125 l 1
 175.333007812 317.78125 122.953125 328.764648438 91.1865234375 366.92578125 c 0
 68.32421875 394.390625 62.982421875 433.081054688 74.1728515625 481.549804688 c 0
 85.8466796875 532.114257812 111.33984375 573.931640625 150.584960938 605.81640625 c 0
 188.252929688 636.418945312 234.633789062 654.526367188 288.98046875 660.646484375 c 1
 307.475585938 740.759765625 l 1
 387.8359375 740.759765625 l 1
 369.580078125 661.681640625 l 1
 435.712890625 654.376953125 526.807617188 620.046875 503.731445312 482.993164062 c 2
 502.416015625 475.178710938 l 1
 406.526367188 475.178710938 l 1
 411.360351562 509.241210938 416.079101562 559.047851562 348.858398438 571.9296875 c 1
 307.484375 392.716796875 l 1
174.735351562 488.409179688 m 0
 165.755859375 449.513671875 175.502929688 422.21484375 230.536132812 407.498046875 c 1
 268.505859375 571.963867188 l 1
 215.353515625 562.930664062 185.662109375 535.735351562 174.735351562 488.409179688 c 0
243.919921875 117.390625 m 1
 316.379882812 126.83984375 342.458007812 166.416015625 352.088867188 208.12890625 c 0
 358.428710938 235.58984375 355.458007812 254.806640625 344.635742188 267.389648438 c 0
 334.485351562 279.192382812 314.819335938 289.086914062 285.176757812 296.09375 c 1
 243.919921875 117.390625 l 1
EndSplineSet
EndChar

StartChar: percent
Encoding: 37 37 8
Width: 914
GlyphClass: 2
Flags: MW
HStem: -6 80.3594<646.314 676.818 646.314 709.369> 260.56 80.3604<171.275 202.785 171.275 234.391> 349.739 80.3604<709.164 741.082> 617.28 80.3594<236.186 265.577>
VStem: 44.4971 90.1611 248.337 91.1396 580.557 90.1611 784.397 91.1396
LayerCount: 2
Fore
SplineSet
167.703125 260.559570312 m 0
 112.915039062 260.559570312 25.3662109375 278.635742188 59.9951171875 428.629882812 c 2
 84.4296875 534.469726562 l 2
 100.061523438 602.174804688 144.311523438 697.639648438 269.590820312 697.639648438 c 0
 348.813476562 697.639648438 408.608398438 660.9453125 379.409179688 534.469726562 c 2
 354.974609375 428.629882812 l 2
 340.80078125 367.236328125 301.078125 260.559570312 167.703125 260.559570312 c 0
768.9375 692.740234375 m 1
 227.504882812 -0.1201171875 l 1
 139.19921875 -0.1201171875 l 1
 679.629882812 692.740234375 l 1
 768.9375 692.740234375 l 1
187.236328125 340.919921875 m 0
 218.333007812 340.919921875 246.42578125 353.221679688 264.965820312 433.530273438 c 2
 286.459960938 526.629882812 l 2
 304.974609375 606.825195312 280.115234375 617.280273438 251.0390625 617.280273438 c 0
 221.333007812 617.280273438 191.06640625 605.83203125 172.78125 526.629882812 c 2
 151.287109375 433.530273438 l 2
 133.03125 354.455078125 155.314453125 340.919921875 187.236328125 340.919921875 c 0
642.223632812 -6 m 0
 563.330078125 -6 504.474609375 31.955078125 534.514648438 162.0703125 c 2
 558.72265625 266.928710938 l 2
 570.685546875 318.744140625 606.887695312 430.099609375 743.883789062 430.099609375 c 0
 823.106445312 430.099609375 882.903320312 393.405273438 853.704101562 266.9296875 c 2
 829.495117188 162.0703125 l 2
 815.345703125 100.784179688 776.514648438 -6 642.223632812 -6 c 0
661.754882812 74.359375 m 0
 691.881835938 74.359375 720.739257812 85.765625 739.259765625 165.989257812 c 2
 760.75390625 259.088867188 l 2
 778.814453125 337.318359375 756.831054688 349.739257812 725.333007812 349.739257812 c 0
 692.995117188 349.739257812 664.852539062 336.094726562 647.07421875 259.088867188 c 2
 625.580078125 165.989257812 l 2
 607.323242188 86.9072265625 630.874023438 74.359375 661.754882812 74.359375 c 0
EndSplineSet
EndChar

StartChar: ampersand
Encoding: 38 38 9
Width: 663
GlyphClass: 2
Flags: MW
HStem: -10.8994 90.1602<180.075 215.682> -0.119141 91.1387<467.549 554.372 527.422 533.331> 617.281 84.2793<332.813 355.462>
VStem: 54.2959 97.0205 115.056 97.0205 358.096 96.041
LayerCount: 2
Fore
SplineSet
496.106445312 543.291015625 m 0xac
 481.001953125 477.866210938 437.728515625 428.27734375 328.33203125 365.094726562 c 1
 418.838867188 214.618164062 l 1
 529.749023438 316.556640625 l 1
 583.114257812 257.856445312 l 1
 460.391601562 145.3203125 l 1
 474.436523438 121.782226562 l 2
 490.721679688 97.294921875 504.159179688 91.01953125 527.421875 91.01953125 c 2
 554.372070312 91.01953125 l 1
 533.331054688 -0.119140625 l 1
 492.66015625 -0.119140625 l 2x6c
 442.4375 -0.119140625 417.306640625 14.3212890625 389.5859375 57.353515625 c 2
 379.91796875 73.5966796875 l 1
 325.551757812 28.4990234375 259.692382812 -10.8994140625 171.670898438 -10.8994140625 c 0
 129.551757812 -10.8994140625 94.8974609375 -2.703125 68.072265625 14.0009765625 c 0
 38.0693359375 32.6845703125 -10.8203125 79.451171875 12.1005859375 178.731445312 c 0xb4
 31.5224609375 262.856445312 95.619140625 327.015625 195.254882812 384.287109375 c 1
 156.663085938 452.400390625 146.244140625 496.59375 157.250976562 544.270507812 c 0
 178.936523438 638.19921875 267.440429688 701.560546875 363.594726562 701.560546875 c 0
 412.763671875 701.560546875 450.291992188 686.94921875 475.046875 657.440429688 c 0
 499.813476562 627.918945312 506.764648438 589.455078125 496.106445312 543.291015625 c 0xac
254.498046875 545.250976562 m 0
 248.046875 517.307617188 253.155273438 492.830078125 286.77734375 433.265625 c 2
 287.221679688 432.528320312 l 1
 349.045898438 468.247070312 388.9765625 495.258789062 400.291015625 544.270507812 c 0
 405.520507812 566.918945312 402.784179688 584.219726562 392.658203125 597.384765625 c 0
 382.532226562 610.549804688 366.786132812 617.28125 344.137695312 617.28125 c 0
 321.489257812 617.28125 302.635742188 610.549804688 286.430664062 597.384765625 c 0
 270.172851562 584.176757812 259.563476562 567.19140625 254.498046875 545.250976562 c 0
234.92578125 315.93359375 m 1
 144.509765625 262.810546875 118.380859375 218.841796875 109.799804688 181.670898438 c 0
 102.793945312 151.325195312 106.934570312 127.16015625 121.959960938 108.018554688 c 0
 136.802734375 89.1103515625 161.783203125 79.2607421875 198.366210938 79.2607421875 c 0xb4
 245.348632812 79.2607421875 286.662109375 98.392578125 339.185546875 141.852539062 c 1
 234.92578125 315.93359375 l 1
EndSplineSet
EndChar

StartChar: quotesingle
Encoding: 39 39 10
Width: 185
GlyphClass: 2
Flags: MW
HStem: 430.1 260.681<126.397 160.294 66.2139 220.478>
VStem: 50.377 94.0801
LayerCount: 2
Fore
SplineSet
126.397460938 690.780273438 m 1
 220.477539062 690.780273438 l 1
 160.293945312 430.099609375 l 1
 66.2138671875 430.099609375 l 1
 126.397460938 690.780273438 l 1
EndSplineSet
EndChar

StartChar: parenleft
Encoding: 40 40 11
Width: 319
GlyphClass: 2
Flags: MW
VStem: 54.2979 97.999
LayerCount: 2
Fore
SplineSet
46.71875 328.671875 m 0
 77.103515625 460.282226562 145.590820312 602.952148438 280.5625 739.782226562 c 1
 367.576171875 739.782226562 l 1
 336.720703125 705.547851562 280.361328125 643.017578125 224.747070312 538.713867188 c 0
 187.646484375 469.133789062 160.986328125 399.137695312 144.717773438 328.670898438 c 0
 127.749023438 255.173828125 102.108398438 86.875 172.7109375 -70.970703125 c 2
 177.83984375 -82.439453125 l 1
 89.7099609375 -82.439453125 l 1
 60.900390625 -25.7578125 -2.6845703125 114.682617188 46.71875 328.671875 c 0
EndSplineSet
Substitution2: "'rtla' Right to Left Alternates lookup 0 subtable" parenright
EndChar

StartChar: parenright
Encoding: 41 41 12
Width: 319
GlyphClass: 2
Flags: MW
VStem: 175.818 97.999
LayerCount: 2
Fore
SplineSet
168.23828125 328.66796875 m 0
 185.081054688 401.623046875 210.399414062 568.720703125 140.231445312 728.34375 c 2
 135.204101562 739.779296875 l 1
 222.21875 739.779296875 l 1
 248.791992188 689.130859375 316.87890625 548.01953125 266.237304688 328.668945312 c 0
 231.5703125 178.5078125 153.947265625 41.8134765625 33.4208984375 -82.4404296875 c 1
 -54.7099609375 -82.4404296875 l 1
 -23.7509765625 -48.3837890625 32.3779296875 13.36328125 87.982421875 117.647460938 c 0
 125.079101562 187.221679688 151.817382812 257.541015625 168.23828125 328.66796875 c 0
EndSplineSet
Substitution2: "'rtla' Right to Left Alternates lookup 0 subtable" parenleft
EndChar

StartChar: asterisk
Encoding: 42 42 13
Width: 415
GlyphClass: 2
Flags: MW
HStem: 398.74 292.04<187.354 321.417 187.354 321.417>
VStem: 178.757 66.6396
LayerCount: 2
Fore
SplineSet
253.994140625 398.740234375 m 1
 187.354492188 398.740234375 l 1
 209.5859375 495.034179688 l 1
 100.30859375 445.20703125 l 1
 84.2373046875 502.553710938 l 1
 187.504882812 547.209960938 l 1
 104.857421875 591.866210938 l 1
 147.370117188 649.163085938 l 1
 233.879882812 600.263671875 l 1
 254.77734375 690.780273438 l 1
 321.416992188 690.780273438 l 1
 300.31640625 599.385742188 l 1
 409.725585938 649.272460938 l 1
 424.559570312 591.78125 l 1
 322.533203125 548.087890625 l 1
 405.006835938 502.5 l 1
 362.49609375 445.20703125 l 1
 276.225585938 495.034179688 l 1
 253.994140625 398.740234375 l 1
EndSplineSet
EndChar

StartChar: plus
Encoding: 43 43 14
Width: 512
GlyphClass: 2
Flags: MW
HStem: 231.16 93.0996<46.6797 182.965 25.1855 204.459 298.539 434.825 46.6797 277.045>
VStem: 213.057 94.0801
LayerCount: 2
Fore
SplineSet
277.044921875 231.16015625 m 1
 240.392578125 72.400390625 l 1
 146.3125 72.400390625 l 1
 182.96484375 231.16015625 l 1
 25.185546875 231.16015625 l 1
 46.6796875 324.259765625 l 1
 204.458984375 324.259765625 l 1
 241.111328125 483.01953125 l 1
 335.19140625 483.01953125 l 1
 298.5390625 324.259765625 l 1
 456.319335938 324.259765625 l 1
 434.825195312 231.16015625 l 1
 277.044921875 231.16015625 l 1
EndSplineSet
EndChar

StartChar: comma
Encoding: 44 44 15
Width: 185
GlyphClass: 2
Flags: MW
HStem: -151.387 270.827<-68.0322 88.5732>
VStem: 50.377 94.0801
LayerCount: 2
Fore
SplineSet
-5.5068359375 119.440429688 m 1
 88.5732421875 119.440429688 l 1
 45.623046875 -66.5986328125 l 1
 -68.0322265625 -151.38671875 l 1
 -5.5068359375 119.440429688 l 1
EndSplineSet
EndChar

StartChar: hyphen
Encoding: 45 45 16
Width: 426
GlyphClass: 2
Flags: MW
HStem: 299.76 94.0801<61.7627 366.383 40.043 388.103>
VStem: 54.2969 326.34
LayerCount: 2
Fore
SplineSet
61.7626953125 393.83984375 m 1
 388.102539062 393.83984375 l 1
 366.3828125 299.759765625 l 1
 40.04296875 299.759765625 l 1
 61.7626953125 393.83984375 l 1
EndSplineSet
EndChar

StartChar: period
Encoding: 46 46 17
Width: 205
GlyphClass: 2
Flags: MW
HStem: -0.120117 119.561<-5.50684 81.5508 -33.1094 109.153>
VStem: 50.377 114.66
LayerCount: 2
Fore
SplineSet
-5.5068359375 119.440429688 m 1
 109.153320312 119.440429688 l 1
 81.55078125 -0.1201171875 l 1
 -33.109375 -0.1201171875 l 1
 -5.5068359375 119.440429688 l 1
EndSplineSet
EndChar

StartChar: slash
Encoding: 47 47 18
Width: 432
GlyphClass: 2
Flags: MW
HStem: -9.91992 21G<-34.5371 52.6172 -34.5371 -34.5371> 672.74 20G<378.921 466.075 466.075 466.075>
LayerCount: 2
Fore
SplineSet
378.920898438 692.740234375 m 1
 466.075195312 692.740234375 l 1
 52.6171875 -9.919921875 l 1
 -34.537109375 -9.919921875 l 1
 378.920898438 692.740234375 l 1
EndSplineSet
EndChar

StartChar: zero
Encoding: 48 48 19
Width: 551
GlyphClass: 2
Flags: MW
HStem: -9.91992 94.0801<181.812 236.935 181.812 297.474> 606.5 94.0791<302.413 371.21>
VStem: 63.1172 103.879 394.357 103.88
LayerCount: 2
Fore
SplineSet
194.4375 -9.919921875 m 0
 96.0615234375 -9.919921875 -12.9951171875 31.8232421875 36.080078125 244.388671875 c 2
 83.818359375 451.168945312 l 2
 102.217773438 530.86328125 157.397460938 700.579101562 358.46875 700.579101562 c 0
 437.29296875 700.579101562 570.559570312 674.763671875 518.938476562 451.168945312 c 2
 471.200195312 244.388671875 l 2
 454.203125 170.768554688 400.509765625 -9.919921875 194.4375 -9.919921875 c 0
141.54296875 251.25 m 2
 111.268554688 120.118164062 147.467773438 84.16015625 216.157226562 84.16015625 c 0
 257.712890625 84.16015625 288.9296875 97.271484375 312.056640625 122.595703125 c 0
 335.565429688 148.338867188 355.030273438 191.157226562 368.904296875 251.25 c 2
 412.344726562 439.41015625 l 2
 442.905273438 571.786132812 405.671875 606.5 336.749023438 606.5 c 0
 268.077148438 606.5 215.262695312 570.564453125 184.983398438 439.41015625 c 2
 141.54296875 251.25 l 2
EndSplineSet
EndChar

StartChar: one
Encoding: 49 49 20
Width: 367
GlyphClass: 2
Flags: MW
HStem: -0.120117 21G<108.011 211.891 108.011 108.011> 670.78 20G<272.719 371.397 371.397 371.397>
VStem: 191.497 103.88
LayerCount: 2
Fore
SplineSet
75.482421875 482.979492188 m 1
 101.420898438 595.333984375 l 1
 272.71875 690.780273438 l 1
 371.397460938 690.780273438 l 1
 211.890625 -0.1201171875 l 1
 108.010742188 -0.1201171875 l 1
 240.357421875 573.139648438 l 1
 75.482421875 482.979492188 l 1
EndSplineSet
Substitution2: "'sups' Superscript lookup 1 subtable" uni00B9
EndChar

StartChar: two
Encoding: 50 50 21
Width: 533
GlyphClass: 2
Flags: MW
HStem: -0.120117 93.1006<137.429 402.99> 608.46 92.1201<314.069 340.535>
VStem: 57.2373 100.939 376.716 103.881
LayerCount: 2
Fore
SplineSet
345.728515625 700.580078125 m 0
 479.709960938 700.580078125 540.7734375 622.15625 515.778320312 513.889648438 c 2
 512.384765625 499.190429688 l 2
 497.103515625 433 458.705078125 382.236328125 377.387695312 309.0234375 c 2
 137.428710938 92.98046875 l 1
 424.483398438 92.98046875 l 1
 402.990234375 -0.1201171875 l 1
 -25.26953125 -0.1201171875 l 1
 -6.416015625 81.546875 l 1
 -4.0966796875 83.6298828125 l 1
 -4.0966796875 83.6298828125 311.188476562 366.849609375 311.34765625 366.989257812 c 0
 373.711914062 420.77734375 398.552734375 456.084960938 408.73046875 500.169921875 c 2
 411.4453125 511.9296875 l 2
 418.615234375 542.987304688 414.223632812 566.110351562 398.96875 582.836914062 c 0
 383.65625 599.62890625 358.569335938 608.459960938 322.500976562 608.459960938 c 0
 273.383789062 608.459960938 211.151367188 590.95703125 192.000976562 508.009765625 c 2
 187.815429688 489.879882812 l 1
 86.8759765625 489.879882812 l 1
 92.6455078125 514.870117188 l 2
 105.708007812 571.44921875 135.3671875 617.227539062 181.408203125 650.743164062 c 0
 227.35546875 684.19140625 282.409179688 700.580078125 345.728515625 700.580078125 c 0
EndSplineSet
Substitution2: "'sups' Superscript lookup 1 subtable" uni00B2
EndChar

StartChar: three
Encoding: 51 51 22
Width: 551
GlyphClass: 2
Flags: MW
HStem: -9.91992 92.1211<156.001 223.473> 310.54 93.0996<230.626 256.662 209.132 277.177> 608.46 92.1201<321.961 374.787>
VStem: 58.2178 100.94 66.0576 98.9805 382.598 102.899 394.358 103.879
LayerCount: 2
Fore
SplineSet
401.052734375 365.654296875 m 1xec
 419.818359375 356.755859375 488.965820312 321.341796875 462.150390625 205.190429688 c 2
 458.077148438 187.549804688 l 2
 444.119140625 127.086914062 412.83203125 78.37109375 364.36328125 42.875 c 0
 315.965820312 7.431640625 257.408203125 -9.919921875 189.538085938 -9.919921875 c 0
 122.463867188 -9.919921875 72.7314453125 5.5166015625 41.4287109375 37.322265625 c 0
 10.02734375 69.228515625 1.1474609375 114.299804688 14.2119140625 170.890625 c 2
 18.171875 188.041015625 l 1
 119.112304688 188.041015625 l 1
 115.37890625 171.87109375 l 2
 110.2109375 149.485351562 98.4560546875 82.201171875 211.786132812 82.201171875 c 0
 236.635742188 82.201171875 330.357421875 84.28125 354.19921875 187.55078125 c 2
 358.498046875 206.170898438 l 2xf2
 367.389648438 244.685546875 370.439453125 310.540039062 256.662109375 310.540039062 c 2
 209.131835938 310.540039062 l 1
 230.625976562 403.639648438 l 1
 277.176757812 403.639648438 l 2
 326.004882812 403.639648438 395.826171875 418.797851562 414.837890625 501.150390625 c 2
 418.005859375 514.870117188 l 2
 428.342773438 559.642578125 419.231445312 608.459960938 330.342773438 608.459960938 c 0
 283.09765625 608.459960938 218.877929688 594.70703125 200.8984375 516.830078125 c 2
 196.939453125 499.6796875 l 1
 97.958984375 499.6796875 l 1
 102.14453125 517.809570312 l 2
 115.192382812 574.328125 144.20703125 619.641601562 189.110351562 652.22265625 c 0
 233.962890625 684.765625 289.373046875 700.580078125 354.548828125 700.580078125 c 0
 419.0625 700.580078125 466.885742188 685.1015625 496.860351562 653.252929688 c 0
 526.904296875 621.331054688 535.165039062 576.637695312 522.262695312 520.75 c 2
 518.869140625 506.049804688 l 2
 510.732421875 470.806640625 494.634765625 440.249023438 470.482421875 415.0078125 c 0
 450.8359375 394.478515625 427.591796875 378.006835938 401.052734375 365.654296875 c 1xec
EndSplineSet
Substitution2: "'sups' Superscript lookup 1 subtable" uni00B3
EndChar

StartChar: four
Encoding: 52 52 23
Width: 566
GlyphClass: 2
Flags: MW
HStem: -0.120117 21G<260.891 364.771 260.891 260.891> 125.32 94.0801<122.933 289.851 415.45 475.07 122.933 393.73> 670.78 20G<354.558 462.06 462.06 462.06>
VStem: 344.377 103.88
LayerCount: 2
Fore
SplineSet
415.450195312 219.400390625 m 1
 496.790039062 219.400390625 l 1
 475.0703125 125.3203125 l 1
 393.73046875 125.3203125 l 1
 364.770507812 -0.1201171875 l 1
 260.890625 -0.1201171875 l 1
 289.850585938 125.3203125 l 1
 -9.0498046875 125.3203125 l 1
 11.3662109375 213.750976562 l 1
 354.557617188 690.780273438 l 1
 462.059570312 690.780273438 l 1
 122.932617188 219.400390625 l 1
 311.5703125 219.400390625 l 1
 352.069335938 394.8203125 l 1
 455.94921875 394.8203125 l 1
 415.450195312 219.400390625 l 1
EndSplineSet
EndChar

StartChar: five
Encoding: 53 53 24
Width: 538
GlyphClass: 2
Flags: MW
HStem: -9.91992 93.0996<188.723 217.317> 368.36 92.1201<284.255 317.011> 596.7 94.0801<222.275 521.176 222.275 222.275>
VStem: 63.1162 99.96 73.8965 94.0791 382.596 102.9
LayerCount: 2
Fore
SplineSet
181.59765625 420.50390625 m 1xec
 208.54296875 438.591796875 255.672851562 460.48046875 312.836914062 460.48046875 c 0
 373.786132812 460.48046875 418.016601562 441.8984375 443.927734375 404.198242188 c 0
 469.829101562 366.513671875 474.418945312 313.521484375 458.911132812 246.349609375 c 2
 449.182617188 204.209960938 l 2
 433.784179688 137.513671875 402.772460938 84.53515625 355.73828125 46.6005859375 c 0
 308.708007812 8.6689453125 250.975585938 -9.919921875 183.658203125 -9.919921875 c 0
 119.083984375 -9.919921875 71.814453125 6.427734375 43.2080078125 40.052734375 c 0
 14.7734375 73.4765625 6.6337890625 116.848632812 18.658203125 168.9296875 c 2
 22.1650390625 184.120117188 l 1
 122.125 184.120117188 l 1
 119.296875 171.870117188 l 2xf4
 113.389648438 146.286132812 117.516601562 125.591796875 131.76171875 108.643554688 c 0
 145.705078125 92.0556640625 170.3359375 83.1796875 207.110351562 83.1796875 c 0
 265.768554688 83.1796875 323.9609375 107.5234375 347.1875 208.129882812 c 2
 355.106445312 242.4296875 l 2
 371.353515625 312.806640625 358.131835938 368.360351562 275.889648438 368.360351562 c 0
 255.505859375 368.360351562 200.005859375 365 161.490234375 306.205078125 c 2
 158.551757812 301.719726562 l 1
 60.0947265625 301.719726562 l 1
 149.916992188 690.780273438 l 1
 542.896484375 690.780273438 l 1
 521.17578125 596.700195312 l 1
 222.275390625 596.700195312 l 1
 181.59765625 420.50390625 l 1xec
EndSplineSet
EndChar

StartChar: six
Encoding: 54 54 25
Width: 554
GlyphClass: 2
Flags: MW
HStem: -9.91992 92.1201<198.739 230.066> 331.121 93.0986<254.869 378.628> 670.78 20G<368.702 482.944 482.944 482.944>
VStem: 57.2363 103.879 404.155 102.9
LayerCount: 2
Fore
SplineSet
320.145507812 424.219726562 m 0
 437.110351562 424.219726562 502.044921875 339.796875 475.041015625 222.830078125 c 2
 469.611328125 199.309570312 l 2
 454.911132812 135.637695312 422.56640625 84.2021484375 372.635742188 46.4033203125 c 0
 322.799804688 8.67578125 263.735351562 -9.919921875 196.397460938 -9.919921875 c 0
 128.440429688 -9.919921875 77.751953125 8.484375 45.5634765625 45.9111328125 c 0
 13.3681640625 83.3466796875 4.6279296875 133.626953125 18.88671875 195.389648438 c 2
 23.8642578125 216.950195312 l 2
 38.8095703125 281.68359375 72.212890625 333.6328125 136.401367188 410.953125 c 2
 368.702148438 690.780273438 l 1
 482.944335938 690.780273438 l 1
 251.793945312 414.8671875 l 1
 272.916015625 421.114257812 295.673828125 424.219726562 320.145507812 424.219726562 c 0
366.032226562 196.37109375 m 2
 371.236328125 218.911132812 l 2
 379.313476562 253.899414062 374.60546875 280.72265625 357.686523438 300.747070312 c 0
 340.779296875 320.758789062 313.3671875 331.12109375 274.151367188 331.12109375 c 0
 235.586914062 331.12109375 204.104492188 320.921875 178.70703125 301.270507812 c 0
 153.3671875 281.663085938 136.37890625 254.354492188 127.969726562 217.9296875 c 2
 122.765625 195.389648438 l 2
 114.528320312 159.7109375 119.192382812 132.5703125 136.087890625 112.57421875 c 0
 153.036132812 92.513671875 179.813476562 82.2001953125 217.6640625 82.2001953125 c 0
 256.173828125 82.2001953125 288.052734375 92.6806640625 314.30859375 113.025390625 c 0
 340.553710938 133.361328125 357.795898438 160.694335938 366.032226562 196.37109375 c 2
EndSplineSet
EndChar

StartChar: seven
Encoding: 55 55 26
Width: 491
GlyphClass: 2
Flags: MW
HStem: -0.120117 21G<14.0195 120.201 14.0195 14.0195> 596.7 94.0801<115.617 409.545 93.8965 538.978>
LayerCount: 2
Fore
SplineSet
538.977539062 690.780273438 m 1
 518.603515625 602.533203125 l 1
 120.201171875 -0.1201171875 l 1
 14.01953125 -0.1201171875 l 1
 409.544921875 596.700195312 l 1
 93.896484375 596.700195312 l 1
 115.6171875 690.780273438 l 1
 538.977539062 690.780273438 l 1
EndSplineSet
EndChar

StartChar: eight
Encoding: 56 56 27
Width: 570
GlyphClass: 2
Flags: MW
HStem: -9.91992 92.1191<205.524 237.881> 315.439 92.1191<265.331 299.335> 608.459 92.1201<329.626 364.72>
VStem: 63.1182 102.898 77.8184 102.899 400.237 102.899 413.957 102.9
LayerCount: 2
Fore
SplineSet
423.674804688 363.196289062 m 1xec
 453.15234375 345.802734375 502.940429688 301.21875 480.770507812 205.190429688 c 2
 477.376953125 190.490234375 l 2
 463.396484375 129.936523438 431.1015625 80.732421875 380.829101562 44.3134765625 c 0
 330.668945312 7.9755859375 271.5234375 -9.919921875 204.23828125 -9.919921875 c 0
 136.331054688 -9.919921875 85.2421875 7.787109375 52.087890625 43.8203125 c 0
 18.8662109375 79.92578125 9.435546875 128.973632812 23.4111328125 189.508789062 c 2
 26.8046875 204.208984375 l 2xf2
 37.9287109375 252.391601562 69.3837890625 322.915039062 157.78515625 363.192382812 c 1
 136.859375 376.537109375 90.595703125 416.844726562 110.737304688 504.08984375 c 2
 113.678710938 516.830078125 l 2
 137.518554688 620.090820312 233.252929688 700.579101562 368.26953125 700.579101562 c 0
 501.504882812 700.579101562 563.385742188 622.466796875 538.997070312 516.830078125 c 2
 536.055664062 504.08984375 l 2
 528.375 470.821289062 513.100585938 440.921875 490.276367188 414.854492188 c 0
 471.256835938 393.1328125 448.952148438 375.850585938 423.674804688 363.196289062 c 1xec
213.184570312 502.12890625 m 2xec
 199.818359375 444.232421875 230.0390625 407.55859375 300.622070312 407.55859375 c 0
 336.696289062 407.55859375 365.66796875 416.39453125 388.377929688 433.143554688 c 0
 411.127929688 449.921875 425.848632812 472.435546875 432.704101562 502.12890625 c 2
 436.09765625 516.829101562 l 2
 442.784179688 545.79296875 438.20703125 567.581054688 422.796875 583.729492188 c 0
 407.329101562 599.938476562 382.4375 608.458984375 347.002929688 608.458984375 c 0
 312.25 608.458984375 283.754882812 599.961914062 260.76953125 583.729492188 c 0
 237.901367188 567.581054688 223.264648438 545.79296875 216.578125 516.829101562 c 2
 213.184570312 502.12890625 l 2xec
374.702148438 191.46875 m 2xf2
 378.322265625 207.149414062 l 2
 386.2421875 241.453125 381.368164062 267.3828125 364.307617188 286.419921875 c 0
 347.223632812 305.485351562 319.317382812 315.439453125 279.353515625 315.439453125 c 0
 239.389648438 315.439453125 206.88671875 305.485351562 180.998046875 286.419921875 c 0
 155.1484375 267.3828125 138.301757812 241.453125 130.381835938 207.149414062 c 2
 126.76171875 191.46875 l 2
 118.682617188 156.47265625 123.516601562 130.2265625 140.549804688 111.217773438 c 0
 157.634765625 92.15234375 185.541992188 82.19921875 225.505859375 82.19921875 c 0
 265.469726562 82.19921875 297.971679688 92.15234375 323.859375 111.217773438 c 0
 349.670898438 130.2265625 366.623046875 156.47265625 374.702148438 191.46875 c 2xf2
EndSplineSet
EndChar

StartChar: nine
Encoding: 57 57 28
Width: 554
GlyphClass: 2
Flags: MW
HStem: -0.120117 21G<74.8623 188.112 74.8623 74.8623> 266.44 93.0996<178.199 301.956> 608.46 92.1201<326.76 358.43>
VStem: 57.2383 102.899 404.159 102.897
LayerCount: 2
Fore
SplineSet
236.681640625 266.440429688 m 0
 119.716796875 266.440429688 54.7822265625 350.86328125 81.7861328125 467.830078125 c 2
 87.216796875 491.349609375 l 2
 101.916015625 555.022460938 134.260742188 606.458007812 184.19140625 644.256835938 c 0
 234.02734375 681.984375 293.091796875 700.580078125 360.428710938 700.580078125 c 0
 428.38671875 700.580078125 479.075195312 682.174804688 511.264648438 644.749023438 c 0
 543.458984375 607.313476562 552.19921875 557.033203125 537.939453125 495.26953125 c 2
 532.961914062 473.709960938 l 2
 518.71484375 411.99609375 488.305664062 359.952148438 421.4296875 279.737304688 c 2
 188.112304688 -0.1201171875 l 1
 74.8623046875 -0.1201171875 l 1
 305.798828125 275.538085938 l 1
 285.564453125 269.383789062 262.52734375 266.440429688 236.681640625 266.440429688 c 0
429.838867188 472.73046875 m 2
 435.041992188 495.26953125 l 2
 443.279296875 530.94921875 438.614257812 558.08984375 421.719726562 578.0859375 c 0
 404.791992188 598.122070312 377.696289062 608.459960938 339.163085938 608.459960938 c 0
 300.653320312 608.459960938 268.775390625 597.978515625 242.518554688 577.633789062 c 0
 216.2734375 557.298828125 199.03125 529.965820312 190.794921875 494.290039062 c 2
 185.590820312 471.75 l 2
 177.51953125 436.790039062 182.368164062 409.984375 199.599609375 389.948242188 c 0
 216.862304688 369.876953125 244.145507812 359.540039062 282.67578125 359.540039062 c 0
 321.236328125 359.540039062 352.907226562 369.737304688 378.65625 389.426757812 c 0
 404.3125 409.044921875 421.435546875 436.33203125 429.838867188 472.73046875 c 2
EndSplineSet
EndChar

StartChar: colon
Encoding: 58 58 29
Width: 205
GlyphClass: 2
Flags: MW
HStem: 47.9004 119.56<5.5791 92.6367 -22.0234 120.239> 283.1 119.561<59.8799 146.937 32.2764 174.54>
VStem: 50.377 114.66
LayerCount: 2
Fore
SplineSet
59.8798828125 402.66015625 m 1
 174.540039062 402.66015625 l 1
 146.936523438 283.099609375 l 1
 32.2763671875 283.099609375 l 1
 59.8798828125 402.66015625 l 1
5.5791015625 167.459960938 m 1
 120.239257812 167.459960938 l 1
 92.63671875 47.900390625 l 1
 -22.0234375 47.900390625 l 1
 5.5791015625 167.459960938 l 1
EndSplineSet
EndChar

StartChar: semicolon
Encoding: 59 59 30
Width: 205
GlyphClass: 2
Flags: MW
HStem: 331.12 119.56<70.9658 158.023 43.3633 185.626>
VStem: 50.377 114.66 69.9766 95.0605
LayerCount: 2
Fore
SplineSet
70.9658203125 450.6796875 m 1xc0
 185.625976562 450.6796875 l 1
 158.0234375 331.120117188 l 1
 43.36328125 331.120117188 l 1
 70.9658203125 450.6796875 l 1xc0
14.0927734375 119.440429688 m 1xa0
 109.153320312 119.440429688 l 1
 66.1962890625 -66.625 l 1
 -48.4013671875 -151.251953125 l 1
 14.0927734375 119.440429688 l 1xa0
EndSplineSet
EndChar

StartChar: less
Encoding: 60 60 31
Width: 512
GlyphClass: 2
Flags: W
LayerCount: 2
Fore
SplineSet
26.64453125 237.477539062 m 1
 45.2236328125 317.954101562 l 1
 491.903320312 482.637695312 l 1
 469.225585938 384.408203125 l 1
 171.212890625 277.6796875 l 1
 419.728515625 170.016601562 l 1
 397.048828125 71.77734375 l 1
 26.64453125 237.477539062 l 1
EndSplineSet
Substitution2: "'rtla' Right to Left Alternates lookup 0 subtable" greater
EndChar

StartChar: equal
Encoding: 61 61 32
Width: 512
GlyphClass: 2
Flags: MW
HStem: 148.84 93.1006<27.6748 414.84 6.18066 436.334> 312.5 94.0801<65.6846 452.624 43.9648 474.344>
LayerCount: 2
Fore
SplineSet
65.6845703125 406.580078125 m 1
 474.34375 406.580078125 l 1
 452.624023438 312.5 l 1
 43.96484375 312.5 l 1
 65.6845703125 406.580078125 l 1
27.6748046875 241.940429688 m 1
 436.333984375 241.940429688 l 1
 414.83984375 148.83984375 l 1
 6.1806640625 148.83984375 l 1
 27.6748046875 241.940429688 l 1
EndSplineSet
EndChar

StartChar: greater
Encoding: 62 62 33
Width: 512
GlyphClass: 2
Flags: W
LayerCount: 2
Fore
SplineSet
60.56640625 384.408203125 m 1
 83.244140625 482.637695312 l 1
 453.8828125 317.954101562 l 1
 435.303710938 237.477539062 l 1
 -11.6103515625 71.77734375 l 1
 11.0693359375 170.016601562 l 1
 309.297851562 277.6796875 l 1
 60.56640625 384.408203125 l 1
EndSplineSet
Substitution2: "'rtla' Right to Left Alternates lookup 0 subtable" less
EndChar

StartChar: question
Encoding: 63 63 34
Width: 487
GlyphClass: 2
Flags: MW
HStem: -0.121094 115.641<127.848 214.83 101.149 241.528> 607.48 93.0996<289.938 349.456>
VStem: 36.4922 100.125 184.637 113.681 349.277 102.899
LayerCount: 2
Fore
SplineSet
299.736328125 607.48046875 m 0
 214.928710938 607.48046875 183.135742188 562.99609375 171.120117188 510.950195312 c 2
 169.423828125 503.599609375 l 1
 69.298828125 503.599609375 l 1
 76.8740234375 533.533203125 94.31640625 602.452148438 159.438476562 651.615234375 c 0
 203.112304688 684.5859375 257.666992188 700.580078125 322.208984375 700.580078125 c 0
 386.057617188 700.580078125 433.594726562 685.436523438 463.717773438 654.284179688 c 0
 493.888671875 623.081054688 502.625 580.015625 490.299804688 526.629882812 c 0
 478.227539062 474.337890625 452.0859375 427.82421875 396.220703125 382.4375 c 2
 313.994140625 315.633789062 l 2
 283.100585938 290.53515625 272.227539062 273.963867188 263.58984375 236.549804688 c 2
 250.353515625 179.219726562 l 1
 149.4140625 179.219726562 l 1
 163.5546875 240.469726562 l 2
 177.93359375 302.751953125 197.051757812 332.53515625 247.110351562 372.131835938 c 0
 247.161132812 372.171875 316.846679688 427.991210938 316.846679688 427.991210938 c 2
 316.905273438 428.0390625 316.963867188 428.084960938 317.0234375 428.129882812 c 0
 361.008789062 461.8359375 377.985351562 485.84765625 386.721679688 523.690429688 c 0
 392.692382812 549.552734375 399.174804688 607.48046875 299.736328125 607.48046875 c 0
127.84765625 115.51953125 m 1
 241.528320312 115.51953125 l 1
 214.830078125 -0.12109375 l 1
 101.149414062 -0.12109375 l 1
 127.84765625 115.51953125 l 1
EndSplineSet
EndChar

StartChar: at
Encoding: 64 64 35
Width: 854
GlyphClass: 2
Flags: MW
HStem: -127.52 88.2002<280.441 375.71> 54.7637 80.3584<588.556 600.324> 423.245 82.3184<425.74 453.471 376.708 454.31> 605.521 88.2031<397.355 542.975 396.192 572.753>
VStem: 54.2998 96.0391 257.16 95.0605 501.181 94.0791 710.899 96.04
LayerCount: 2
Fore
SplineSet
123.98046875 247.331054688 m 2
 82.85546875 69.19921875 167.630859375 -39.3193359375 337.591796875 -39.3193359375 c 0
 435.65625 -39.3193359375 496.98828125 -15.8671875 557.900390625 13.458984375 c 1
 576.795898438 -63.337890625 l 1
 507.212890625 -99.02734375 434.192382812 -127.51953125 317.227539062 -127.51953125 c 0
 243.654296875 -127.51953125 181.9375 -111.918945312 132.443359375 -80.546875 c 0
 82.9931640625 -49.203125 48.8388671875 -5.0009765625 30.2509765625 51.67578125 c 0
 11.6416015625 108.41796875 10.9541015625 173.749023438 27.9423828125 247.333984375 c 2
 45.1376953125 321.813476562 l 2
 96.7685546875 545.454101562 285.553710938 693.723632812 506.830078125 693.723632812 c 0
 579.120117188 693.723632812 640.4921875 678.110351562 690.606445312 646.768554688 c 0
 780.317382812 590.661132812 835.012695312 483.098632812 798.456054688 324.75390625 c 2
 781.487304688 251.25390625 l 2
 766.772460938 187.516601562 741.193359375 138.33984375 703.6796875 104.771484375 c 0
 666.49609375 71.49609375 623.7734375 54.763671875 576.874023438 54.763671875 c 0
 545.861328125 54.763671875 493.802734375 62.8251953125 474.916992188 113.858398438 c 1
 442.2890625 74.30078125 395.673828125 54.763671875 337.754882812 54.763671875 c 0
 287.24609375 54.763671875 252.03125 70.6279296875 234.338867188 103.190429688 c 0
 216.87109375 135.338867188 215.265625 180.034179688 228.313476562 236.553710938 c 2
 248.223632812 322.793945312 l 2
 267.232421875 405.127929688 315.505859375 505.563476562 437.909179688 505.563476562 c 0
 469.033203125 505.563476562 505.135742188 497.619140625 527.397460938 466.572265625 c 1
 534.13671875 495.762695312 l 1
 626.256835938 495.762695312 l 1
 559.173828125 205.193359375 l 2
 553.52734375 180.73828125 555.056640625 163.4140625 562.274414062 152.208984375 c 0
 569.708007812 140.66796875 580.705078125 135.122070312 596.40625 135.122070312 c 0
 634.930664062 135.122070312 665.129882812 163.250976562 684.994140625 249.291992188 c 2
 702.189453125 323.771484375 l 2
 742.1640625 496.922851562 659.041015625 605.520507812 486.465820312 605.520507812 c 0
 308.245117188 605.520507812 180.547851562 492.349609375 141.40234375 322.791015625 c 2
 123.98046875 247.331054688 l 2
375.379882812 137.083984375 m 0
 406.21875 137.083984375 451.889648438 147.998046875 472.560546875 237.534179688 c 2
 492.470703125 323.774414062 l 2
 500.103515625 356.833984375 499.221679688 381.515625 490.984375 398.379882812 c 0
 482.955078125 414.818359375 467.174804688 423.245117188 441.4453125 423.245117188 c 0
 410.03515625 423.245117188 363.892578125 412.057617188 343.05859375 321.814453125 c 2
 324.505859375 241.455078125 l 2
 316.3984375 206.336914062 316.686523438 180.19921875 324.217773438 162.689453125 c 0
 331.439453125 145.899414062 347.583007812 137.083984375 375.379882812 137.083984375 c 0
EndSplineSet
EndChar

StartChar: A
Encoding: 65 65 36
Width: 666
GlyphClass: 2
Flags: MW
HStem: -0.120117 21G<-77.9531 -77.9531 -77.9531 31.1699 474.961 474.961 474.961 585.049> 152.76 90.1602<184.287 433.053 184.287 448.516 127.225 433.053> 670.78 20G<369.93 455.179 455.179 455.179>
LayerCount: 2
Fore
SplineSet
-77.953125 -0.1201171875 m 1
 369.9296875 690.780273438 l 1
 455.178710938 690.780273438 l 1
 585.048828125 -0.1201171875 l 1
 474.9609375 -0.1201171875 l 1
 448.515625 152.759765625 l 1
 127.224609375 152.759765625 l 1
 31.169921875 -0.1201171875 l 1
 -77.953125 -0.1201171875 l 1
184.287109375 242.919921875 m 1
 433.052734375 242.919921875 l 1
 380.459960938 553.875976562 l 1
 184.287109375 242.919921875 l 1
EndSplineSet
EndChar

StartChar: B
Encoding: 66 66 37
Width: 671
GlyphClass: 2
Flags: MW
HStem: -0.120117 93.1006<115.782 300.581> 306.62 93.0996<186.6 367.476 165.105 387.009> 597.681 93.0996<232.303 434.673 232.303 232.303>
VStem: 73.8965 103.879 503.136 102.901 513.915 103.881
LayerCount: 2
Fore
SplineSet
515.8515625 356.569335938 m 1xf8
 565.078125 333.939453125 600.499023438 286.578125 579.446289062 195.390625 c 0xf4
 560.478515625 113.232421875 498.454101562 -0.1201171875 300.581054688 -0.1201171875 c 2
 -9.58984375 -0.1201171875 l 1
 149.916992188 690.780273438 l 1
 454.20703125 690.780273438 l 2
 552.264648438 690.780273438 675.137695312 660.809570312 638.50390625 502.129882812 c 0
 630.362304688 466.86328125 603.331054688 394.139648438 515.8515625 356.569335938 c 1xf8
534.698242188 498.2109375 m 0xf8
 546.901367188 551.072265625 534.48046875 597.680664062 434.672851562 597.680664062 c 2
 232.302734375 597.680664062 l 1
 186.599609375 399.719726562 l 1
 387.008789062 399.719726562 l 2
 490.947265625 399.719726562 523.046875 447.743164062 534.698242188 498.2109375 c 0xf8
324.032226562 92.98046875 m 2
 422.950195312 92.98046875 462.252929688 137.7265625 476.922851562 201.26953125 c 0xf4
 488.16015625 249.942382812 481.889648438 306.620117188 367.475585938 306.620117188 c 2
 165.10546875 306.620117188 l 1
 115.782226562 92.98046875 l 1
 324.032226562 92.98046875 l 2
EndSplineSet
EndChar

StartChar: C
Encoding: 67 67 38
Width: 680
GlyphClass: 2
Flags: MW
HStem: -8.94043 95.0605<226.456 309.556> 605.52 95.0605<387.857 438.61>
VStem: 63.1152 103.881 522.736 102.899
LayerCount: 2
Fore
SplineSet
292.0703125 86.1201171875 m 0
 350.680664062 86.1201171875 462.245117188 99.484375 489.137695312 215.969726562 c 2
 491.740234375 227.240234375 l 1
 594.639648438 227.240234375 l 1
 591.811523438 214.990234375 l 2
 575.7109375 145.250976562 538.299804688 89.7158203125 479.935546875 50.017578125 c 0
 421.75390625 10.443359375 350.948242188 -8.9404296875 268.163085938 -8.9404296875 c 0
 176.662109375 -8.9404296875 110.603515625 16.5205078125 71.517578125 68.21875 c 0
 32.341796875 120.034179688 25.0263671875 196.517578125 48.0693359375 296.330078125 c 2
 70.9208984375 395.309570312 l 2
 93.966796875 495.131835938 136.76953125 571.626953125 200.205078125 623.439453125 c 0
 263.493164062 675.130859375 341.78515625 700.580078125 433.928710938 700.580078125 c 0
 516.700195312 700.580078125 578.430664062 681.370117188 618.096679688 642.116210938 c 0
 657.89453125 602.731445312 669.5234375 547.352539062 653.426757812 477.629882812 c 2
 650.598632812 465.379882812 l 1
 546.71875 465.379882812 l 1
 549.3203125 476.650390625 l 2
 559.016601562 518.646484375 551.919921875 549.760742188 528.568359375 571.775390625 c 0
 505.0859375 593.911132812 466.21875 605.51953125 411.001953125 605.51953125 c 0
 280.482421875 605.51953125 207.1875 535.588867188 173.670898438 390.41015625 c 2
 151.723632812 295.349609375 l 2
 119.53515625 155.923828125 160.841796875 86.1201171875 292.0703125 86.1201171875 c 0
EndSplineSet
EndChar

StartChar: D
Encoding: 68 68 39
Width: 674
GlyphClass: 2
Flags: MW
HStem: -0.120117 94.0791<116.011 245.7> 596.699 94.0811<232.077 385.446 232.077 232.077>
VStem: 73.8965 103.881 516.857 103.88
LayerCount: 2
Fore
SplineSet
627.411132812 390.409179688 m 2
 606.822265625 301.229492188 l 2
 584.076171875 202.705078125 541.650390625 127.178710938 478.685546875 76.0234375 c 0
 415.860351562 24.982421875 337.821289062 -0.1201171875 245.700195312 -0.1201171875 c 2
 -9.58984375 -0.1201171875 l 1
 149.916992188 690.780273438 l 1
 407.166992188 690.780273438 l 2
 498.635742188 690.780273438 564.630859375 665.838867188 603.63671875 615.125 c 0
 642.73828125 564.286132812 650.154296875 488.920898438 627.411132812 390.409179688 c 2
522.400390625 385.508789062 m 2
 556.517578125 533.286132812 509.008789062 596.69921875 385.446289062 596.69921875 c 2
 232.077148438 596.69921875 l 1
 116.010742188 93.958984375 l 1
 269.379882812 93.958984375 l 2
 395.203125 93.958984375 469.862304688 157.942382812 502.490234375 299.26953125 c 2
 522.400390625 385.508789062 l 2
EndSplineSet
EndChar

StartChar: E
Encoding: 69 69 40
Width: 598
GlyphClass: 2
Flags: MW
HStem: -0.120117 94.0801<116.011 477.471> 303.68 94.0801<186.148 492.729 164.429 514.448> 596.7 94.0801<232.077 615.257 232.077 232.077>
VStem: 73.8965 103.881
LayerCount: 2
Fore
SplineSet
116.010742188 93.9599609375 m 1
 499.190429688 93.9599609375 l 1
 477.470703125 -0.1201171875 l 1
 -9.58984375 -0.1201171875 l 1
 149.916992188 690.780273438 l 1
 636.977539062 690.780273438 l 1
 615.256835938 596.700195312 l 1
 232.077148438 596.700195312 l 1
 186.1484375 397.759765625 l 1
 514.448242188 397.759765625 l 1
 492.728515625 303.6796875 l 1
 164.428710938 303.6796875 l 1
 116.010742188 93.9599609375 l 1
EndSplineSet
EndChar

StartChar: F
Encoding: 70 70 41
Width: 591
GlyphClass: 2
Flags: MW
HStem: -0.120117 21G<-9.58984 94.291 -9.58984 -9.58984> 300.74 94.0801<163.75 514.749 185.47 493.029> 596.7 94.0801<232.077 615.257 232.077 232.077>
VStem: 73.8965 103.881
LayerCount: 2
Fore
SplineSet
163.75 300.740234375 m 1
 94.291015625 -0.1201171875 l 1
 -9.58984375 -0.1201171875 l 1
 149.916992188 690.780273438 l 1
 636.977539062 690.780273438 l 1
 615.256835938 596.700195312 l 1
 232.077148438 596.700195312 l 1
 185.469726562 394.8203125 l 1
 514.749023438 394.8203125 l 1
 493.029296875 300.740234375 l 1
 163.75 300.740234375 l 1
EndSplineSet
EndChar

StartChar: G
Encoding: 71 71 42
Width: 680
GlyphClass: 2
Flags: MW
HStem: -8.94043 95.0605<226.457 310.931> 277.22 90.1602<337.895 504.259 317.079 627.975> 605.52 95.0596<386.878 438.26>
VStem: 63.1172 103.88 523.717 102.9
LayerCount: 2
Fore
SplineSet
292.0703125 86.1201171875 m 0
 420.676757812 86.1201171875 475.814453125 154.012695312 496.6796875 244.389648438 c 2
 504.258789062 277.219726562 l 1
 317.079101562 277.219726562 l 1
 337.89453125 367.379882812 l 1
 627.974609375 367.379882812 l 1
 600.9375 250.26953125 l 2
 581.614257812 166.572265625 542.596679688 101.676757812 483.388671875 57.162109375 c 0
 424.438476562 12.8427734375 352.71875 -8.9404296875 269.143554688 -8.9404296875 c 0
 177.001953125 -8.9404296875 110.612304688 16.5087890625 71.517578125 68.21875 c 0
 32.341796875 120.034179688 25.02734375 196.516601562 48.0712890625 296.329101562 c 2
 70.9228515625 395.30859375 l 2
 93.9658203125 495.122070312 136.595703125 571.60546875 199.6953125 623.420898438 c 0
 262.666992188 675.130859375 340.807617188 700.579101562 432.94921875 700.579101562 c 0
 515.104492188 700.579101562 576.60546875 681.013671875 616.424804688 641.112304688 c 0
 656.31640625 601.137695312 668.337890625 546.458984375 652.673828125 478.609375 c 2
 649.845703125 466.359375 l 1
 546.946289062 466.359375 l 1
 549.547851562 477.62890625 l 2
 558.758789062 517.526367188 551.475585938 548.067382812 527.814453125 570.83203125 c 0
 504.123046875 593.625976562 465.517578125 605.51953125 411.002929688 605.51953125 c 0
 280.483398438 605.51953125 207.188476562 535.588867188 173.671875 390.41015625 c 2
 151.724609375 295.349609375 l 2
 119.536132812 155.923828125 160.842773438 86.1201171875 292.0703125 86.1201171875 c 0
EndSplineSet
EndChar

StartChar: H
Encoding: 72 72 43
Width: 684
GlyphClass: 2
Flags: MW
HStem: -0.120117 21G<-9.58984 94.291 -9.58984 -9.58984 432.391 535.291 432.391 432.391> 305.64 93.1006<186.375 502.98 164.881 524.475> 670.78 20G<149.917 253.798 253.798 253.798 591.897 694.798 694.798 694.798>
VStem: 73.8965 103.881 515.877 102.9
LayerCount: 2
Fore
SplineSet
694.797851562 690.780273438 m 1
 535.291015625 -0.1201171875 l 1
 432.390625 -0.1201171875 l 1
 502.98046875 305.639648438 l 1
 164.880859375 305.639648438 l 1
 94.291015625 -0.1201171875 l 1
 -9.58984375 -0.1201171875 l 1
 149.916992188 690.780273438 l 1
 253.797851562 690.780273438 l 1
 186.375 398.740234375 l 1
 524.474609375 398.740234375 l 1
 591.897460938 690.780273438 l 1
 694.797851562 690.780273438 l 1
EndSplineSet
EndChar

StartChar: I
Encoding: 73 73 44
Width: 255
GlyphClass: 2
Flags: MW
HStem: -0.120117 21G<-2.72949 101.15 -2.72949 -2.72949> 670.78 20G<156.777 260.657 260.657 260.657>
VStem: 80.7568 103.88
LayerCount: 2
Fore
SplineSet
156.77734375 690.780273438 m 1
 260.657226562 690.780273438 l 1
 101.150390625 -0.1201171875 l 1
 -2.7294921875 -0.1201171875 l 1
 156.77734375 690.780273438 l 1
EndSplineSet
EndChar

StartChar: J
Encoding: 74 74 45
Width: 350
GlyphClass: 2
Flags: MW
HStem: -0.120117 94.0801<-30.0098 34.0205 -51.7295 38.0996> 670.78 20G<250.857 354.737 354.737 354.737>
VStem: 174.837 103.88
LayerCount: 2
Fore
SplineSet
231.99609375 159.129882812 m 2
 209.606445312 62.1494140625 150.052734375 -0.1201171875 34.0205078125 -0.1201171875 c 2
 -51.7294921875 -0.1201171875 l 1
 -30.009765625 93.9599609375 l 1
 38.099609375 93.9599609375 l 2
 67.30078125 93.9599609375 87.7451171875 100.318359375 100.435546875 110.84765625 c 0
 113.168945312 121.412109375 123.927734375 140.990234375 130.831054688 170.889648438 c 2
 250.857421875 690.780273438 l 1
 354.737304688 690.780273438 l 1
 231.99609375 159.129882812 l 2
EndSplineSet
EndChar

StartChar: K
Encoding: 75 75 46
Width: 671
GlyphClass: 2
Flags: MW
HStem: -0.120117 21G<-9.58984 94.291 -9.58984 -9.58984 467.161 591.809 467.161 467.161> 670.78 20G<149.917 253.798 253.798 253.798 591.123 722.982 722.982 722.982>
VStem: 73.8965 103.881
LayerCount: 2
Fore
SplineSet
467.161132812 -0.1201171875 m 1
 318.125 343.344726562 l 1
 138.077148438 189.540039062 l 1
 94.291015625 -0.1201171875 l 1
 -9.58984375 -0.1201171875 l 1
 149.916992188 690.780273438 l 1
 253.797851562 690.780273438 l 1
 169.119140625 323.998046875 l 1
 591.123046875 690.780273438 l 1
 722.982421875 690.780273438 l 1
 404.329101562 417.127929688 l 1
 591.80859375 -0.1201171875 l 1
 467.161132812 -0.1201171875 l 1
EndSplineSet
EndChar

StartChar: L
Encoding: 76 76 47
Width: 581
GlyphClass: 2
Flags: MW
HStem: -0.120117 94.0801<116.011 473.551> 670.78 20G<149.917 253.798 253.798 253.798>
VStem: 73.8965 103.881
LayerCount: 2
Fore
SplineSet
149.916992188 690.780273438 m 1
 253.797851562 690.780273438 l 1
 116.010742188 93.9599609375 l 1
 495.270507812 93.9599609375 l 1
 473.55078125 -0.1201171875 l 1
 -9.58984375 -0.1201171875 l 1
 149.916992188 690.780273438 l 1
EndSplineSet
EndChar

StartChar: M
Encoding: 77 77 48
Width: 825
GlyphClass: 2
Flags: MW
HStem: -0.120117 21G<-9.58984 94.291 -9.58984 -9.58984 571.551 674.45 571.551 571.551> 670.78 20G<149.917 250.755 250.755 250.755 734.101 833.957 833.957 833.957>
VStem: 73.8965 103.881 655.037 102.899
LayerCount: 2
Fore
SplineSet
833.95703125 690.780273438 m 1
 674.450195312 -0.1201171875 l 1
 571.55078125 -0.1201171875 l 1
 684.935546875 491.002929688 l 1
 399.551757812 134.139648438 l 1
 328.28125 134.139648438 l 1
 207.67578125 491.002929688 l 1
 94.291015625 -0.1201171875 l 1
 -9.58984375 -0.1201171875 l 1
 149.916992188 690.780273438 l 1
 250.754882812 690.780273438 l 1
 392.841796875 259.427734375 l 1
 734.100585938 690.780273438 l 1
 833.95703125 690.780273438 l 1
EndSplineSet
EndChar

StartChar: N
Encoding: 78 78 49
Width: 721
GlyphClass: 2
Flags: MW
HStem: -0.120117 21G<-9.58984 94.291 -9.58984 -9.58984 470.336 570.57 470.336 470.336> 670.78 20G<149.917 250.156 250.156 250.156 626.197 730.077 730.077 730.077>
VStem: 73.8965 103.881 550.177 103.88
LayerCount: 2
Fore
SplineSet
730.077148438 690.780273438 m 1
 570.5703125 -0.1201171875 l 1
 470.3359375 -0.1201171875 l 1
 211.658203125 508.255859375 l 1
 94.291015625 -0.1201171875 l 1
 -9.58984375 -0.1201171875 l 1
 149.916992188 690.780273438 l 1
 250.15625 690.780273438 l 1
 508.610351562 181.458007812 l 1
 626.197265625 690.780273438 l 1
 730.077148438 690.780273438 l 1
EndSplineSet
EndChar

StartChar: O
Encoding: 79 79 50
Width: 694
GlyphClass: 2
Flags: MW
HStem: -8.94043 95.0605<227.008 310.975> 605.52 95.0605<386.218 476.924>
VStem: 63.1172 103.88 538.417 102.9
LayerCount: 2
Fore
SplineSet
48.0712890625 296.330078125 m 2
 70.9228515625 395.309570312 l 2
 93.966796875 495.123046875 136.595703125 571.606445312 199.696289062 623.421875 c 0
 262.65234375 675.119140625 340.467773438 700.580078125 431.96875 700.580078125 c 0
 522.827148438 700.580078125 588.25390625 675.108398438 626.682617188 623.38671875 c 0
 665.1875 571.563476562 672.162109375 495.104492188 649.123046875 395.309570312 c 2
 626.271484375 296.330078125 l 2
 603.228515625 196.517578125 560.598632812 120.034179688 497.499023438 68.21875 c 0
 434.541015625 16.5205078125 356.725585938 -8.9404296875 265.223632812 -8.9404296875 c 0
 174.365234375 -8.9404296875 108.939453125 16.53125 70.5107421875 68.25390625 c 0
 32.0068359375 120.076171875 25.0322265625 196.536132812 48.0712890625 296.330078125 c 2
289.130859375 86.1201171875 m 0
 421.69140625 86.1201171875 492.020507812 160.537109375 523.145507812 295.350585938 c 2
 545.091796875 390.411132812 l 2
 576.4375 526.186523438 544.8046875 605.51953125 409.04296875 605.51953125 c 0
 280.625 605.51953125 207.393554688 536.477539062 173.671875 390.41015625 c 2
 151.724609375 295.349609375 l 2
 118.088867188 149.65625 164.884765625 86.1201171875 289.130859375 86.1201171875 c 0
EndSplineSet
EndChar

StartChar: P
Encoding: 80 80 51
Width: 637
GlyphClass: 2
Flags: MW
HStem: -0.120117 21G<-9.58984 94.29 -9.58984 -9.58984> 271.34 94.0801<178.681 353.45 156.961 377.13> 596.7 94.0801<232.075 424.645 232.075 232.075>
VStem: 73.8965 103.88 509.995 103.88
LayerCount: 2
Fore
SplineSet
450.286132812 690.780273438 m 2
 508.404296875 690.780273438 688.080078125 682.91796875 641.364257812 480.5703125 c 0
 629.860351562 430.7421875 584.017578125 271.33984375 353.450195312 271.33984375 c 2
 156.9609375 271.33984375 l 1
 94.2900390625 -0.1201171875 l 1
 -9.58984375 -0.1201171875 l 1
 149.916992188 690.780273438 l 1
 450.286132812 690.780273438 l 2
377.129882812 365.419921875 m 2
 481.46484375 365.419921875 521.188476562 409.983398438 537.2578125 479.58984375 c 0
 547.243164062 522.838867188 542.58984375 552.100585938 525.420898438 569.452148438 c 0
 508.005859375 587.053710938 474.796875 596.700195312 424.64453125 596.700195312 c 2
 232.075195312 596.700195312 l 1
 178.680664062 365.419921875 l 1
 377.129882812 365.419921875 l 2
EndSplineSet
EndChar

StartChar: Q
Encoding: 81 81 52
Width: 694
GlyphClass: 2
Flags: MW
HStem: -8.94043 95.0605<227.008 282.938> 605.52 95.0605<386.218 476.924>
VStem: 63.1172 103.88 538.417 102.9
LayerCount: 2
Fore
SplineSet
265.223632812 -8.9404296875 m 0
 174.365234375 -8.9404296875 108.939453125 16.53125 70.5107421875 68.25390625 c 0
 32.0068359375 120.076171875 25.0322265625 196.536132812 48.0712890625 296.330078125 c 2
 70.9228515625 395.309570312 l 2
 93.966796875 495.123046875 136.595703125 571.606445312 199.696289062 623.421875 c 0
 262.65234375 675.119140625 340.467773438 700.580078125 431.96875 700.580078125 c 0
 522.827148438 700.580078125 588.25390625 675.108398438 626.682617188 623.38671875 c 0
 665.1875 571.563476562 672.162109375 495.104492188 649.123046875 395.309570312 c 2
 626.271484375 296.330078125 l 2
 598.879882812 177.68359375 543.294921875 91.751953125 458.860351562 41.1064453125 c 1
 503.513671875 -106.52734375 l 1
 410.786132812 -150.698242188 l 1
 364.12109375 2.494140625 l 1
 333.614257812 -5.1591796875 300.651367188 -8.9404296875 265.223632812 -8.9404296875 c 0
289.130859375 86.1201171875 m 0
 421.690429688 86.1201171875 492.020507812 160.53515625 523.14453125 295.349609375 c 2
 545.091796875 390.41015625 l 2
 576.4375 526.184570312 544.805664062 605.51953125 409.04296875 605.51953125 c 0
 280.625 605.51953125 207.393554688 536.477539062 173.671875 390.41015625 c 2
 151.724609375 295.349609375 l 2
 118.088867188 149.65625 164.884765625 86.1201171875 289.130859375 86.1201171875 c 0
EndSplineSet
EndChar

StartChar: R
Encoding: 82 82 53
Width: 665
GlyphClass: 2
Flags: MW
HStem: -0.120117 21G<436.365 555.229 436.365 436.365> 287.999 92.1201<182.076 191.524> 596.699 94.0801<232.077 426.606 232.077 232.077>
VStem: 73.8965 103.881 509.997 103.88
LayerCount: 2
Fore
SplineSet
643.40234375 489.388671875 m 0
 635.251953125 454.0859375 603.538085938 336.467773438 455.35546875 299.358398438 c 1
 555.228515625 -0.1201171875 l 1
 436.365234375 -0.1201171875 l 1
 345.102539062 288 l 1
 283.670898438 288 222.240234375 287.999023438 160.80859375 287.999023438 c 1
 94.2900390625 -0.12109375 l 1
 -9.5908203125 -0.12109375 l 1
 149.916015625 690.779296875 l 1
 452.24609375 690.779296875 l 2
 527.76171875 690.779296875 582.758789062 673.918945312 616.051757812 639.0703125 c 0
 649.430664062 604.133789062 658.244140625 553.67578125 643.40234375 489.388671875 c 0
539.522460938 489.388671875 m 0
 552.873046875 547.217773438 539.127929688 596.69921875 426.606445312 596.69921875 c 2
 232.077148438 596.69921875 l 1
 182.076171875 380.119140625 l 1
 382.485351562 380.119140625 l 2
 481.77734375 380.119140625 523.776367188 421.185546875 539.522460938 489.388671875 c 0
EndSplineSet
EndChar

StartChar: S
Encoding: 83 83 54
Width: 612
GlyphClass: 2
Flags: MW
HStem: -6 91.1377<183.909 260.182> 609.44 90.1592<344.656 418.976 344.656 434.039>
VStem: 49.3945 100.942 473.734 102.902
LayerCount: 2
Fore
SplineSet
183.708984375 506.049804688 m 0
 172.48046875 457.4140625 188.524414062 417.576171875 285.146484375 404.56640625 c 2
 285.146484375 404.56640625 377.658203125 393.79296875 377.790039062 393.776367188 c 0
 508.9609375 375.868164062 565.005859375 311.120117188 539.41796875 200.290039062 c 0
 524.338867188 134.975585938 487.840820312 83.4111328125 430.5546875 47.3671875 c 0
 373.506835938 11.4736328125 302.481445312 -6 217.8828125 -6 c 0
 149.934570312 -6 -35.169921875 3.5546875 -3.15234375 201.733398438 c 2
 -1.8818359375 209.59765625 l 1
 98.95703125 209.59765625 l 1
 92.404296875 163.229492188 84.7255859375 85.1376953125 242.840820312 85.1376953125 c 0
 357.950195312 85.1376953125 418.529296875 122.381835938 435.158203125 194.408203125 c 0
 446.65234375 244.193359375 433.959960938 288.76171875 329.977539062 300.790039062 c 2
 241.283203125 311.575195312 l 2
 111.7734375 328.16015625 56.265625 391.260742188 81.4091796875 500.169921875 c 0
 95.8759765625 562.833984375 130.599609375 612.565429688 185.013671875 647.642578125 c 0
 239.190429688 682.56640625 305.591796875 699.599609375 383.720703125 699.599609375 c 0
 454.23046875 699.599609375 619.791992188 686.728515625 596.047851562 500.930664062 c 2
 595.010742188 492.8203125 l 1
 493.860351562 492.8203125 l 1
 500.547851562 538.141601562 505.168945312 609.440429688 362.908203125 609.440429688 c 0
 284.549804688 609.440429688 202.735351562 588.46484375 183.708984375 506.049804688 c 0
EndSplineSet
EndChar

StartChar: T
Encoding: 84 84 55
Width: 552
GlyphClass: 2
Flags: MW
HStem: -0.120117 21G<145.251 248.15 145.251 145.251> 596.7 94.0801<86.2178 283.037 64.4971 626.197 385.937 385.937 385.937 604.477>
VStem: 228.737 102.899
LayerCount: 2
Fore
SplineSet
283.037109375 596.700195312 m 1
 64.4970703125 596.700195312 l 1
 86.2177734375 690.780273438 l 1
 626.197265625 690.780273438 l 1
 604.4765625 596.700195312 l 1
 385.936523438 596.700195312 l 1
 248.150390625 -0.1201171875 l 1
 145.250976562 -0.1201171875 l 1
 283.037109375 596.700195312 l 1
EndSplineSet
EndChar

StartChar: U
Encoding: 85 85 56
Width: 691
GlyphClass: 2
Flags: MW
HStem: -6 93.0996<223.027 307.682> 670.78 20G<149.917 253.798 253.798 253.798 597.777 701.657 701.657 701.657>
VStem: 73.8965 103.881 521.757 103.88
LayerCount: 2
Fore
SplineSet
286.416015625 87.099609375 m 0
 413.053710938 87.099609375 473.801757812 153.782226562 497.208007812 255.169921875 c 2
 597.77734375 690.780273438 l 1
 701.657226562 690.780273438 l 1
 599.73046875 249.290039062 l 2
 581.286132812 169.395507812 542.391601562 106.172851562 482.849609375 61.1025390625 c 0
 423.392578125 16.0966796875 350.44140625 -6 264.922851562 -6 c 0
 179.405273438 -6 116.655273438 16.0966796875 77.978515625 61.1025390625 c 0
 39.248046875 106.172851562 29.5458984375 169.395507812 47.990234375 249.290039062 c 2
 149.916992188 690.780273438 l 1
 253.797851562 690.780273438 l 1
 153.228515625 255.169921875 l 2
 129.856445312 153.93359375 159.637695312 87.099609375 286.416015625 87.099609375 c 0
EndSplineSet
EndChar

StartChar: V
Encoding: 86 86 57
Width: 606
GlyphClass: 2
Flags: MW
HStem: -0.120117 21G<182.794 267.468 182.794 182.794> 670.78 20G<81.9619 190.864 190.864 190.864 575.425 684.31 684.31 684.31>
LayerCount: 2
Fore
SplineSet
81.9619140625 690.780273438 m 1
 190.864257812 690.780273438 l 1
 259.663085938 149.723632812 l 1
 575.424804688 690.780273438 l 1
 684.309570312 690.780273438 l 1
 267.467773438 -0.1201171875 l 1
 182.793945312 -0.1201171875 l 1
 81.9619140625 690.780273438 l 1
EndSplineSet
EndChar

StartChar: W
Encoding: 87 87 58
Width: 911
GlyphClass: 2
Flags: MW
HStem: -0.120117 21G<123.557 224.822 123.557 123.557 529.22 630.515 529.22 529.22> 670.78 20G<82.8027 186.348 186.348 186.348 474.991 597.016 597.016 597.016 884.67 986.277 986.277 986.277>
LayerCount: 2
Fore
SplineSet
529.219726562 -0.1201171875 m 1
 502.94921875 545.336914062 l 1
 224.822265625 -0.1201171875 l 1
 123.556640625 -0.1201171875 l 1
 82.802734375 690.780273438 l 1
 186.34765625 690.780273438 l 1
 213.940429688 160.657226562 l 1
 474.991210938 690.780273438 l 1
 597.015625 690.780273438 l 1
 619.888671875 160.741210938 l 1
 884.669921875 690.780273438 l 1
 986.27734375 690.780273438 l 1
 630.514648438 -0.1201171875 l 1
 529.219726562 -0.1201171875 l 1
EndSplineSet
EndChar

StartChar: X
Encoding: 88 88 59
Width: 648
GlyphClass: 2
Flags: MW
HStem: -0.120117 21G<-81.4463 -81.4463 -81.4463 39.7578 446.796 446.796 446.796 570.849> 670.78 20G<98.6543 222.747 222.747 222.747 585.685 706.867 706.867 706.867>
LayerCount: 2
Fore
SplineSet
-81.4462890625 -0.1201171875 m 1
 265.602539062 359.053710938 l 1
 98.654296875 690.780273438 l 1
 222.747070312 690.780273438 l 1
 347.3203125 440.180664062 l 1
 585.684570312 690.780273438 l 1
 706.8671875 690.780273438 l 1
 389.372070312 361.982421875 l 1
 570.848632812 -0.1201171875 l 1
 446.795898438 -0.1201171875 l 1
 305.740234375 280.861328125 l 1
 39.7578125 -0.1201171875 l 1
 -81.4462890625 -0.1201171875 l 1
EndSplineSet
EndChar

StartChar: Y
Encoding: 89 89 60
Width: 582
GlyphClass: 2
Flags: MW
HStem: -0.120117 21G<159.95 262.851 159.95 159.95> 670.78 20G<79.8105 196.908 196.908 196.908 544.884 661.988 661.988 661.988>
VStem: 243.437 102.9
LayerCount: 2
Fore
SplineSet
544.883789062 690.780273438 m 1
 661.98828125 690.780273438 l 1
 326.98828125 277.692382812 l 1
 262.850585938 -0.1201171875 l 1
 159.950195312 -0.1201171875 l 1
 224.313476562 278.66796875 l 1
 79.810546875 690.780273438 l 1
 196.908203125 690.780273438 l 1
 297.915039062 370.52734375 l 1
 544.883789062 690.780273438 l 1
EndSplineSet
EndChar

StartChar: Z
Encoding: 90 90 61
Width: 573
GlyphClass: 2
Flags: MW
HStem: 0.860352 94.0801<102.895 462.017> 597.68 94.0801<127.604 470.043 105.884 616.623>
LayerCount: 2
Fore
SplineSet
483.737304688 94.9404296875 m 1
 462.016601562 0.8603515625 l 1
 -44.6435546875 0.8603515625 l 1
 -24.0595703125 90.0185546875 l 1
 470.04296875 597.6796875 l 1
 105.883789062 597.6796875 l 1
 127.603515625 691.759765625 l 1
 616.623046875 691.759765625 l 1
 596.041015625 602.606445312 l 1
 102.89453125 94.9404296875 l 1
 483.737304688 94.9404296875 l 1
EndSplineSet
EndChar

StartChar: bracketleft
Encoding: 91 91 62
Width: 329
GlyphClass: 2
Flags: MW
HStem: -82.4404 94.0801<92.1055 181.125> 645.7 94.0801<238.489 349.229 238.489 238.489>
VStem: 73.8965 98.9805 73.8965 209.721
LayerCount: 2
Fore
SplineSet
161.229492188 739.780273438 m 1xd0
 370.950195312 739.780273438 l 1
 349.229492188 645.700195312 l 1xd0
 238.489257812 645.700195312 l 1
 92.10546875 11.6396484375 l 1xe0
 202.845703125 11.6396484375 l 1
 181.125 -82.4404296875 l 1
 -28.595703125 -82.4404296875 l 1
 161.229492188 739.780273438 l 1xd0
EndSplineSet
Substitution2: "'rtla' Right to Left Alternates lookup 0 subtable" bracketright
EndChar

StartChar: backslash
Encoding: 92 92 63
Width: 432
GlyphClass: 2
Flags: MW
HStem: -9.91992 21G<216.699 303.854 216.699 216.699> 672.74 20G<127.685 214.839 214.839 214.839>
LayerCount: 2
Fore
SplineSet
127.684570312 692.740234375 m 1
 214.838867188 692.740234375 l 1
 303.853515625 -9.919921875 l 1
 216.69921875 -9.919921875 l 1
 127.684570312 692.740234375 l 1
EndSplineSet
EndChar

StartChar: bracketright
Encoding: 93 93 64
Width: 329
GlyphClass: 2
Flags: MW
HStem: -82.4404 94.0801<-26.4746 83.2852 -26.4746 161.524 -48.1953 83.2852> 645.7 94.0801<141.63 229.669 119.909 351.35>
VStem: 54.2969 209.72 164.057 99.96
LayerCount: 2
Fore
SplineSet
229.668945312 645.700195312 m 1xd0
 119.909179688 645.700195312 l 1
 141.629882812 739.780273438 l 1
 351.349609375 739.780273438 l 1
 161.524414062 -82.4404296875 l 1
 -48.1953125 -82.4404296875 l 1
 -26.474609375 11.6396484375 l 1xe0
 83.28515625 11.6396484375 l 1
 229.668945312 645.700195312 l 1xd0
EndSplineSet
Substitution2: "'rtla' Right to Left Alternates lookup 0 subtable" bracketleft
EndChar

StartChar: asciicircum
Encoding: 94 94 65
Width: 512
GlyphClass: 2
Flags: MW
HStem: 672.74 20G<295.873 377.266 377.266 377.266>
LayerCount: 2
Fore
SplineSet
295.873046875 692.740234375 m 1
 377.265625 692.740234375 l 1
 452.547851562 275.259765625 l 1
 365.084960938 275.259765625 l 1
 311.098632812 584.423828125 l 1
 115.302734375 275.259765625 l 1
 27.826171875 275.259765625 l 1
 295.873046875 692.740234375 l 1
EndSplineSet
EndChar

StartChar: underscore
Encoding: 95 95 66
Width: 539
GlyphClass: 2
Flags: MW
HStem: -106.94 72.5205<-88.0684 436.148 -104.812 452.892>
LayerCount: 2
Fore
SplineSet
-88.068359375 -34.419921875 m 1
 452.891601562 -34.419921875 l 1
 436.1484375 -106.940429688 l 1
 -104.811523438 -106.940429688 l 1
 -88.068359375 -34.419921875 l 1
EndSplineSet
EndChar

StartChar: grave
Encoding: 96 96 67
Width: 502
GlyphClass: 2
Flags: MW
HStem: 565.34 140.141<291.134 297.217 165.831 390.769 291.134 291.134>
VStem: 86.417 257.292
LayerCount: 2
Fore
SplineSet
165.831054688 705.48046875 m 1
 297.216796875 705.48046875 l 1
 390.768554688 565.33984375 l 1
 291.133789062 565.33984375 l 1
 165.831054688 705.48046875 l 1
EndSplineSet
EndChar

StartChar: a
Encoding: 97 97 68
Width: 551
GlyphClass: 2
Flags: MW
HStem: -6 82.3203<141.307 186.854> 228.221 77.4189<178.324 379.5 231.029 361.625> 438.92 84.2803<272.568 337.015>
VStem: 44.4961 97.0195 61.1572 96.04 392.396 98.001
LayerCount: 2
Fore
SplineSet
285.3203125 438.919921875 m 0xf4
 252.427734375 438.919921875 173.8984375 433.841796875 157.762695312 363.950195312 c 2
 155.38671875 353.66015625 l 1
 59.3466796875 353.66015625 l 1
 61.72265625 363.950195312 l 2xec
 73.037109375 412.958984375 100.883789062 452.512695312 144.544921875 481.010742188 c 0
 188.078125 509.42578125 241.337890625 523.200195312 303.797851562 523.200195312 c 0
 374.732421875 523.200195312 426.54296875 507.489257812 458.079101562 474.948242188 c 0
 489.719726562 442.298828125 498.11328125 394.92578125 484.174804688 334.549804688 c 2
 406.91015625 -0.1201171875 l 1
 310.870117188 -0.1201171875 l 1
 321.391601562 45.4560546875 l 1
 276.956054688 10.859375 220.504882812 -6 153.202148438 -6 c 0
 91.470703125 -6 46.4384765625 7.0498046875 19.212890625 34.3583984375 c 0
 -8.10546875 61.759765625 -15.4951171875 101.651367188 -3.80859375 152.26953125 c 0
 9.916015625 211.717773438 58.8447265625 305.639648438 231.029296875 305.639648438 c 2
 379.5 305.639648438 l 1
 385.721679688 332.58984375 l 2
 397.984375 385.706054688 388.709960938 438.919921875 285.3203125 438.919921875 c 0xf4
188.8671875 76.3203125 m 0
 286.532226562 76.3203125 335.890625 116.75 354.272460938 196.37109375 c 2
 361.625 228.220703125 l 1
 226.875 228.220703125 l 2
 129.7734375 228.220703125 102.578125 192.845703125 93.4375 153.25 c 0xf4
 84.2353515625 113.393554688 93.7470703125 76.3203125 188.8671875 76.3203125 c 0
EndSplineSet
EndChar

StartChar: b
Encoding: 98 98 69
Width: 582
GlyphClass: 2
Flags: MW
HStem: -8.94043 88.1992<219.375 265.379> -0.120117 21G<-14.4893 82.5303 -14.4893 -14.4893> 436.958 89.1816<315.074 382.983> 670.78 20G<145.018 243.018 243.018 243.018>
VStem: 68.9971 98 437.475 98.002
LayerCount: 2
Fore
SplineSet
190.404296875 462.88671875 m 1x7c
 217.611328125 487.380859375 273.731445312 526.139648438 356.416992188 526.139648438 c 0
 421.408203125 526.139648438 469.583984375 505.178710938 499.591796875 463.072265625 c 0
 529.702148438 420.823242188 535.418945312 361.250976562 517.942382812 285.549804688 c 2
 505.724609375 232.629882812 l 2
 488.099609375 156.290039062 454.814453125 96.390625 405.1796875 54.1279296875 c 0
 355.729492188 12.021484375 297.875 -8.9404296875 232.883789062 -8.9404296875 c 0xbc
 178.237304688 -8.9404296875 124.915039062 5.2978515625 94.310546875 50.90625 c 1
 82.5302734375 -0.1201171875 l 1
 -14.4892578125 -0.1201171875 l 1
 145.017578125 690.780273438 l 1
 243.017578125 690.780273438 l 1
 190.404296875 462.88671875 l 1x7c
241.486328125 79.2587890625 m 0
 303.540039062 79.2587890625 378.998046875 108.208984375 408.626953125 236.547851562 c 2
 419.034179688 281.627929688 l 2
 431.720703125 336.577148438 443.861328125 436.958007812 322.10546875 436.958007812 c 0
 278.563476562 436.958007812 242.329101562 423.721679688 212.086914062 397.657226562 c 0
 181.747070312 371.508789062 161.140625 336.142578125 150.591796875 290.448242188 c 2
 135.432617188 224.788085938 l 2
 125.044921875 179.79296875 129.524414062 144.770507812 148.118164062 118.594726562 c 0
 166.638671875 92.521484375 197.262695312 79.2587890625 241.486328125 79.2587890625 c 0
EndSplineSet
EndChar

StartChar: c
Encoding: 99 99 70
Width: 555
GlyphClass: 2
Flags: MW
HStem: -8.94043 88.2002<189.492 240> 436.96 89.1797<292.361 362.373>
VStem: 54.2979 97.999 412.977 96.04
LayerCount: 2
Fore
SplineSet
123.223632812 235.5703125 m 2
 94.4560546875 110.965820312 152.196289062 79.259765625 226.787109375 79.259765625 c 0
 266.87109375 79.259765625 298.78515625 88.5 323.236328125 105.923828125 c 0
 347.693359375 123.3515625 363.479492188 147.10546875 370.78125 178.73046875 c 2
 373.3828125 190 l 1
 469.422851562 190 l 1
 466.821289062 178.73046875 l 2
 453.609375 121.50390625 423.678710938 75.2353515625 377.233398438 41.390625 c 0
 330.783203125 7.5419921875 273.576171875 -8.9404296875 206.423828125 -8.9404296875 c 0
 132.556640625 -8.9404296875 78.6376953125 11.6220703125 46.1162109375 53.462890625 c 0
 13.515625 95.40625 6.833984375 155.912109375 24.7724609375 233.610351562 c 2
 36.310546875 283.58984375 l 2
 54.2490234375 361.288085938 88.869140625 421.793945312 140.836914062 463.737304688 c 0
 192.659179688 505.563476562 255.74609375 526.139648438 328.9765625 526.139648438 c 0
 396.1328125 526.139648438 445.876953125 509.65625 477.017578125 475.831054688 c 0
 508.204101562 441.95703125 516.752929688 395.008789062 503.247070312 336.509765625 c 2
 500.418945312 324.259765625 l 1
 404.37890625 324.259765625 l 1
 407.20703125 336.509765625 l 2
 415.595703125 372.845703125 415.377929688 436.959960938 309.368164062 436.959960938 c 0
 234.280273438 436.959960938 162.340820312 405.004882812 133.857421875 281.629882812 c 2
 123.223632812 235.5703125 l 2
EndSplineSet
EndChar

StartChar: d
Encoding: 100 100 71
Width: 582
GlyphClass: 2
Flags: MW
HStem: -8.94043 88.2002<198.471 227.836> -0.120117 21G<339.291 436.311 339.291 339.291> 436.96 89.1797<273.594 322.279 273.594 323.653> 670.78 20G<498.798 595.817 595.817 595.817>
VStem: 54.2979 98 422.777 97.0195
LayerCount: 2
Fore
SplineSet
351.19921875 51.4619140625 m 1x7c
 325.581054688 28.5927734375 271.788085938 -8.9404296875 183.883789062 -8.9404296875 c 0xbc
 118.280273438 -8.9404296875 70.1826171875 11.830078125 41.0517578125 53.6865234375 c 0
 11.8515625 95.642578125 6.7041015625 155.349609375 24.3193359375 231.650390625 c 2
 36.763671875 285.549804688 l 2
 54.234375 361.2265625 87.103515625 420.770507812 136.046875 463.025390625 c 0
 184.828125 505.139648438 241.73046875 526.139648438 305.45703125 526.139648438 c 0
 339.1015625 526.139648438 408.626953125 518.91015625 446.29296875 463.356445312 c 1
 498.797851562 690.780273438 l 1
 595.817382812 690.780273438 l 1
 436.310546875 -0.1201171875 l 1
 339.291015625 -0.1201171875 l 1
 351.19921875 51.4619140625 l 1x7c
301.529296875 436.959960938 m 0
 232.581054688 436.959960938 161.953125 403.322265625 133.631835938 280.650390625 c 2
 123.224609375 235.5703125 l 2
 110.786132812 181.694335938 113.869140625 142.705078125 130.821289062 117.504882812 c 0
 147.856445312 92.1826171875 177.013671875 79.259765625 219.927734375 79.259765625 c 0
 264.177734375 79.259765625 300.534179688 92.3779296875 330.321289062 118.069335938 c 0
 360.23828125 143.872070312 380.661132812 179.072265625 391.215820312 224.790039062 c 2
 406.375 290.450195312 l 2
 417.08203125 336.826171875 412.815429688 372.330078125 394.517578125 398.1171875 c 0
 376.262695312 423.841796875 345.776367188 436.959960938 301.529296875 436.959960938 c 0
EndSplineSet
EndChar

StartChar: e
Encoding: 101 101 72
Width: 559
GlyphClass: 2
Flags: MW
HStem: -8.94043 87.2207<190.926 250.184 190.926 276.147> 230.18 77.4199<121.996 401.511 140.353 401.511 140.353 481.64> 437.94 88.1992<286.431 357.098 286.431 364.771>
VStem: 54.2969 98.0166 411.997 97.0195
LayerCount: 2
Fore
SplineSet
121.99609375 230.1796875 m 1
 96.2099609375 113.293945312 150.392578125 78.2802734375 231.458984375 78.2802734375 c 0
 268.908203125 78.2802734375 298.920898438 87.009765625 322.20703125 103.493164062 c 0
 345.787109375 120.184570312 360.385742188 140.663085938 366.880859375 166.081054688 c 2
 369.235351562 176.280273438 l 1
 466.254882812 176.280273438 l 1
 464.55859375 168.9296875 l 2
 441.388671875 68.5732421875 342.930664062 -8.9404296875 209.36328125 -8.9404296875 c 0
 134.830078125 -8.9404296875 80.3369140625 11.958984375 47.322265625 54.443359375 c 0
 14.20703125 97.0546875 7.515625 158.869140625 25.90234375 238.509765625 c 2
 35.1787109375 278.690429688 l 2
 53.2548828125 356.98828125 87.3701171875 418.361328125 138.215820312 461.60546875 c 0
 189.017578125 504.813476562 250.745117188 526.139648438 322.1171875 526.139648438 c 0
 392.078125 526.139648438 443.576171875 506.547851562 475.228515625 466.721679688 c 0
 506.983398438 426.768554688 513.8046875 369.502929688 496.911132812 296.330078125 c 2
 481.639648438 230.1796875 l 1
 121.99609375 230.1796875 l 1
401.850585938 309.0703125 m 2
 409.560546875 342.465820312 427.790039062 437.940429688 301.752929688 437.940429688 c 0
 225.887695312 437.940429688 168.815429688 399.357421875 140.352539062 307.599609375 c 1
 401.510742188 307.599609375 l 1
 401.850585938 309.0703125 l 2
EndSplineSet
EndChar

StartChar: f
Encoding: 102 102 73
Width: 369
GlyphClass: 2
Flags: MW
HStem: -0.120117 21G<34.5107 132.511 34.5107 34.5107> 438.92 77.4199<83.1836 135.871 65.3105 153.744 251.744 359.311> 614.34 76.4404<320.68 417.457 350.327 399.81>
VStem: 117.997 98
LayerCount: 2
Fore
SplineSet
346.400390625 614.33984375 m 2
 294.958984375 614.33984375 269.47265625 593.127929688 258.87109375 547.209960938 c 2
 251.744140625 516.33984375 l 1
 377.18359375 516.33984375 l 1
 359.310546875 438.919921875 l 1
 233.87109375 438.919921875 l 1
 132.510742188 -0.1201171875 l 1
 34.5107421875 -0.1201171875 l 1
 135.87109375 438.919921875 l 1
 65.310546875 438.919921875 l 1
 83.18359375 516.33984375 l 1
 153.744140625 516.33984375 l 1
 160.192382812 544.26953125 l 2
 165.87109375 568.865234375 194.365234375 690.780273438 350.327148438 690.780273438 c 2
 417.45703125 690.780273438 l 1
 399.809570312 614.33984375 l 1
 346.400390625 614.33984375 l 2
EndSplineSet
EndChar

StartChar: g
Encoding: 103 103 74
Width: 582
GlyphClass: 2
Flags: MW
HStem: -156.92 85.2578<131.431 200.901> -21.1006 20G<-19.2842 75.8311 75.8311 75.8311> 14.5791 89.1807<203.464 236.204> 437.94 88.1982<273.286 322.551 273.286 323.877> 496.339 20G<458.523 555.543 555.543 555.543>
VStem: 54.2959 98 422.776 97.0195
LayerCount: 2
Fore
SplineSet
305.456054688 526.138671875 m 0xf6
 339.646484375 526.138671875 409.30078125 518.92578125 446.510742188 464.306640625 c 1
 458.5234375 516.338867188 l 1
 555.54296875 516.338867188 l 1xee
 447.9609375 50.3486328125 l 2
 432.826171875 -15.2080078125 400.469726562 -66.9091796875 350.720703125 -103.16015625 c 0
 301.045898438 -139.356445312 238.362304688 -156.919921875 163.440429688 -156.919921875 c 0
 78.849609375 -156.919921875 -38.8701171875 -134.916015625 -20.4521484375 -9.0771484375 c 2
 -19.2841796875 -1.1005859375 l 1
 75.8310546875 -1.1005859375 l 1
 76.181640625 -29.4658203125 78.7587890625 -71.662109375 184.102539062 -71.662109375 c 0
 288.12890625 -71.662109375 333.092773438 -26.9609375 349.583984375 44.46875 c 2
 356.7578125 75.5439453125 l 1
 336.59375 57.2314453125 283.094726562 14.5791015625 189.313476562 14.5791015625 c 0
 124.37109375 14.5791015625 76.400390625 35.0087890625 46.791015625 76.1572265625 c 0
 17.1025390625 117.418945312 11.3623046875 175.533203125 28.3896484375 249.2890625 c 2
 37.2138671875 287.508789062 l 2
 54.5341796875 362.532226562 87.126953125 421.584960938 135.666992188 463.512695312 c 0
 184.083007812 505.333984375 241.115234375 526.138671875 305.456054688 526.138671875 c 0xf6
224.602539062 103.759765625 m 0
 281.169921875 103.759765625 368.142578125 124.85546875 396.41796875 247.330078125 c 2
 407.051757812 293.389648438 l 2
 417.4453125 338.408203125 413.071289062 373.266601562 394.741210938 399.096679688 c 0
 376.48828125 424.821289062 346.000976562 437.940429688 301.75390625 437.940429688 c 0xf6
 235.823242188 437.940429688 162.766601562 406.85546875 134.083007812 282.610351562 c 2
 127.521484375 254.190429688 l 2
 115.702148438 202.997070312 119.110351562 165.685546875 136.204101562 141.090820312 c 0
 153.3828125 116.375 182.326171875 103.759765625 224.602539062 103.759765625 c 0
EndSplineSet
EndChar

StartChar: h
Encoding: 104 104 75
Width: 574
GlyphClass: 2
Flags: MW
HStem: -0.120117 21G<-14.4893 83.5107 -14.4893 -14.4893 331.451 331.451 331.451 429.451> 433.04 89.1797<315.82 366.004> 670.78 20G<145.018 243.018 243.018 243.018>
VStem: 68.9971 98 414.938 98
LayerCount: 2
Fore
SplineSet
403.51171875 312.009765625 m 2
 414.720703125 360.559570312 417.6640625 433.040039062 314.344726562 433.040039062 c 0
 274.01171875 433.040039062 239.916992188 421.20703125 210.947265625 397.919921875 c 0
 182.068359375 374.70703125 162.705078125 342.909179688 153.083007812 301.23046875 c 2
 83.5107421875 -0.1201171875 l 1
 -14.4892578125 -0.1201171875 l 1
 145.017578125 690.780273438 l 1
 243.017578125 690.780273438 l 1
 190.177734375 461.905273438 l 1
 221.697265625 489.268554688 276.126953125 522.219726562 355.512695312 522.219726562 c 0
 416.359375 522.219726562 460.611328125 504.71484375 486.705078125 469.002929688 c 0
 512.749023438 433.357421875 518.181640625 384.215820312 504.000976562 322.790039062 c 2
 429.451171875 -0.1201171875 l 1
 331.451171875 -0.1201171875 l 1
 403.51171875 312.009765625 l 2
EndSplineSet
EndChar

StartChar: i
Encoding: 105 105 76
Width: 241
GlyphClass: 2
Flags: MW
HStem: -0.120117 21G<-7.62891 90.3711 -7.62891 -7.62891> 496.34 20G<111.604 209.604 209.604 209.604> 584.94 104.859<151.651 225.442 127.442 249.651>
VStem: 75.8574 98
LayerCount: 2
Fore
SplineSet
151.651367188 689.799804688 m 1
 249.651367188 689.799804688 l 1
 225.442382812 584.940429688 l 1
 127.442382812 584.940429688 l 1
 151.651367188 689.799804688 l 1
111.604492188 516.33984375 m 1
 209.604492188 516.33984375 l 1
 90.37109375 -0.1201171875 l 1
 -7.62890625 -0.1201171875 l 1
 111.604492188 516.33984375 l 1
EndSplineSet
EndChar

StartChar: j
Encoding: 106 106 77
Width: 239
GlyphClass: 2
Flags: MW
HStem: -150.06 89.1797<-147.098 -106.436 -167.686 -95.6475> 496.341 20G<110.625 208.625 208.625 208.625> 584.94 105.84<148.938 223.481 124.502 247.917>
VStem: 74.877 98
LayerCount: 2
Fore
SplineSet
148.9375 690.780273438 m 1
 247.916992188 690.780273438 l 1
 223.481445312 584.940429688 l 1
 124.501953125 584.940429688 l 1
 148.9375 690.780273438 l 1
91.087890625 7.2314453125 m 2
 77.544921875 -51.4267578125 37.4716796875 -150.059570312 -106.435546875 -150.059570312 c 2
 -167.685546875 -150.059570312 l 1
 -147.09765625 -60.8798828125 l 1
 -95.6474609375 -60.8798828125 l 2
 -67.7998046875 -60.8798828125 -48.0029296875 -54.732421875 -35.3017578125 -44.4130859375 c 0
 -22.646484375 -34.1318359375 -12.1435546875 -15.427734375 -5.5546875 13.111328125 c 2
 110.625 516.340820312 l 1
 208.625 516.340820312 l 1
 91.087890625 7.2314453125 l 2
EndSplineSet
EndChar

StartChar: k
Encoding: 107 107 78
Width: 560
GlyphClass: 2
Flags: MW
HStem: -0.120117 21G<-14.4893 83.5107 -14.4893 -14.4893 354.579 471.6 354.579 354.579> 496.34 20G<442.218 567.961 567.961 567.961> 670.78 20G<145.018 243.018 243.018 243.018>
VStem: 68.9971 98
LayerCount: 2
Fore
SplineSet
354.579101562 -0.1201171875 m 1
 237.470703125 248.686523438 l 1
 118.668945312 152.16796875 l 1
 83.5107421875 -0.1201171875 l 1
 -14.4892578125 -0.1201171875 l 1
 145.017578125 690.780273438 l 1
 243.017578125 690.780273438 l 1
 146.590820312 273.109375 l 1
 442.217773438 516.33984375 l 1
 567.9609375 516.33984375 l 1
 320.454101562 316.086914062 l 1
 471.599609375 -0.1201171875 l 1
 354.579101562 -0.1201171875 l 1
EndSplineSet
EndChar

StartChar: l
Encoding: 108 108 79
Width: 308
GlyphClass: 2
Flags: MW
HStem: -0.120117 89.1797<89.73 228.56 178.09 207.971> 670.78 20G<145.018 243.018 243.018 243.018>
VStem: 68.9971 98
LayerCount: 2
Fore
SplineSet
146.720703125 -0.1201171875 m 2
 32.7392578125 -0.1201171875 -1.4326171875 56.435546875 22.0498046875 158.150390625 c 2
 145.017578125 690.780273438 l 1
 243.017578125 690.780273438 l 1
 121.180664062 163.049804688 l 2
 114.5859375 134.484375 116.303710938 115.723632812 123.930664062 105.456054688 c 0
 131.47265625 95.30078125 148.84375 89.0595703125 178.08984375 89.0595703125 c 2
 228.559570312 89.0595703125 l 1
 207.970703125 -0.1201171875 l 1
 146.720703125 -0.1201171875 l 2
EndSplineSet
EndChar

StartChar: m
Encoding: 109 109 80
Width: 909
GlyphClass: 2
Flags: MW
HStem: -0.120117 21G<-14.4893 83.5107 -14.4893 -14.4893 324.592 324.592 324.592 423.571 663.671 663.671 663.671 761.671> 433.04 89.1797<313.603 360.484 646.82 699.064>
VStem: 68.9971 98 408.078 98.9795 747.157 98
LayerCount: 2
Fore
SplineSet
396.87890625 312.990234375 m 2
 409.014648438 365.555664062 406.624023438 433.040039062 314.344726562 433.040039062 c 0
 274.01171875 433.040039062 239.916992188 421.20703125 210.947265625 397.919921875 c 0
 182.068359375 374.70703125 162.705078125 342.909179688 153.083007812 301.23046875 c 2
 83.5107421875 -0.1201171875 l 1
 -14.4892578125 -0.1201171875 l 1
 104.744140625 516.33984375 l 1
 201.763671875 516.33984375 l 1
 189.190429688 461.877929688 l 1
 217.252929688 486.176757812 272.674804688 522.219726562 354.53125 522.219726562 c 0
 391.533203125 522.219726562 461.69140625 512.954101562 492.583984375 447.028320312 c 1
 547.443359375 498.67578125 608.849609375 522.219726562 684.791015625 522.219726562 c 0
 746.889648438 522.219726562 791.98046875 504.928710938 818.508789062 469.544921875 c 0
 845.004882812 434.204101562 850.55078125 384.862304688 836.220703125 322.790039062 c 2
 761.670898438 -0.1201171875 l 1
 663.670898438 -0.1201171875 l 1
 735.731445312 312.009765625 l 2
 747.110351562 361.296875 749.60546875 433.040039062 648.5234375 433.040039062 c 0
 597.579101562 433.040039062 519.404296875 414.98046875 495.1796875 310.049804688 c 2
 423.571289062 -0.1201171875 l 1
 324.591796875 -0.1201171875 l 1
 396.87890625 312.990234375 l 2
EndSplineSet
EndChar

StartChar: n
Encoding: 110 110 81
Width: 574
GlyphClass: 2
Flags: MW
HStem: -0.120117 21G<-14.4893 83.5107 -14.4893 -14.4893 331.451 331.451 331.451 429.451> 433.04 89.1797<314.827 366.004>
VStem: 68.9971 98 414.938 98
LayerCount: 2
Fore
SplineSet
403.51171875 312.009765625 m 2
 414.720703125 360.559570312 417.6640625 433.040039062 314.344726562 433.040039062 c 0
 274.01171875 433.040039062 239.916992188 421.20703125 210.947265625 397.919921875 c 0
 182.068359375 374.70703125 162.705078125 342.909179688 153.083007812 301.23046875 c 2
 83.5107421875 -0.1201171875 l 1
 -14.4892578125 -0.1201171875 l 1
 104.744140625 516.33984375 l 1
 201.764648438 516.33984375 l 1
 189.19140625 461.877929688 l 1
 219.06640625 487.74609375 274.141601562 522.219726562 355.512695312 522.219726562 c 0
 416.359375 522.219726562 460.611328125 504.71484375 486.705078125 469.002929688 c 0
 512.749023438 433.357421875 518.181640625 384.215820312 504.000976562 322.790039062 c 2
 429.451171875 -0.1201171875 l 1
 331.451171875 -0.1201171875 l 1
 403.51171875 312.009765625 l 2
EndSplineSet
EndChar

StartChar: o
Encoding: 111 111 82
Width: 574
GlyphClass: 2
Flags: MW
HStem: -8.94043 88.1992<189.072 242.721> 436.959 89.1797<293.341 345.376>
VStem: 54.2969 98 429.637 98
LayerCount: 2
Fore
SplineSet
24.7705078125 233.609375 m 2
 36.3095703125 283.588867188 l 2
 54.25 361.298828125 89.0478515625 421.818359375 141.3515625 463.7578125 c 0
 193.48828125 505.5625 256.724609375 526.138671875 329.95703125 526.138671875 c 0
 402.565429688 526.138671875 455.791992188 505.372070312 488.208984375 463.225585938 c 0
 520.702148438 420.977539062 527.44140625 360.653320312 509.649414062 283.58984375 c 2
 498.111328125 233.610351562 l 2
 480.172851562 155.912109375 445.553710938 95.40625 393.5859375 53.462890625 c 0
 341.780273438 11.650390625 279.018554688 -8.9404296875 206.423828125 -8.9404296875 c 0
 133.19140625 -8.9404296875 79.4560546875 11.63671875 46.6220703125 53.44140625 c 0
 13.68359375 95.3798828125 6.830078125 155.899414062 24.7705078125 233.609375 c 2
225.806640625 79.2587890625 m 0
 299.190429688 79.2587890625 371.649414062 110.331054688 400.563476562 235.569335938 c 2
 411.197265625 281.62890625 l 2
 439.805664062 405.545898438 382.364257812 436.958984375 308.387695312 436.958984375 c 0
 234.45703125 436.958984375 162.475585938 405.587890625 133.857421875 281.62890625 c 2
 123.223632812 235.569335938 l 2
 94.328125 110.409179688 152.337890625 79.2587890625 225.806640625 79.2587890625 c 0
EndSplineSet
EndChar

StartChar: p
Encoding: 112 112 83
Width: 582
GlyphClass: 2
Flags: MW
HStem: -158.88 21G<-51.1426 46.8574 -51.1426 -51.1426> -8.94043 88.1992<219.375 265.379> 436.958 88.2021<315.418 383.208> 496.34 20G<104.744 201.764 201.764 201.764>
VStem: 68.9971 98 437.475 98.002
LayerCount: 2
Fore
SplineSet
189.309570312 462.395507812 m 1xdc
 218.704101562 488.419921875 274.64453125 525.16015625 356.19140625 525.16015625 c 0xec
 421.166992188 525.16015625 469.372070312 504.376953125 499.463867188 462.603515625 c 0
 529.669921875 420.671875 535.418945312 361.249023438 517.942382812 285.549804688 c 2
 505.724609375 232.629882812 l 2
 488.099609375 156.290039062 454.814453125 96.390625 405.1796875 54.1279296875 c 0
 355.729492188 12.021484375 297.875 -8.9404296875 232.883789062 -8.9404296875 c 0
 167.96875 -8.9404296875 121.553710938 10.83203125 95.240234375 50.689453125 c 1
 46.857421875 -158.879882812 l 1
 -51.142578125 -158.879882812 l 1
 104.744140625 516.33984375 l 1
 201.763671875 516.33984375 l 1
 189.309570312 462.395507812 l 1xdc
241.486328125 79.2587890625 m 0
 303.540039062 79.2587890625 378.998046875 108.208984375 408.626953125 236.547851562 c 2
 418.80859375 280.6484375 l 2
 431.208007812 334.35546875 444.309570312 436.958007812 322.10546875 436.958007812 c 0
 278.563476562 436.958007812 242.329101562 423.721679688 212.086914062 397.657226562 c 0
 181.747070312 371.508789062 161.140625 336.142578125 150.591796875 290.448242188 c 2
 135.432617188 224.788085938 l 2
 125.044921875 179.79296875 129.524414062 144.770507812 148.118164062 118.594726562 c 0
 166.638671875 92.521484375 197.262695312 79.2587890625 241.486328125 79.2587890625 c 0
EndSplineSet
EndChar

StartChar: q
Encoding: 113 113 84
Width: 582
GlyphClass: 2
Flags: MW
HStem: -158.88 21G<302.638 399.657 302.638 302.638> -8.94043 88.2002<198.469 226.417> 436.96 88.2002<274.04 323.651> 496.34 20G<458.524 555.544 555.544 555.544>
VStem: 54.2959 98 422.777 97.0195
LayerCount: 2
Fore
SplineSet
306.209960938 525.16015625 m 0xec
 342.150390625 525.16015625 409.666992188 517.364257812 446.29296875 463.358398438 c 1
 458.524414062 516.33984375 l 1
 555.543945312 516.33984375 l 1xdc
 399.657226562 -158.879882812 l 1
 302.637695312 -158.879882812 l 1
 351.20703125 51.494140625 l 1
 323.833007812 27.125 268.950195312 -8.9404296875 183.8828125 -8.9404296875 c 0
 118.279296875 -8.9404296875 70.181640625 11.830078125 41.05078125 53.6865234375 c 0
 11.8505859375 95.642578125 6.7021484375 155.349609375 24.3173828125 231.650390625 c 2
 36.76171875 285.549804688 l 2
 54.232421875 361.224609375 87.064453125 420.618164062 135.958007812 462.557617188 c 0
 184.6875 504.356445312 241.869140625 525.16015625 306.209960938 525.16015625 c 0xec
301.52734375 436.959960938 m 0xec
 232.579101562 436.959960938 161.951171875 403.322265625 133.629882812 280.650390625 c 2
 123.22265625 235.5703125 l 2
 110.784179688 181.694335938 113.8671875 142.705078125 130.819335938 117.504882812 c 0
 147.854492188 92.1826171875 177.01171875 79.259765625 219.92578125 79.259765625 c 0
 264.17578125 79.259765625 300.532226562 92.3779296875 330.319335938 118.069335938 c 0
 360.236328125 143.872070312 380.659179688 179.072265625 391.213867188 224.790039062 c 2
 406.373046875 290.450195312 l 2
 417.080078125 336.826171875 412.813476562 372.330078125 394.515625 398.1171875 c 0
 376.26171875 423.841796875 345.774414062 436.959960938 301.52734375 436.959960938 c 0xec
EndSplineSet
EndChar

StartChar: r
Encoding: 114 114 85
Width: 383
GlyphClass: 2
Flags: MW
HStem: -0.120117 21G<-14.4893 83.5107 -14.4893 -14.4893> 434.02 89.1807<314.436 334.123>
VStem: 68.9971 98
LayerCount: 2
Fore
SplineSet
188.899414062 460.62109375 m 1
 219.090820312 488.595703125 273.134765625 523.200195312 355.737304688 523.200195312 c 0
 377.171875 523.200195312 389.120117188 521.358398438 402.342773438 519.19140625 c 1
 380.29296875 423.684570312 l 1
 363.279296875 429.095703125 347.796875 434.01953125 320.44921875 434.01953125 c 0
 278.849609375 434.01953125 243.299804688 421.56640625 212.68359375 396.94140625 c 0
 182.153320312 372.387695312 161.866210938 339.274414062 151.951171875 296.330078125 c 2
 83.5107421875 -0.1201171875 l 1
 -14.4892578125 -0.1201171875 l 1
 104.744140625 516.33984375 l 1
 201.762695312 516.33984375 l 1
 188.899414062 460.62109375 l 1
EndSplineSet
EndChar

StartChar: s
Encoding: 115 115 86
Width: 520
GlyphClass: 2
Flags: MW
HStem: -6 84.2803<179.238 212.806> 440.88 82.3203<268.999 303.018>
VStem: 44.499 94.0801 52.3379 94.0801 386.518 94.0801 394.358 94.0781
LayerCount: 2
Fore
SplineSet
282.833984375 440.879882812 m 0xd8
 223.57421875 440.879882812 161.581054688 427.178710938 149.01953125 372.76953125 c 0xd8
 141.525390625 340.309570312 153.19140625 318.72265625 228.189453125 310.48046875 c 2
 302.284179688 300.690429688 l 2
 400.716796875 288.928710938 462.938476562 251.057617188 441.037109375 156.190429688 c 0
 429.236328125 105.07421875 399.166015625 64.427734375 351.82421875 35.9873046875 c 0
 304.750976562 7.708984375 246.927734375 -6 178.68359375 -6 c 0
 111.067382812 -6 60.6904296875 8.0458984375 28.4267578125 37.1044921875 c 0
 -3.9072265625 66.224609375 -14.3056640625 106.788085938 -2.6748046875 157.169921875 c 2
 -0.298828125 167.459960938 l 1
 93.78125 167.459960938 l 1
 91.6318359375 158.150390625 l 2
 85.9638671875 133.59765625 91.4091796875 114.883789062 108.513671875 100.458984375 c 0
 125.466796875 86.1630859375 156.4140625 78.2802734375 202.0625 78.2802734375 c 0
 246.135742188 78.2802734375 330.950195312 86.8505859375 345.827148438 151.290039062 c 0xe4
 352.197265625 178.880859375 346.09375 206.23046875 258.322265625 215.53515625 c 2
 188.859375 224.350585938 l 2
 97.517578125 235.397460938 31.103515625 269.524414062 53.58203125 366.889648438 c 0
 64.775390625 415.375 93.2783203125 454.333007812 138.114257812 482.119140625 c 0
 182.75 509.782226562 237.137695312 523.200195312 300.859375 523.200195312 c 0
 367.158203125 523.200195312 416.938476562 509.647460938 449.409179688 481.640625 c 0
 481.948242188 453.576171875 492.904296875 414.806640625 481.841796875 366.889648438 c 2
 479.240234375 355.620117188 l 1
 385.16015625 355.620117188 l 1
 387.53515625 365.91015625 l 2
 393.19140625 390.408203125 387.4765625 408.120117188 369.896484375 420.91796875 c 0
 352.060546875 433.899414062 323.202148438 440.879882812 282.833984375 440.879882812 c 0xd8
EndSplineSet
EndChar

StartChar: t
Encoding: 116 116 87
Width: 388
GlyphClass: 2
Flags: MW
HStem: -0.120117 87.2197<153.522 279.066 229.576 258.931> 438.92 77.4199<69.4639 139.791 51.5908 157.664 255.664 371.071>
VStem: 121.917 98
LayerCount: 2
Fore
SplineSet
195.720703125 -0.1201171875 m 2
 111.323242188 -0.1201171875 46.27734375 33.869140625 73.3857421875 151.290039062 c 2
 139.791015625 438.919921875 l 1
 51.5908203125 438.919921875 l 1
 69.4638671875 516.33984375 l 1
 157.6640625 516.33984375 l 1
 182.217773438 622.693359375 l 1
 289.534179688 663.046875 l 1
 255.6640625 516.33984375 l 1
 388.944335938 516.33984375 l 1
 371.071289062 438.919921875 l 1
 237.791015625 438.919921875 l 1
 172.517578125 156.190429688 l 2
 166.401367188 129.697265625 168.5078125 112.413085938 176.49609375 102.725585938 c 0
 184.5390625 92.974609375 201.672851562 87.099609375 229.576171875 87.099609375 c 2
 279.06640625 87.099609375 l 1
 258.930664062 -0.1201171875 l 1
 195.720703125 -0.1201171875 l 2
EndSplineSet
EndChar

StartChar: u
Encoding: 117 117 88
Width: 574
GlyphClass: 2
Flags: MW
HStem: -6.98047 89.1797<191.622 240.47> 496.339 20G<104.744 202.744 202.744 202.744 450.684 548.684 548.684 548.684>
VStem: 68.9971 98 414.937 98
LayerCount: 2
Fore
SplineSet
226.485351562 82.19921875 m 0
 298.068359375 82.19921875 357.072265625 110.86328125 381.111328125 214.989257812 c 2
 450.68359375 516.338867188 l 1
 548.68359375 516.338867188 l 1
 477.075195312 206.168945312 l 2
 461.529296875 138.830078125 430.346679688 85.7998046875 383.0546875 48.490234375 c 0
 335.744140625 11.1669921875 276.0234375 -6.98046875 204.916992188 -6.98046875 c 0
 134.448242188 -6.98046875 83.5849609375 11.1796875 53.84375 48.513671875 c 0
 24.1162109375 85.828125 17.5927734375 138.844726562 33.1357421875 206.168945312 c 2
 104.744140625 516.338867188 l 1
 202.744140625 516.338867188 l 1
 133.171875 214.989257812 l 2
 109.412109375 112.071289062 156.7578125 82.19921875 226.485351562 82.19921875 c 0
EndSplineSet
EndChar

StartChar: v
Encoding: 118 118 89
Width: 516
GlyphClass: 2
Flags: MW
HStem: -0.120117 21G<132.897 224.243 132.897 132.897> 496.34 20G<48.3711 153.44 153.44 153.44 442.156 547.236 547.236 547.236>
LayerCount: 2
Fore
SplineSet
48.37109375 516.33984375 m 1
 153.440429688 516.33984375 l 1
 209.543945312 132.016601562 l 1
 442.15625 516.33984375 l 1
 547.236328125 516.33984375 l 1
 224.243164062 -0.1201171875 l 1
 132.897460938 -0.1201171875 l 1
 48.37109375 516.33984375 l 1
EndSplineSet
EndChar

StartChar: w
Encoding: 119 119 90
Width: 818
GlyphClass: 2
Flags: MW
HStem: -0.120117 21G<107.174 198.971 107.174 107.174 457.07 549.838 457.07 457.07> 496.34 20G<48.874 153.712 153.712 153.712 408.713 486.763 486.763 486.763 742.757 847.613 847.613 847.613>
LayerCount: 2
Fore
SplineSet
48.8740234375 516.33984375 m 1
 153.711914062 516.33984375 l 1
 188.2734375 136.190429688 l 1
 408.712890625 516.33984375 l 1
 486.762695312 516.33984375 l 1
 532.625 136.114257812 l 1
 742.756835938 516.33984375 l 1
 847.61328125 516.33984375 l 1
 549.837890625 -0.1201171875 l 1
 457.0703125 -0.1201171875 l 1
 412.833984375 367.249023438 l 1
 198.970703125 -0.1201171875 l 1
 107.173828125 -0.1201171875 l 1
 48.8740234375 516.33984375 l 1
EndSplineSet
EndChar

StartChar: x
Encoding: 120 120 91
Width: 490
GlyphClass: 2
Flags: MW
HStem: -0.120117 21G<-74.2461 32.9512 -74.2461 -74.2461 299.722 406.926 299.722 299.722> 496.34 20G<53.832 160.979 160.979 160.979 407.172 514.436 514.436 514.436>
LayerCount: 2
Fore
SplineSet
299.721679688 -0.1201171875 m 1
 209.155273438 189.477539062 l 1
 32.951171875 -0.1201171875 l 1
 -74.24609375 -0.1201171875 l 1
 173.223632812 263.99609375 l 1
 53.83203125 516.33984375 l 1
 160.979492188 516.33984375 l 1
 244.171875 341.439453125 l 1
 407.171875 516.33984375 l 1
 514.435546875 516.33984375 l 1
 279.129882812 266.920898438 l 1
 406.92578125 -0.1201171875 l 1
 299.721679688 -0.1201171875 l 1
EndSplineSet
EndChar

StartChar: y
Encoding: 121 121 92
Width: 516
GlyphClass: 2
Flags: MW
HStem: -150.06 90.1592<-18.4912 3.32422 -39.3057 24.1387> 496.34 20G<48.2734 153.38 153.38 153.38 444.105 547.217 547.217 547.217>
LayerCount: 2
Fore
SplineSet
3.32421875 -150.059570312 m 2
 -39.3056640625 -150.059570312 l 1
 -18.4912109375 -59.900390625 l 1
 24.138671875 -59.900390625 l 2
 52.8916015625 -59.900390625 74.5361328125 -55.5810546875 88.7734375 -48.177734375 c 0
 111.146484375 -36.5439453125 122.55859375 -16.9951171875 136.598632812 7.0537109375 c 1
 48.2734375 516.33984375 l 1
 153.379882812 516.33984375 l 1
 213.950195312 134.703125 l 1
 444.10546875 516.33984375 l 1
 547.216796875 516.33984375 l 1
 197.017578125 -45.41015625 l 2
 154.814453125 -113.505859375 97.26171875 -150.059570312 3.32421875 -150.059570312 c 2
EndSplineSet
EndChar

StartChar: z
Encoding: 122 122 93
Width: 502
GlyphClass: 2
Flags: MW
HStem: -0.120117 88.2002<110.159 373.591> 427.16 89.1797<69.4561 492.824 90.0439 351.356>
LayerCount: 2
Fore
SplineSet
69.4560546875 427.16015625 m 1
 90.0439453125 516.33984375 l 1
 492.82421875 516.33984375 l 1
 473.323242188 431.870117188 l 1
 110.159179688 88.080078125 l 1
 393.953125 88.080078125 l 1
 373.590820312 -0.1201171875 l 1
 -29.189453125 -0.1201171875 l 1
 -9.91796875 83.3564453125 l 1
 351.356445312 427.16015625 l 1
 69.4560546875 427.16015625 l 1
EndSplineSet
EndChar

StartChar: braceleft
Encoding: 123 123 94
Width: 382
GlyphClass: 2
Flags: MW
HStem: -82.4404 86.2402<127.478 253.955 197.604 234.045> 286.185 89.8691<36.9102 57.6582> 653.539 86.2402<344.98 347.61 347.61 403.961>
VStem: 140.537 98.9795
LayerCount: 2
Fore
SplineSet
155.154296875 -82.4404296875 m 2
 99.80078125 -82.4404296875 42.9248046875 -61.3056640625 65.7607421875 37.6103515625 c 2
 106.486328125 214.008789062 l 2
 112.922851562 241.889648438 110.883789062 259.825195312 102.959960938 269.43359375 c 0
 90.025390625 285.1171875 55.0625 285.819335938 36.91015625 286.184570312 c 1
 57.658203125 376.053710938 l 1
 75.9794921875 376.41796875 111.266601562 377.12109375 131.442382812 392.8046875 c 0
 143.852539062 402.452148438 154.057617188 420.061523438 160.334960938 447.249023438 c 2
 200.155273438 619.729492188 l 2
 210.236328125 663.3984375 239.321289062 739.779296875 344.98046875 739.779296875 c 2
 423.87109375 739.779296875 l 1
 403.9609375 653.5390625 l 1
 347.610351562 653.5390625 l 2
 319.0390625 653.5390625 304.489257812 642.92578125 297.09765625 610.909179688 c 2
 259.993164062 450.189453125 l 2
 244.041015625 381.092773438 222.249023438 350.078125 181.315429688 330.642578125 c 1
 213.692382812 311.106445312 220.791015625 280.392578125 205.013671875 212.049804688 c 2
 166.776367188 46.4296875 l 2
 159.385742188 14.4150390625 169.03125 3.7998046875 197.604492188 3.7998046875 c 2
 253.955078125 3.7998046875 l 1
 234.044921875 -82.4404296875 l 1
 155.154296875 -82.4404296875 l 2
EndSplineSet
Substitution2: "'rtla' Right to Left Alternates lookup 0 subtable" braceright
EndChar

StartChar: bar
Encoding: 124 124 95
Width: 295
GlyphClass: 2
Flags: MW
VStem: 105.257 95.0605
LayerCount: 2
Fore
SplineSet
192.58984375 739.780273438 m 1
 287.650390625 739.780273438 l 1
 98.0517578125 -81.4599609375 l 1
 2.9912109375 -81.4599609375 l 1
 192.58984375 739.780273438 l 1
EndSplineSet
EndChar

StartChar: braceright
Encoding: 125 125 96
Width: 382
GlyphClass: 2
Flags: MW
HStem: -82.4404 86.2402<-28.2852 28.0654 28.0654 29.7148 -48.1953 28.0654> 286.183 89.875<319.148 339.897> 653.54 86.2402<141.63 178.069 121.72 219.54>
VStem: 151.318 97.999
LayerCount: 2
Fore
SplineSet
174.541015625 37.6103515625 m 2
 163.549804688 -10 133.2734375 -82.4404296875 29.71484375 -82.4404296875 c 2
 -48.1953125 -82.4404296875 l 1
 -28.28515625 3.7998046875 l 1
 28.0654296875 3.7998046875 l 2
 56.6376953125 3.7998046875 71.1865234375 14.4130859375 78.578125 46.4296875 c 2
 116.815429688 212.049804688 l 2
 132.59765625 280.412109375 153.885742188 311.112304688 195.271484375 330.642578125 c 1
 163.31640625 350.076171875 155.838867188 381.084960938 171.79296875 450.190429688 c 2
 208.8984375 610.91015625 l 2
 216.2890625 642.92578125 206.643554688 653.540039062 178.069335938 653.540039062 c 2
 121.719726562 653.540039062 l 1
 141.629882812 739.780273438 l 1
 219.540039062 739.780273438 l 2
 284.219726562 739.780273438 330.1171875 711.481445312 308.934570312 619.73046875 c 2
 269.114257812 447.25 l 2
 262.837890625 420.0625 264.911132812 402.453125 272.8671875 392.805664062 c 0
 285.80078125 377.123046875 321.677734375 376.416015625 339.897460938 376.057617188 c 1
 319.1484375 286.182617188 l 1
 300.762695312 285.823242188 264.559570312 285.116210938 244.384765625 269.434570312 c 0
 232.0234375 259.826171875 221.703125 241.890625 215.266601562 214.009765625 c 2
 174.541015625 37.6103515625 l 2
EndSplineSet
Substitution2: "'rtla' Right to Left Alternates lookup 0 subtable" braceleft
EndChar

StartChar: asciitilde
Encoding: 126 126 97
Width: 512
GlyphClass: 2
Flags: MW
HStem: 202.741 88.2002<313.698 315.525> 262.52 87.2217<163.359 166.055>
LayerCount: 2
Fore
SplineSet
177.512695312 349.741210938 m 0x40
 201.8671875 349.741210938 223.911132812 345.821289062 264.4921875 315.383789062 c 0
 298.866210938 293.288085938 306.658203125 290.94140625 320.73828125 290.94140625 c 0
 354.565429688 290.94140625 375.2265625 313.959960938 404.568359375 351.755859375 c 1
 463.639648438 308.958007812 l 1
 450.79296875 290.319335938 425.967773438 254.30078125 385.1875 228.666015625 c 0
 357.8359375 211.47265625 329.6953125 202.741210938 301.354492188 202.741210938 c 0x80
 274.65234375 202.741210938 253.700195312 208.124023438 214.122070312 237.291015625 c 0
 186.493164062 259.059570312 172.775390625 262.51953125 159.334960938 262.51953125 c 0
 126.176757812 262.51953125 107.020507812 241.7265625 76.8173828125 202.8203125 c 1
 16.3505859375 244.3828125 l 1
 29.3212890625 263.202148438 54.1103515625 299.169921875 94.302734375 324.317382812 c 0
 121.272460938 341.192382812 149.206054688 349.741210938 177.512695312 349.741210938 c 0x40
EndSplineSet
EndChar

StartChar: exclamdown
Encoding: 161 161 99
Width: 245
GlyphClass: 2
Flags: MW
HStem: 397.76 118.58<106.704 193.988 79.3281 221.364>
VStem: 70.957 114.66 88.8799 78.8301
LayerCount: 2
Fore
SplineSet
106.704101562 516.33984375 m 1xc0
 221.364257812 516.33984375 l 1
 193.98828125 397.759765625 l 1
 79.328125 397.759765625 l 1
 106.704101562 516.33984375 l 1xc0
156.849609375 314.459960938 m 1xa0
 66.8115234375 -150.059570312 l 1
 -47.439453125 -150.059570312 l 1
 78.01953125 314.459960938 l 1
 156.849609375 314.459960938 l 1xa0
EndSplineSet
EndChar

StartChar: cent
Encoding: 162 162 100
Width: 555
GlyphClass: 2
Flags: MW
HStem: -7.23438 89.7939<168.108 188.838> 433.662 90.7734<269.896 290.854>
VStem: 54.2969 97.999 253.236 74.4795 412.979 96.0381
LayerCount: 2
Fore
SplineSet
263.2734375 82.3701171875 m 1
 279.291992188 84.9951171875 352.051757812 97.607421875 370.78125 178.731445312 c 2
 373.3828125 190.000976562 l 1
 469.422851562 190.000976562 l 1
 466.821289062 178.731445312 l 2
 454.548828125 125.573242188 427.962890625 81.791015625 387.090820312 48.5849609375 c 0
 347.7890625 16.654296875 299.350585938 -1.802734375 242.565429688 -7.3310546875 c 1
 221.60546875 -98.119140625 l 1
 147.125976562 -98.119140625 l 1
 168.108398438 -7.234375 l 1
 123.72265625 -2.0126953125 -23.525390625 24.416015625 24.771484375 233.611328125 c 2
 36.3095703125 283.590820312 l 2
 52.873046875 355.334960938 83.8720703125 412.494140625 129.916992188 454.053710938 c 0
 174.256835938 494.07421875 228.243164062 517.450195312 290.853515625 524.435546875 c 1
 311.383789062 613.361328125 l 1
 385.86328125 613.361328125 l 1
 365.35546875 524.532226562 l 1
 419.600585938 518.989257812 459.491210938 500.35546875 483.970703125 468.099609375 c 0
 509.42578125 434.556640625 515.665039062 390.297851562 503.247070312 336.509765625 c 2
 500.418945312 324.259765625 l 1
 404.380859375 324.259765625 l 1
 407.208984375 336.509765625 l 2
 415.061523438 370.522460938 414.17578125 421.481445312 344.419921875 433.852539062 c 1
 263.2734375 82.3701171875 l 1
123.22265625 235.5703125 m 2
 102.247070312 144.713867188 124.520507812 95.5888671875 188.837890625 82.5595703125 c 1
 269.896484375 433.662109375 l 1
 199.5390625 420.65234375 154.680664062 371.829101562 133.856445312 281.629882812 c 2
 123.22265625 235.5703125 l 2
EndSplineSet
EndChar

StartChar: sterling
Encoding: 163 163 101
Width: 504
GlyphClass: 2
Flags: MW
HStem: -0.119141 87.502<-7.02832 -7.02832 -7.02832 396.131 -27.2295 -7.02832> -0.119141 95.0596<122.156 396.131> 281.141 93.1006<36.6582 88.6641 15.1641 110.158 36.6582 192.544 214.038 359.145> 521.241 21G<413.596 513.556 413.596 413.596> 607.481 93.0996<330.062 380.503>
VStem: 107.217 103.88 376.717 99.96
LayerCount: 2
Fore
SplineSet
171.389648438 189.510742188 m 2xbe
 161.573242188 146.991210938 145.209960938 118.046875 122.15625 94.9404296875 c 1
 418.077148438 94.9404296875 l 1
 396.130859375 -0.119140625 l 1x7e
 -27.2294921875 -0.119140625 l 1
 -7.0283203125 87.3828125 l 1
 22.15625 99.62109375 50.232421875 114.673828125 65.2470703125 179.7109375 c 2
 88.6640625 281.140625 l 1
 15.1640625 281.140625 l 1
 36.658203125 374.241210938 l 1
 110.158203125 374.241210938 l 1
 139.004882812 499.19140625 l 2
 147.655273438 536.657226562 187.30078125 700.581054688 373.169921875 700.581054688 c 0
 430.551757812 700.581054688 472.397460938 686.033203125 497.271484375 655.94140625 c 0
 522.16796875 625.82421875 527.788085938 582.887695312 515.252929688 528.590820312 c 2
 513.555664062 521.241210938 l 1
 413.595703125 521.241210938 l 1
 415.29296875 528.590820312 l 2
 427.348632812 580.809570312 410.309570312 607.481445312 350.696289062 607.481445312 c 0
 309.426757812 607.481445312 264.140625 591.2578125 245.599609375 510.951171875 c 2
 214.038085938 374.241210938 l 1
 380.638671875 374.241210938 l 1
 359.14453125 281.140625 l 1
 192.543945312 281.140625 l 1
 171.389648438 189.510742188 l 2xbe
EndSplineSet
EndChar

StartChar: currency
Encoding: 164 164 102
Width: 607
GlyphClass: 2
Flags: MW
HStem: 121.401 86.2393<254.687 271.088> 439.901 86.2393<325.075 341.533>
VStem: 104.277 89.1807 419.837 90.1602
LayerCount: 2
Fore
SplineSet
251.21484375 121.401367188 m 0
 211.467773438 121.401367188 177.71484375 131.508789062 150.374023438 151.703125 c 1
 66.107421875 84.0498046875 l 1
 17.0283203125 149.377929688 l 1
 100.318359375 217.044921875 l 1
 88.2529296875 249.526367188 86.6669921875 285.22265625 95.56640625 323.770507812 c 0
 104.858398438 364.017578125 123.173828125 399.823242188 150.479492188 430.704101562 c 1
 98.015625 500.208007812 l 1
 177.057617188 564.42578125 l 1
 230.123046875 496.725585938 l 1
 267.1875 516.31640625 305.493164062 526.140625 344.65625 526.140625 c 0
 384.340820312 526.140625 417.849609375 516.36328125 444.749023438 496.774414062 c 1
 529.962890625 564.388671875 l 1
 579.354492188 500.170898438 l 1
 494.943359375 431.592773438 l 1
 508.21875 399.059570312 510.338867188 362.981445312 501.286132812 323.770507812 c 0
 492.251953125 284.637695312 473.887695312 248.891601562 446.34765625 216.94921875 c 1
 499.073242188 148.396484375 l 1
 419.830078125 83.068359375 l 1
 366.047851562 151.701171875 l 1
 329.383789062 131.5078125 290.961914062 121.401367188 251.21484375 121.401367188 c 0
411.125976562 323.770507812 m 0
 418.895507812 357.422851562 414.62890625 384.783203125 398.548828125 406.887695312 c 0
 382.524414062 428.915039062 358.319335938 439.901367188 324.747070312 439.901367188 c 0
 291.870117188 439.901367188 262.724609375 428.940429688 236.147460938 406.848632812 c 0
 209.543945312 384.737304688 192.509765625 357.39453125 184.747070312 323.770507812 c 0
 176.984375 290.146484375 181.393554688 262.8046875 197.787109375 240.693359375 c 0
 214.1640625 218.6015625 238.248046875 207.640625 271.125 207.640625 c 0
 304.697265625 207.640625 333.975585938 218.626953125 360.170898438 240.654296875 c 0
 386.458007812 262.758789062 403.357421875 290.119140625 411.125976562 323.770507812 c 0
EndSplineSet
EndChar

StartChar: yen
Encoding: 165 165 103
Width: 535
GlyphClass: 2
Flags: MW
HStem: -0.120117 21G<136.431 240.311 136.431 136.431> 140.02 79.3809<27.3701 168.784 9.04395 187.11 290.99 433.384> 265.46 80.3604<56.5566 190.716 56.5566 197.744 38.0039 190.716 345.727 462.344> 670.78 20G<83.1768 198.038 198.038 198.038 496.711 611.567 611.567 611.567>
VStem: 219.917 103.88
LayerCount: 2
Fore
SplineSet
272.6640625 140.01953125 m 1
 240.310546875 -0.1201171875 l 1
 136.430664062 -0.1201171875 l 1
 168.784179688 140.01953125 l 1
 9.0439453125 140.01953125 l 1
 27.3701171875 219.400390625 l 1
 187.110351562 219.400390625 l 1
 197.744140625 265.459960938 l 1
 38.00390625 265.459960938 l 1
 56.556640625 345.8203125 l 1
 190.715820312 345.8203125 l 1
 83.1767578125 690.780273438 l 1
 198.038085938 690.780273438 l 1
 280.029296875 394.9609375 l 1
 496.7109375 690.780273438 l 1
 611.567382812 690.780273438 l 1
 345.7265625 345.8203125 l 1
 480.896484375 345.8203125 l 1
 462.34375 265.459960938 l 1
 301.624023438 265.459960938 l 1
 290.990234375 219.400390625 l 1
 451.709960938 219.400390625 l 1
 433.383789062 140.01953125 l 1
 272.6640625 140.01953125 l 1
EndSplineSet
EndChar

StartChar: brokenbar
Encoding: 166 166 104
Width: 295
GlyphClass: 2
Flags: MW
VStem: 105.257 95.0605
LayerCount: 2
Fore
SplineSet
189.1953125 725.080078125 m 1
 284.255859375 725.080078125 l 1
 201.22265625 365.419921875 l 1
 106.162109375 365.419921875 l 1
 189.1953125 725.080078125 l 1
89.6455078125 293.879882812 m 1
 184.706054688 293.879882812 l 1
 101.4453125 -66.759765625 l 1
 6.384765625 -66.759765625 l 1
 89.6455078125 293.879882812 l 1
EndSplineSet
EndChar

StartChar: section
Encoding: 167 167 105
Width: 561
GlyphClass: 2
Flags: MW
HStem: -164.76 88.1982<139.597 189.954> 626.101 88.2002<340.805 387.448>
VStem: 73.8965 98.9795 88.5957 95.0605 98.3975 98.9795 377.697 98.9795 396.316 98.9805
LayerCount: 2
Fore
SplineSet
345.868164062 123.1171875 m 1xca
 394.524414062 94.0888671875 404.74609375 49.9365234375 391.9453125 -5.509765625 c 0
 380.514648438 -55.0234375 353.588867188 -94.73046875 311.578125 -122.983398438 c 0
 269.776367188 -151.094726562 219.258789062 -164.759765625 160.649414062 -164.759765625 c 0
 99.439453125 -164.759765625 54.744140625 -150.29296875 27.86328125 -120.27734375 c 0
 0.9541015625 -90.23046875 -5.8369140625 -47.5341796875 6.5791015625 6.248046875 c 2
 8.2763671875 13.59765625 l 1
 103.336914062 13.59765625 l 1
 101.639648438 6.248046875 l 2xd4
 92.3427734375 -34.0205078125 98.1826171875 -76.5615234375 181.01171875 -76.5615234375 c 0
 268.3125 -76.5615234375 287.09765625 -30.9287109375 293.192382812 -4.53125 c 0
 299.678710938 23.564453125 293.981445312 42.5556640625 276.625976562 54.845703125 c 0
 258.392578125 67.759765625 224.421875 80.154296875 174.973632812 91.205078125 c 0
 73.2177734375 115.901367188 31.3818359375 177.348632812 53.646484375 273.790039062 c 0xe4
 61.4091796875 307.4140625 87.3408203125 392.000976562 187.611328125 432.129882812 c 1
 167.842773438 443.717773438 124.228515625 473.387695312 143.534179688 557.010742188 c 0
 154.520507812 604.59765625 180.756835938 643.40234375 221.728515625 671.938476562 c 0
 262.646484375 700.439453125 312.1328125 714.30078125 369.477539062 714.30078125 c 0
 428.737304688 714.30078125 471.90625 700.15234375 497.629882812 670.75390625 c 0
 523.323242188 641.389648438 529.86328125 600.365234375 518.043945312 549.170898438 c 2
 516.346679688 541.821289062 l 1
 421.287109375 541.821289062 l 1
 422.984375 549.170898438 l 2
 431.45703125 585.870117188 426.760742188 626.100585938 348.134765625 626.100585938 c 0
 304.61328125 626.100585938 255.421875 612.918945312 242.513671875 557.010742188 c 0
 230.15234375 503.467773438 262.90625 484.712890625 357.298828125 463.223632812 c 0
 400.609375 453.364257812 434.126953125 433.5625 458.557617188 406.190429688 c 0
 483.76953125 377.943359375 489.301757812 335.532226562 476.630859375 280.649414062 c 0
 465.543945312 232.626953125 434.240234375 158.026367188 345.868164062 123.1171875 c 1xca
242.776367188 178.23828125 m 0
 275.209960938 178.23828125 355.390625 184.232421875 376.745117188 276.727539062 c 0
 387.861328125 324.876953125 378.576171875 376.197265625 288.478515625 376.197265625 c 0
 241.734375 376.197265625 173.176757812 362.803710938 153.3046875 276.727539062 c 0xe2
 144.553710938 238.82421875 142.622070312 178.23828125 242.776367188 178.23828125 c 0
EndSplineSet
EndChar

StartChar: dieresis
Encoding: 168 168 106
Width: 502
GlyphClass: 2
Flags: MW
HStem: 569.26 107.8<174.189 247.302 149.302 272.189 174.189 360.002 384.89 457.021>
VStem: 101.337 98 312.037 97.0195
LayerCount: 2
Fore
SplineSet
174.189453125 677.059570312 m 1
 272.189453125 677.059570312 l 1
 247.301757812 569.259765625 l 1
 149.301757812 569.259765625 l 1
 174.189453125 677.059570312 l 1
384.889648438 677.059570312 m 1
 481.909179688 677.059570312 l 1
 457.021484375 569.259765625 l 1
 360.001953125 569.259765625 l 1
 384.889648438 677.059570312 l 1
EndSplineSet
EndChar

StartChar: copyright
Encoding: 169 169 107
Width: 801
GlyphClass: 2
Flags: MW
HStem: -8.94043 72.5205<257.792 419.876> 144.921 70.5605<351.113 389.329 351.113 410.085> 469.301 71.54<423.463 447.96> 618.261 73.499<381.786 549.197>
VStem: 63.1172 77.4199 232.658 80.3594 492.358 78.3994 669.738 77.4189
LayerCount: 2
Fore
SplineSet
320.103515625 -8.9404296875 m 0
 117.431640625 -8.9404296875 9.6748046875 130.017578125 58.478515625 341.41015625 c 0
 107.279296875 552.786132812 279.185546875 691.759765625 481.873046875 691.759765625 c 0
 686.331054688 691.759765625 790.708984375 550.143554688 742.518554688 341.41015625 c 0
 693.043945312 127.111328125 519.649414062 -8.9404296875 320.103515625 -8.9404296875 c 0
336.846679688 63.580078125 m 0
 503.006835938 63.580078125 627.267578125 177.5390625 665.100585938 341.411132812 c 0
 702.518554688 503.489257812 633.489257812 618.260742188 464.904296875 618.260742188 c 0
 298.66796875 618.260742188 174.111328125 506.927734375 135.899414062 341.411132812 c 0
 95.775390625 167.6171875 178.737304688 63.580078125 336.846679688 63.580078125 c 0
551.866210938 279.670898438 m 2
 533.352539062 199.478515625 461.602539062 144.920898438 358.567382812 144.920898438 c 0
 305.56640625 144.920898438 265.95703125 159.95703125 241.036132812 190.571289062 c 0
 215.9453125 221.391601562 210.598632812 265.951171875 223.721679688 322.791015625 c 2
 232.998046875 362.970703125 l 2
 245.975585938 419.18359375 271.875 463.555664062 311.212890625 494.671875 c 0
 350.34375 525.625 396.953125 540.840820312 449.97265625 540.840820312 c 0
 499.448242188 540.840820312 536.647460938 529.125976562 560.50390625 504.8671875 c 0
 584.41015625 480.55859375 591.505859375 447.123046875 582.033203125 406.090820312 c 2
 579.430664062 394.821289062 l 1
 500.05078125 394.821289062 l 1
 502.426757812 405.111328125 l 2
 507.291015625 426.178710938 503.705078125 441.297851562 492.143554688 452.219726562 c 0
 480.404296875 463.310546875 461.484375 469.30078125 434.435546875 469.30078125 c 0
 346.466796875 469.30078125 322.139648438 401.012695312 312.904296875 361.010742188 c 2
 304.533203125 324.750976562 l 2
 284.173828125 236.565429688 325.409179688 215.481445312 376.817382812 215.481445312 c 0
 401.83984375 215.481445312 459.90625 220.934570312 473.466796875 279.670898438 c 2
 476.068359375 290.94140625 l 1
 554.467773438 290.94140625 l 1
 551.866210938 279.670898438 l 2
EndSplineSet
EndChar

StartChar: ordfeminine
Encoding: 170 170 108
Width: 387
GlyphClass: 2
Flags: MW
HStem: 417.361 71.54<191.538 197.429> 554.561 62.7207<202.49 313.269 234.379 298.789> 679.02 68.6006<253.966 291.791>
VStem: 45.4766 82.3203 55.2783 79.3799 254.218 84.2793
LayerCount: 2
Fore
SplineSet
284.069335938 747.620117188 m 0xec
 330.5390625 747.620117188 425.677734375 739.122070312 399.698242188 626.58984375 c 2
 352.298828125 421.28125 l 1
 270.958984375 421.28125 l 1
 276.388671875 444.799804688 l 1
 248.014648438 426.4140625 215.455078125 417.361328125 179.403320312 417.361328125 c 0
 141.7578125 417.361328125 113.73828125 425.911132812 96.5400390625 444.098632812 c 0
 79.3486328125 462.279296875 74.611328125 487.6953125 81.7900390625 518.791015625 c 0xf4
 94.3642578125 573.254882812 138.197265625 617.28125 234.37890625 617.28125 c 2
 313.268554688 617.28125 l 1
 316.322265625 630.510742188 l 2
 322.002929688 655.11328125 318.2890625 679.01953125 265.291992188 679.01953125 c 0
 242.639648438 679.01953125 206.930664062 674.548828125 200.610351562 647.169921875 c 2
 198.4609375 637.860351562 l 1
 119.081054688 637.860351562 l 1
 121.23046875 647.169921875 l 2
 133.276367188 699.34765625 180.66796875 747.620117188 284.069335938 747.620117188 c 0xec
211.599609375 488.901367188 m 0
 267.734375 488.901367188 288.879882812 511.638671875 297.318359375 548.19140625 c 2
 298.7890625 554.560546875 l 1
 229.69921875 554.560546875 l 2
 175.280273438 554.560546875 167.689453125 534.294921875 164.7890625 521.731445312 c 0
 159.958984375 500.811523438 171.4765625 488.901367188 211.599609375 488.901367188 c 0
95.1142578125 693.231445312 m 1024
EndSplineSet
EndChar

StartChar: guillemotleft
Encoding: 171 171 109
Width: 554
GlyphClass: 2
Flags: W
LayerCount: 2
Fore
SplineSet
296.991210938 483.104492188 m 1
 271.874023438 374.307617188 l 1
 121.390625 265.950195312 l 1
 221.840820312 157.591796875 l 1
 196.723632812 48.794921875 l 1
 0.0419921875 265.950195312 l 1
 296.991210938 483.104492188 l 1
521.411132812 483.104492188 m 1
 496.293945312 374.307617188 l 1
 345.810546875 265.950195312 l 1
 446.260742188 157.591796875 l 1
 421.143554688 48.794921875 l 1
 224.461914062 265.950195312 l 1
 521.411132812 483.104492188 l 1
EndSplineSet
EndChar

StartChar: logicalnot
Encoding: 172 172 110
Width: 512
GlyphClass: 2
Flags: MW
HStem: 255.66 90.1602<51.6572 341.501 30.8418 461.297>
VStem: 365.937 98.9805
LayerCount: 2
Fore
SplineSet
341.500976562 255.66015625 m 1
 30.841796875 255.66015625 l 1
 51.6572265625 345.8203125 l 1
 461.296875 345.8203125 l 1
 410.616210938 126.299804688 l 1
 311.635742188 126.299804688 l 1
 341.500976562 255.66015625 l 1
EndSplineSet
EndChar

StartChar: uni00AD
Encoding: 173 173 111
Width: 426
GlyphClass: 2
Flags: MW
HStem: 299.76 94.0801<61.7627 366.383 40.043 388.103>
VStem: 54.2969 326.34
LayerCount: 2
Fore
SplineSet
61.7626953125 393.83984375 m 1
 388.102539062 393.83984375 l 1
 366.3828125 299.759765625 l 1
 40.04296875 299.759765625 l 1
 61.7626953125 393.83984375 l 1
EndSplineSet
EndChar

StartChar: registered
Encoding: 174 174 112
Width: 522
GlyphClass: 2
Flags: MW
HStem: 300.74 48.0195<240.516 282.614 240.516 304.903> 469.3 49.001<278.657 288.626 267.345 309.527> 559.461 49.9785<288.16 319.03 288.16 288.16> 642.76 48.0205<308.391 350.146>
VStem: 73.8965 50.96 187.577 54.8799 298.317 53.8994 406.117 49.9795
LayerCount: 2
Fore
SplineSet
250.479492188 300.740234375 m 0
 140.328125 300.740234375 78.81640625 382.810546875 105.005859375 496.25 c 0
 131.34765625 610.34765625 233.001953125 690.780273438 340.52734375 690.780273438 c 0
 453.19140625 690.780273438 512.287109375 604.88671875 487.206054688 496.25 c 0
 460.522460938 380.669921875 359.327148438 300.740234375 250.479492188 300.740234375 c 0
437.2265625 496.25 m 0
 447.26953125 539.752929688 441.91796875 574.58203125 421.561523438 601.854492188 c 0
 401.18359375 629.154296875 370.850585938 642.759765625 329.440429688 642.759765625 c 0
 287.341796875 642.759765625 250.958007812 629.139648438 219.03515625 601.94921875 c 0
 187.036132812 574.694335938 166.024414062 539.817382812 155.965820312 496.25 c 0
 145.75 452.001953125 150.604492188 416.803710938 170.00390625 389.571289062 c 0
 189.372070312 362.379882812 219.466796875 348.759765625 261.565429688 348.759765625 c 0
 303.662109375 348.759765625 340.415039062 362.385742188 373.025390625 389.634765625 c 0
 405.631835938 416.87890625 427.020507812 452.043945312 437.2265625 496.25 c 0
332.528320312 609.439453125 m 2
 355.62890625 609.439453125 407.890625 602.650390625 393.28125 539.37109375 c 0
 386.861328125 511.561523438 370.421875 490.409179688 345.211914062 478.109375 c 1
 366.684570312 385.01953125 l 1
 355.196289062 385.01953125 l 1
 313.056640625 385.01953125 l 1
 308.368164062 385.01953125 l 1
 288.625976562 469.299804688 l 1
 267.344726562 469.299804688 l 1
 247.88671875 385.01953125 l 1
 193.006835938 385.01953125 l 1
 244.818359375 609.439453125 l 1
 332.528320312 609.439453125 l 2
339.381835938 539.37109375 m 0
 341.418945312 548.1953125 341.990234375 559.4609375 319.030273438 559.4609375 c 2
 288.16015625 559.4609375 l 1
 278.657226562 518.30078125 l 1
 309.52734375 518.30078125 l 2
 331.740234375 518.30078125 337.04296875 529.240234375 339.381835938 539.37109375 c 0
EndSplineSet
EndChar

StartChar: macron
Encoding: 175 175 113
Width: 502
GlyphClass: 2
Flags: MW
HStem: 578.08 90.1602<170.193 462.978 149.378 483.793>
VStem: 99.377 313.6
LayerCount: 2
Fore
SplineSet
170.193359375 668.240234375 m 1
 483.79296875 668.240234375 l 1
 462.977539062 578.080078125 l 1
 149.377929688 578.080078125 l 1
 170.193359375 668.240234375 l 1
EndSplineSet
EndChar

StartChar: degree
Encoding: 176 176 114
Width: 405
GlyphClass: 2
Flags: MW
HStem: 410.5 70.5596<225.343 246.798 225.343 261.667> 631.98 68.5996<266.164 281.641>
VStem: 63.1162 72.5205 280.677 72.5205
LayerCount: 2
Fore
SplineSet
398.108398438 556.030273438 m 0
 379.501953125 475.438476562 303.374023438 410.5 219.959960938 410.5 c 0
 178.405273438 410.5 146.524414062 424.489257812 125.418945312 452.375976562 c 0
 104.349609375 480.216796875 98.58203125 515.118164062 108.02734375 556.030273438 c 0
 117.471679688 596.94140625 139.325195312 631.700195312 173.205078125 659.2265625 c 0
 207.116210938 686.77734375 245.3984375 700.580078125 286.928710938 700.580078125 c 0
 327.221679688 700.580078125 358.590820312 686.73046875 380.063476562 659.258789062 c 0
 401.572265625 631.740234375 407.55859375 596.965820312 398.108398438 556.030273438 c 0
325.587890625 556.030273438 m 0
 330.8046875 578.62890625 328.065429688 596.50390625 317.71875 610.7265625 c 0
 307.364257812 624.959960938 292.190429688 631.98046875 271.091796875 631.98046875 c 0
 249.280273438 631.98046875 230.54296875 624.9140625 213.671875 610.7265625 c 0
 196.758789062 596.50390625 185.764648438 578.62890625 180.547851562 556.030273438 c 0
 175.493164062 534.138671875 178.266601562 516.578125 188.642578125 502.313476562 c 0
 198.962890625 488.125976562 214.4375 481.059570312 236.249023438 481.059570312 c 0
 257.34765625 481.059570312 275.763671875 488.081054688 292.688476562 502.313476562 c 0
 309.65234375 516.578125 320.533203125 534.138671875 325.587890625 556.030273438 c 0
EndSplineSet
EndChar

StartChar: plusminus
Encoding: 177 177 115
Width: 512
GlyphClass: 2
Flags: MW
HStem: -10.9004 94.0801<-8.97852 378.941 -30.6982 400.661> 274.28 94.0801<56.8613 192.92 35.1406 214.641 308.721 444.78 56.8613 287>
VStem: 213.057 94.0801
LayerCount: 2
Fore
SplineSet
287 274.280273438 m 1
 250.57421875 116.5 l 1
 156.494140625 116.5 l 1
 192.919921875 274.280273438 l 1
 35.140625 274.280273438 l 1
 56.861328125 368.360351562 l 1
 214.640625 368.360351562 l 1
 251.06640625 526.139648438 l 1
 345.146484375 526.139648438 l 1
 308.720703125 368.360351562 l 1
 466.500976562 368.360351562 l 1
 444.780273438 274.280273438 l 1
 287 274.280273438 l 1
-8.978515625 83.1796875 m 1
 400.661132812 83.1796875 l 1
 378.94140625 -10.900390625 l 1
 -30.6982421875 -10.900390625 l 1
 -8.978515625 83.1796875 l 1
EndSplineSet
EndChar

StartChar: uni00B2
Encoding: 178 178 116
Width: 380
GlyphClass: 2
Flags: MW
HStem: 421.28 80.3594<215.838 353.277> 774.081 77.4189<271.825 302.585>
VStem: 49.3965 88.2002 246.377 91.1387
LayerCount: 2
Fore
SplineSet
133.901367188 727.530273438 m 2
 151.345703125 803.08984375 215.140625 851.5 308.051757812 851.5 c 0
 351.671875 851.5 384.309570312 840.91015625 404.78125 818.845703125 c 0
 425.256835938 796.77734375 431.016601562 766.498046875 422.47265625 729.490234375 c 2
 420.663085938 721.650390625 l 2
 410.631835938 678.200195312 384.62890625 645.971679688 331.865234375 600.854492188 c 2
 215.837890625 501.639648438 l 1
 371.830078125 501.639648438 l 1
 353.27734375 421.280273438 l 1
 67.1181640625 421.280273438 l 1
 83.0712890625 490.379882812 l 1
 85.60546875 492.512695312 l 1
 85.60546875 492.512695312 278.983398438 655.193359375 279.122070312 655.307617188 c 0
 314.826171875 684.315429688 325.041015625 702.233398438 329.297851562 720.670898438 c 2
 330.655273438 726.55078125 l 2
 339.322265625 764.091796875 316.951171875 774.081054688 288.21875 774.081054688 c 0
 255.431640625 774.081054688 229.866210938 761.163085938 221.6484375 725.5703125 c 2
 218.368164062 711.360351562 l 1
 130.16796875 711.360351562 l 1
 133.901367188 727.530273438 l 2
EndSplineSet
EndChar

StartChar: uni00B3
Encoding: 179 179 117
Width: 378
GlyphClass: 2
Flags: MW
HStem: 415.4 76.4375<192.854 246.002 192.854 249.867> 600.618 78.4004<226.581 239.352 208.481 257.451> 774.078 77.4199<282.668 307.431>
VStem: 48.416 82.3203 249.316 88.2002
LayerCount: 2
Fore
SplineSet
378.806640625 540.348632812 m 2
 361.3359375 464.673828125 296.283203125 415.400390625 203.450195312 415.400390625 c 0
 159.286132812 415.400390625 126.40234375 425.24609375 105.895507812 445.97265625 c 0
 85.298828125 466.788085938 79.5869140625 496.517578125 88.1220703125 533.48828125 c 2
 91.62890625 548.677734375 l 1
 173.94921875 548.677734375 l 1
 170.895507812 535.448242188 l 2
 166.971679688 518.452148438 165.590820312 491.837890625 220.1171875 491.837890625 c 0
 271.88671875 491.837890625 285.4921875 518.1953125 290.606445312 540.34765625 c 2
 292.416992188 548.188476562 l 2
 299.427734375 578.5546875 291.466796875 600.618164062 239.3515625 600.618164062 c 2
 208.481445312 600.618164062 l 1
 226.581054688 679.018554688 l 1
 257.451171875 679.018554688 l 2
 310.21484375 679.018554688 321.810546875 705.220703125 326.055664062 723.608398438 c 2
 327.638671875 730.467773438 l 2
 332.079101562 749.69921875 331.544921875 774.078125 283.317382812 774.078125 c 0
 256.819335938 774.078125 226.153320312 766.305664062 218.33203125 732.427734375 c 2
 215.05078125 718.217773438 l 1
 132.73046875 718.217773438 l 1
 136.01171875 732.427734375 l 2
 144.546875 769.400390625 164.01171875 799.263671875 194.249023438 820.396484375 c 0
 224.348632812 841.432617188 261.206054688 851.498046875 304.130859375 851.498046875 c 0
 347.010742188 851.498046875 379.107421875 841.795898438 399.34375 821.422851562 c 0
 419.595703125 801.030273438 425.615234375 772.810546875 417.650390625 738.30859375 c 2
 415.83984375 730.46875 l 2
 407.12109375 692.701171875 384.3984375 663.904296875 349.2421875 645.6640625 c 1
 380.604492188 627.118164062 391.241210938 594.208984375 380.84375 549.168945312 c 2
 378.806640625 540.348632812 l 2
EndSplineSet
EndChar

StartChar: acute
Encoding: 180 180 118
Width: 502
GlyphClass: 2
Flags: MW
HStem: 565.34 140.141<197.655 474.073>
VStem: 150.596 244.063
LayerCount: 2
Fore
SplineSet
349.34765625 705.48046875 m 1
 474.073242188 705.48046875 l 1
 293.915039062 565.33984375 l 1
 197.655273438 565.33984375 l 1
 349.34765625 705.48046875 l 1
EndSplineSet
EndChar

StartChar: uni00B5
Encoding: 181 181 119
Width: 573
GlyphClass: 2
Flags: MW
HStem: -6 88.1992<203.307 219.494> 496.34 20G<104.744 202.744 202.744 202.744 448.724 547.704 547.704 547.704>
VStem: 68.9971 98 412.977 98.9805
LayerCount: 2
Fore
SplineSet
202.744140625 516.33984375 m 1
 130.231445312 202.249023438 l 2
 121.03125 162.40234375 125.08984375 133.106445312 141.193359375 112.952148438 c 0
 157.388671875 92.6826171875 184.047851562 82.19921875 222.565429688 82.19921875 c 0
 262.888671875 82.19921875 296.053710938 94.1689453125 323.368164062 117.596679688 c 0
 350.681640625 141.022460938 369.782226562 174.404296875 380.056640625 218.91015625 c 2
 448.723632812 516.33984375 l 1
 547.704101562 516.33984375 l 1
 428.470703125 -0.1201171875 l 1
 331.450195312 -0.1201171875 l 1
 343.290039062 51.1640625 l 1
 299.924804688 13.0830078125 248.544921875 -6 190.443359375 -6 c 0
 145.61328125 -6 111.46875 3.654296875 89.0087890625 23.697265625 c 1
 48.89453125 -150.059570312 l 1
 -49.10546875 -150.059570312 l 1
 104.744140625 516.33984375 l 1
 202.744140625 516.33984375 l 1
EndSplineSet
EndChar

StartChar: paragraph
Encoding: 182 182 120
Width: 681
GlyphClass: 2
Flags: MW
HStem: 601.6 89.1807<470.368 470.368 470.368 541.908>
VStem: 73.8965 341.04 321.837 93.0996 486.477 93.1006
LayerCount: 2
Fore
SplineSet
470.368164062 601.599609375 m 1xb0
 296.833984375 -150.059570312 l 1
 203.734375 -150.059570312 l 1
 299.217773438 263.526367188 l 1xb0
 221.866210938 264.328125 165.232421875 282.529296875 130.421875 319.13671875 c 0
 94.763671875 356.633789062 85.01953125 409.678710938 100.48046875 476.650390625 c 0xd0
 116.069335938 544.172851562 149.45703125 597.498046875 200.796875 635.048828125 c 0
 252.001953125 672.5 315.185546875 690.780273438 389.52734375 690.780273438 c 2
 655.59765625 690.780273438 l 1
 461.474609375 -150.059570312 l 1
 368.374023438 -150.059570312 l 1
 541.908203125 601.599609375 l 1
 470.368164062 601.599609375 l 1xb0
EndSplineSet
EndChar

StartChar: periodcentered
Encoding: 183 183 121
Width: 205
GlyphClass: 2
Flags: MW
HStem: 214.5 119.56<44.042 131.1 16.4395 158.702>
VStem: 50.377 114.66
LayerCount: 2
Fore
SplineSet
44.0419921875 334.059570312 m 1
 158.702148438 334.059570312 l 1
 131.099609375 214.5 l 1
 16.439453125 214.5 l 1
 44.0419921875 334.059570312 l 1
EndSplineSet
EndChar

StartChar: cedilla
Encoding: 184 184 122
Width: 502
GlyphClass: 2
Flags: MW
HStem: -149.08 175.42<39.4814 258.164 39.4814 258.164>
VStem: 157.358 178.184
LayerCount: 2
Fore
SplineSet
258.1640625 26.33984375 m 1
 140.651367188 -149.080078125 l 1
 39.4814453125 -149.080078125 l 1
 170.899414062 26.33984375 l 1
 258.1640625 26.33984375 l 1
EndSplineSet
EndChar

StartChar: uni00B9
Encoding: 185 185 123
Width: 271
GlyphClass: 2
Flags: MW
HStem: 693.705 21G<118.252 118.252>
VStem: 124.857 91.1396
LayerCount: 2
Fore
SplineSet
118.251953125 693.705078125 m 1
 140.586914062 790.44921875 l 1
 241.678710938 844.639648438 l 1
 327.538085938 844.639648438 l 1
 229.797851562 421.280273438 l 1
 138.658203125 421.280273438 l 1
 213.543945312 745.645507812 l 1
 118.251953125 693.705078125 l 1
EndSplineSet
EndChar

StartChar: ordmasculine
Encoding: 186 186 124
Width: 387
GlyphClass: 2
Flags: MW
HStem: 417.36 77.4199<202.229 233.951> 670.2 77.4209<264.136 295.205>
VStem: 48.417 84.2803 263.037 85.2598
LayerCount: 2
Fore
SplineSet
95.5908203125 565.831054688 m 2
 103.508789062 600.130859375 l 2
 114.227539062 646.557617188 135.793945312 683.42578125 168.704101562 709.310546875 c 0
 201.477539062 735.087890625 241.26171875 747.62109375 287.009765625 747.62109375 c 0
 332.760742188 747.62109375 366.8984375 735.086914062 388.088867188 709.342773438 c 0
 409.389648438 683.467773438 414.112304688 646.579101562 403.388671875 600.130859375 c 2
 395.470703125 565.831054688 l 2
 384.607421875 518.779296875 362.989257812 481.579101562 330.049804688 455.670898438 c 0
 297.24609375 429.87109375 257.137695312 417.360351562 210.763671875 417.360351562 c 0
 164.392578125 417.360351562 130.198242188 429.868164062 109.629882812 455.704101562 c 0
 88.9970703125 481.62109375 84.732421875 518.799804688 95.5908203125 565.831054688 c 2
228.637695312 494.780273438 m 0
 281.467773438 494.780273438 301.830078125 529.533203125 310.209960938 565.830078125 c 2
 318.12890625 600.129882812 l 2
 326.455078125 636.1953125 321.274414062 670.200195312 269.135742188 670.200195312 c 0
 230.2890625 670.200195312 199.606445312 651.31640625 187.7890625 600.129882812 c 2
 179.870117188 565.830078125 l 2
 171.487304688 529.516601562 175.819335938 494.780273438 228.637695312 494.780273438 c 0
92.1728515625 693.23046875 m 1024
EndSplineSet
EndChar

StartChar: guillemotright
Encoding: 187 187 125
Width: 554
GlyphClass: 2
Flags: W
LayerCount: 2
Fore
SplineSet
71.9541015625 374.307617188 m 1
 97.060546875 483.05859375 l 1
 294.759765625 265.950195312 l 1
 -3.1865234375 48.8408203125 l 1
 21.9208984375 157.591796875 l 1
 172.404296875 265.950195312 l 1
 71.9541015625 374.307617188 l 1
296.374023438 374.307617188 m 1
 321.48046875 483.05859375 l 1
 519.1796875 265.950195312 l 1
 221.233398438 48.8408203125 l 1
 246.340820312 157.591796875 l 1
 396.82421875 265.950195312 l 1
 296.374023438 374.307617188 l 1
EndSplineSet
EndChar

StartChar: onequarter
Encoding: 188 188 126
Width: 804
GlyphClass: 3
Flags: MW
HStem: -0.120117 21G<46.0986 46.0986 46.0986 134.404 557.831 557.831 557.831 648.971> 68.4805 80.3594<499.668 573.668 683.36 704.987 499.668 664.808> 672.74 20G<586.53 675.837 675.837 675.837>
VStem: 115.057 91.1406 641.317 91.1396
LayerCount: 2
Fore
SplineSet
46.0986328125 -0.1201171875 m 1
 586.530273438 692.740234375 l 1
 675.836914062 692.740234375 l 1
 134.404296875 -0.1201171875 l 1
 46.0986328125 -0.1201171875 l 1
71.744140625 538.947265625 m 1
 94.29296875 636.615234375 l 1
 196.377929688 690.780273438 l 1
 282.217773438 690.780273438 l 1
 184.477539062 267.419921875 l 1
 93.3369140625 267.419921875 l 1
 168.014648438 590.88671875 l 1
 71.744140625 538.947265625 l 1
683.360351562 148.83984375 m 1
 723.540039062 148.83984375 l 1
 704.987304688 68.48046875 l 1
 664.807617188 68.48046875 l 1
 648.970703125 -0.1201171875 l 1
 557.831054688 -0.1201171875 l 1
 573.66796875 68.48046875 l 1
 384.52734375 68.48046875 l 1
 401.782226562 143.215820312 l 1
 605.443359375 423.240234375 l 1
 698.258789062 423.240234375 l 1
 499.66796875 148.83984375 l 1
 592.220703125 148.83984375 l 1
 613.71484375 241.940429688 l 1
 704.854492188 241.940429688 l 1
 683.360351562 148.83984375 l 1
EndSplineSet
Ligature2: "'frac' Diagonal Fractions lookup 2 subtable" one slash four
EndChar

StartChar: onehalf
Encoding: 189 189 127
Width: 815
GlyphClass: 3
Flags: MW
HStem: -0.120117 80.3604<551.711 689.15> 352.68 77.4199<607.698 638.457> 672.74 20G<581.63 670.938 670.938 670.938>
VStem: 115.057 91.1406 482.557 88.2002 679.537 91.1387
LayerCount: 2
Fore
SplineSet
670.9375 692.740234375 m 1
 129.504882812 -0.1201171875 l 1
 41.19921875 -0.1201171875 l 1
 581.629882812 692.740234375 l 1
 670.9375 692.740234375 l 1
71.744140625 538.947265625 m 1
 94.29296875 636.615234375 l 1
 196.377929688 690.780273438 l 1
 282.217773438 690.780273438 l 1
 184.477539062 267.419921875 l 1
 93.3369140625 267.419921875 l 1
 168.014648438 590.88671875 l 1
 71.744140625 538.947265625 l 1
469.7734375 306.129882812 m 2
 487.217773438 381.689453125 551.012695312 430.099609375 643.923828125 430.099609375 c 0
 687.54296875 430.099609375 720.181640625 419.509765625 740.653320312 397.446289062 c 0
 761.129882812 375.377929688 766.888671875 345.098632812 758.344726562 308.08984375 c 2
 756.53515625 300.25 l 2
 746.504882812 256.806640625 720.512695312 224.58203125 667.73828125 179.455078125 c 2
 551.7109375 80.240234375 l 1
 707.703125 80.240234375 l 1
 689.150390625 -0.1201171875 l 1
 402.990234375 -0.1201171875 l 1
 418.943359375 68.98046875 l 1
 421.478515625 71.1123046875 l 1
 421.478515625 71.1123046875 614.85546875 233.791992188 614.994140625 233.90625 c 0
 650.698242188 262.9140625 660.913085938 280.83203125 665.169921875 299.26953125 c 2
 666.52734375 305.150390625 l 2
 675.194335938 342.690429688 652.823242188 352.6796875 624.090820312 352.6796875 c 0
 591.3046875 352.6796875 565.73828125 339.76171875 557.521484375 304.169921875 c 2
 554.240234375 289.959960938 l 1
 466.040039062 289.959960938 l 1
 469.7734375 306.129882812 l 2
EndSplineSet
Ligature2: "'frac' Diagonal Fractions lookup 2 subtable" one slash two
EndChar

StartChar: threequarters
Encoding: 190 190 128
Width: 906
GlyphClass: 3
Flags: MW
HStem: -0.120117 21G<147.039 147.039 147.039 235.345 658.771 658.771 658.771 749.91> 68.4805 80.3594<600.607 674.607 784.3 805.928 600.607 765.747> 260.56 77.4209<161.125 210.44 161.125 212.669> 446.76 77.4199<189.855 203.831 171.981 220.726> 620.22 77.4189<246.168 271.579>
VStem: 47.4375 82.3203 249.318 87.2188 742.257 91.1396
LayerCount: 2
Fore
SplineSet
342.080078125 385.508789062 m 2
 324.287109375 308.438476562 257.634765625 260.559570312 167.704101562 260.559570312 c 0
 122.889648438 260.559570312 89.6875 270.565429688 69.2431640625 291.661132812 c 0
 48.7626953125 312.793945312 43.0869140625 342.657226562 51.623046875 379.629882812 c 2
 54.9033203125 393.83984375 l 1
 137.223632812 393.83984375 l 1
 134.169921875 380.610351562 l 2
 128.659179688 356.743164062 138.6328125 337.98046875 183.618164062 337.98046875 c 0
 237.26171875 337.98046875 250.114257812 364.94921875 254.861328125 385.509765625 c 2
 256.897460938 394.330078125 l 2
 262.317382812 417.803710938 261.014648438 446.759765625 203.831054688 446.759765625 c 2
 171.981445312 446.759765625 l 1
 189.85546875 524.1796875 l 1
 220.725585938 524.1796875 l 2
 274.200195312 524.1796875 286.158203125 550.788085938 290.536132812 569.75 c 2
 292.120117188 576.610351562 l 2
 296.444335938 595.340820312 296.33984375 620.219726562 246.818359375 620.219726562 c 0
 196.047851562 620.219726562 185.932617188 592.087890625 182.584960938 577.588867188 c 2
 179.53125 564.359375 l 1
 96.23046875 564.359375 l 1
 99.5107421875 578.569335938 l 2
 108.045898438 615.541015625 127.51171875 645.405273438 157.75 666.538085938 c 0
 187.848632812 687.573242188 224.706054688 697.638671875 267.630859375 697.638671875 c 0
 310.514648438 697.638671875 342.749023438 687.931640625 363.30078125 667.595703125 c 0
 383.920898438 647.189453125 390.015625 618.611328125 381.90234375 583.46875 c 2
 380.319335938 576.609375 l 2
 371.606445312 538.869140625 348.911132812 510.086914062 313.799804688 491.844726562 c 1
 344.638671875 473.596679688 354.721679688 440.264648438 344.116210938 394.329101562 c 2
 342.080078125 385.508789062 l 2
147.0390625 -0.1201171875 m 1
 687.469726562 692.740234375 l 1
 776.77734375 692.740234375 l 1
 235.344726562 -0.1201171875 l 1
 147.0390625 -0.1201171875 l 1
784.299804688 148.83984375 m 1
 824.48046875 148.83984375 l 1
 805.927734375 68.48046875 l 1
 765.747070312 68.48046875 l 1
 749.91015625 -0.1201171875 l 1
 658.770507812 -0.1201171875 l 1
 674.607421875 68.48046875 l 1
 485.467773438 68.48046875 l 1
 502.72265625 143.215820312 l 1
 706.3828125 423.240234375 l 1
 799.198242188 423.240234375 l 1
 600.607421875 148.83984375 l 1
 693.16015625 148.83984375 l 1
 714.654296875 241.940429688 l 1
 805.793945312 241.940429688 l 1
 784.299804688 148.83984375 l 1
EndSplineSet
Ligature2: "'frac' Diagonal Fractions lookup 2 subtable" three slash four
EndChar

StartChar: questiondown
Encoding: 191 191 129
Width: 487
GlyphClass: 2
Flags: MW
HStem: -159.86 93.1006<103.673 164.653> 399.72 116.62<234.104 320.86 207.181 347.784>
VStem: 44.498 102.898 198.357 113.68 360.057 100.125
LayerCount: 2
Fore
SplineSet
234.104492188 516.33984375 m 1
 347.784179688 516.33984375 l 1
 320.860351562 399.719726562 l 1
 207.180664062 399.719726562 l 1
 234.104492188 516.33984375 l 1
155.834960938 -66.759765625 m 0
 239.302734375 -66.759765625 271.309570312 -22.9033203125 283.470703125 29.76953125 c 2
 285.16796875 37.1201171875 l 1
 385.29296875 37.1201171875 l 1
 377.716796875 7.1865234375 360.275390625 -61.732421875 295.15234375 -110.895507812 c 0
 251.478515625 -143.866210938 196.923828125 -159.860351562 132.381835938 -159.860351562 c 0
 68.5478515625 -159.860351562 20.9873046875 -144.891601562 -9.21484375 -114.080078125 c 0
 -39.4873046875 -83.197265625 -48.2587890625 -40.2744140625 -35.9345703125 13.1103515625 c 0
 -20.92578125 78.1171875 13.6025390625 122.56640625 60.9130859375 159.548828125 c 2
 138.637695312 220.306640625 l 2
 170.391601562 245.143554688 182.482421875 263.022460938 191.529296875 302.209960938 c 2
 199.788085938 337.98046875 l 1
 300.728515625 337.98046875 l 1
 291.564453125 298.290039062 l 2
 276.779296875 234.247070312 255.893554688 203.446289062 204.205078125 163.543945312 c 2
 204.205078125 163.543945312 139.904296875 114.375976562 137.622070312 112.630859375 c 0
 92.685546875 77.177734375 75.8935546875 51.7880859375 67.869140625 17.0302734375 c 0
 63.2216796875 -3.099609375 51.5107421875 -66.759765625 155.834960938 -66.759765625 c 0
EndSplineSet
EndChar

StartChar: Agrave
Encoding: 192 192 130
Width: 666
GlyphClass: 2
Flags: MW
HStem: -0.120117 21G<-77.9531 -77.9531 -77.9531 31.1699 474.961 474.961 474.961 585.049> 152.76 90.1602<184.287 433.053 184.287 448.516 127.225 433.053> 670.78 20G<369.93 455.179 455.179 455.179>
LayerCount: 2
Fore
SplineSet
-77.953125 -0.1201171875 m 1
 369.9296875 690.780273438 l 1
 455.178710938 690.780273438 l 1
 585.048828125 -0.1201171875 l 1
 474.9609375 -0.1201171875 l 1
 448.515625 152.759765625 l 1
 127.224609375 152.759765625 l 1
 31.169921875 -0.1201171875 l 1
 -77.953125 -0.1201171875 l 1
184.287109375 242.919921875 m 1
 433.052734375 242.919921875 l 1
 380.459960938 553.875976562 l 1
 184.287109375 242.919921875 l 1
414.8359375 875.01953125 m 1
 504.008789062 734.879882812 l 1
 406.641601562 734.879882812 l 1
 286.8125 875.01953125 l 1
 414.8359375 875.01953125 l 1
EndSplineSet
EndChar

StartChar: Aacute
Encoding: 193 193 131
Width: 666
GlyphClass: 2
Flags: MW
HStem: -0.120117 21G<-77.9531 -77.9531 -77.9531 31.1699 474.961 474.961 474.961 585.049> 152.76 90.1602<184.287 433.053 184.287 448.516 127.225 433.053> 670.78 20G<369.93 455.179 455.179 455.179>
LayerCount: 2
Fore
SplineSet
-77.953125 -0.1201171875 m 1
 369.9296875 690.780273438 l 1
 455.178710938 690.780273438 l 1
 585.048828125 -0.1201171875 l 1
 474.9609375 -0.1201171875 l 1
 448.515625 152.759765625 l 1
 127.224609375 152.759765625 l 1
 31.169921875 -0.1201171875 l 1
 -77.953125 -0.1201171875 l 1
184.287109375 242.919921875 m 1
 433.052734375 242.919921875 l 1
 380.459960938 553.875976562 l 1
 184.287109375 242.919921875 l 1
476.749023438 875.01953125 m 1
 603.772460938 875.01953125 l 1
 419.234375 734.879882812 l 1
 321.772460938 734.879882812 l 1
 476.749023438 875.01953125 l 1
EndSplineSet
EndChar

StartChar: Acircumflex
Encoding: 194 194 132
Width: 666
GlyphClass: 2
Flags: MW
HStem: -0.120117 21G<-77.9531 -77.9531 -77.9531 31.1699 474.961 474.961 474.961 585.049> 152.76 90.1602<184.287 433.053 184.287 448.516 127.225 433.053> 670.78 20G<369.93 455.179 455.179 455.179>
LayerCount: 2
Fore
SplineSet
-77.953125 -0.1201171875 m 1
 369.9296875 690.780273438 l 1
 455.178710938 690.780273438 l 1
 585.048828125 -0.1201171875 l 1
 474.9609375 -0.1201171875 l 1
 448.515625 152.759765625 l 1
 127.224609375 152.759765625 l 1
 31.169921875 -0.1201171875 l 1
 -77.953125 -0.1201171875 l 1
184.287109375 242.919921875 m 1
 433.052734375 242.919921875 l 1
 380.459960938 553.875976562 l 1
 184.287109375 242.919921875 l 1
422.905273438 887.759765625 m 1
 493.161132812 887.759765625 l 1
 598.305664062 729.98046875 l 1
 500.21875 729.98046875 l 1
 441.630859375 814.725585938 l 1
 342.969726562 729.98046875 l 1
 244.909179688 729.98046875 l 1
 422.905273438 887.759765625 l 1
EndSplineSet
EndChar

StartChar: Atilde
Encoding: 195 195 133
Width: 666
GlyphClass: 2
Flags: MW
HStem: -0.120117 21G<-77.9531 -77.9531 -77.9531 31.1699 474.961 474.961 474.961 585.049> 152.76 90.1602<184.287 433.053 184.287 448.516 127.225 433.053> 670.78 20G<369.93 455.179 455.179 455.179> 732.92 83.2998<501.876 510.075> 770.16 83.2998<367.653 370.893>
LayerCount: 2
Fore
SplineSet
-77.953125 -0.1201171875 m 1xe0
 369.9296875 690.780273438 l 1
 455.178710938 690.780273438 l 1
 585.048828125 -0.1201171875 l 1
 474.9609375 -0.1201171875 l 1
 448.515625 152.759765625 l 1
 127.224609375 152.759765625 l 1
 31.169921875 -0.1201171875 l 1
 -77.953125 -0.1201171875 l 1xe0
184.287109375 242.919921875 m 1
 433.052734375 242.919921875 l 1
 380.459960938 553.875976562 l 1
 184.287109375 242.919921875 l 1
386.903320312 853.459960938 m 0xe8
 408.073242188 853.459960938 424.458984375 850.375976562 454.995117188 833.123046875 c 0
 483.2421875 818.107421875 494.127929688 816.219726562 509.624023438 816.219726562 c 0
 543.04296875 816.219726562 561.793945312 830.859375 603.29296875 863.2578125 c 1
 582.35546875 772.568359375 l 1
 569.360351562 761.766601562 534.65625 732.919921875 485.493164062 732.919921875 c 0xf0
 463.217773438 732.919921875 447.01953125 735.9765625 416.475585938 753.224609375 c 0
 386.287109375 768.376953125 379.01171875 770.16015625 362.7734375 770.16015625 c 0
 331.119140625 770.16015625 311.572265625 755.47265625 269.227539062 723.657226562 c 1
 289.854492188 813.002929688 l 1
 320.54296875 836.915039062 348.40234375 853.459960938 386.903320312 853.459960938 c 0xe8
EndSplineSet
EndChar

StartChar: Adieresis
Encoding: 196 196 134
Width: 666
GlyphClass: 2
Flags: MW
HStem: -0.120117 21G<-77.9531 -77.9531 -77.9531 31.1699 474.961 474.961 474.961 585.049> 152.76 90.1602<184.287 433.053 184.287 448.516 127.225 433.053> 670.78 20G<369.93 455.179 455.179 455.179> 743.7 107.8<295.802 368.914 270.914 393.802 295.802 481.614 506.502 578.634>
VStem: 182.677 98 393.377 97.0195
LayerCount: 2
Fore
SplineSet
-77.953125 -0.1201171875 m 1
 369.9296875 690.780273438 l 1
 455.178710938 690.780273438 l 1
 585.048828125 -0.1201171875 l 1
 474.9609375 -0.1201171875 l 1
 448.515625 152.759765625 l 1
 127.224609375 152.759765625 l 1
 31.169921875 -0.1201171875 l 1
 -77.953125 -0.1201171875 l 1
184.287109375 242.919921875 m 1
 433.052734375 242.919921875 l 1
 380.459960938 553.875976562 l 1
 184.287109375 242.919921875 l 1
295.801757812 851.5 m 1
 393.801757812 851.5 l 1
 368.9140625 743.700195312 l 1
 270.9140625 743.700195312 l 1
 295.801757812 851.5 l 1
506.501953125 851.5 m 1
 603.521484375 851.5 l 1
 578.633789062 743.700195312 l 1
 481.614257812 743.700195312 l 1
 506.501953125 851.5 l 1
EndSplineSet
EndChar

StartChar: Aring
Encoding: 197 197 135
Width: 666
GlyphClass: 2
Flags: MW
HStem: -0.120117 21G<-77.9443 31.1699 -77.9443 -77.9443 474.961 585.04 474.961 474.961> 152.76 90.1602<184.287 433.053 184.287 448.516 127.225 433.053> 810.34 56.8398<439.537 453.137>
VStem: 237.557 57.8203 378.677 57.8203
LayerCount: 2
Fore
SplineSet
361.634765625 678.857421875 m 1
 348.19921875 686.921875 318.37890625 711.58203125 331.111328125 766.73046875 c 0
 337.67578125 795.166015625 352.650390625 819.455078125 375.759765625 838.517578125 c 0
 398.91015625 857.612304688 425.30078125 867.1796875 453.772460938 867.1796875 c 0
 481.642578125 867.1796875 503.3984375 857.579101562 518.022460938 838.56640625 c 0
 532.67578125 819.515625 536.625 795.202148438 530.051757812 766.73046875 c 0
 525.237304688 745.877929688 515.65625 727.202148438 501.303710938 711.209960938 c 0
 488.89453125 697.384765625 474.33984375 686.52734375 457.983398438 678.858398438 c 1
 585.040039062 -0.1201171875 l 1
 474.9609375 -0.1201171875 l 1
 448.515625 152.759765625 l 1
 127.224609375 152.759765625 l 1
 31.169921875 -0.1201171875 l 1
 -77.9443359375 -0.1201171875 l 1
 361.634765625 678.857421875 l 1
440.650390625 810.33984375 m 0
 415.676757812 810.33984375 394.986328125 792.956054688 388.931640625 766.73046875 c 0
 383.551757812 743.426757812 394.010742188 723.120117188 420.513671875 723.120117188 c 0
 447.016601562 723.120117188 466.8515625 743.428710938 472.231445312 766.73046875 c 0
 478.286132812 792.955078125 465.623046875 810.33984375 440.650390625 810.33984375 c 0
184.287109375 242.919921875 m 1
 433.052734375 242.919921875 l 1
 380.459960938 553.875976562 l 1
 184.287109375 242.919921875 l 1
EndSplineSet
EndChar

StartChar: AE
Encoding: 198 198 136
Width: 995
GlyphClass: 2
Flags: MW
HStem: -0.120117 94.0801<516.83 872.41> 157.66 90.1602<244.484 427.656 168.657 448.472> 303.68 94.0801<586.968 888.648 565.248 910.368> 596.7 94.0801<632.896 1010.2 632.896 632.896>
VStem: 474.717 103.88
LayerCount: 2
Fore
SplineSet
-80.0791015625 -0.1201171875 m 1
 504.982421875 690.780273438 l 1
 1031.91699219 690.780273438 l 1
 1010.19628906 596.700195312 l 1
 632.896484375 596.700195312 l 1
 586.967773438 397.759765625 l 1
 910.368164062 397.759765625 l 1
 888.6484375 303.6796875 l 1
 565.248046875 303.6796875 l 1
 516.830078125 93.9599609375 l 1
 894.129882812 93.9599609375 l 1
 872.41015625 -0.1201171875 l 1
 391.23046875 -0.1201171875 l 1
 427.65625 157.66015625 l 1
 168.657226562 157.66015625 l 1
 36.19140625 -0.1201171875 l 1
 -80.0791015625 -0.1201171875 l 1
448.471679688 247.8203125 m 1
 525.796875 582.751953125 l 1
 244.484375 247.8203125 l 1
 448.471679688 247.8203125 l 1
EndSplineSet
EndChar

StartChar: Ccedilla
Encoding: 199 199 137
Width: 680
GlyphClass: 2
Flags: MW
HStem: 605.52 95.0605<387.857 438.61>
VStem: 63.1162 103.88 522.736 102.899
LayerCount: 2
Fore
SplineSet
292.0703125 86.1201171875 m 0
 350.680664062 86.1201171875 462.245117188 99.484375 489.137695312 215.969726562 c 2
 491.740234375 227.240234375 l 1
 594.639648438 227.240234375 l 1
 591.811523438 214.990234375 l 2
 577.880859375 154.650390625 547.760742188 104.708007812 501.499023438 66.294921875 c 0
 456.299804688 28.7646484375 400.58203125 5.349609375 335.067382812 -4.34765625 c 1
 237.65625 -149.080078125 l 1
 136.508789062 -149.080078125 l 1
 241.82421875 -8.3505859375 l 1
 161.540039062 -3.1640625 103.350585938 23.693359375 68.5205078125 72.755859375 c 0
 31.974609375 124.234375 25.6376953125 199.161132812 48.0703125 296.330078125 c 2
 70.921875 395.309570312 l 2
 93.9677734375 495.131835938 136.770507812 571.626953125 200.206054688 623.439453125 c 0
 263.494140625 675.130859375 341.786132812 700.580078125 433.928710938 700.580078125 c 0
 516.701171875 700.580078125 578.431640625 681.370117188 618.09765625 642.116210938 c 0
 657.895507812 602.731445312 669.524414062 547.352539062 653.427734375 477.629882812 c 2
 650.599609375 465.379882812 l 1
 546.720703125 465.379882812 l 1
 549.322265625 476.650390625 l 2
 559.018554688 518.646484375 551.919921875 549.760742188 528.568359375 571.775390625 c 0
 505.0859375 593.911132812 466.21875 605.51953125 411.001953125 605.51953125 c 0
 280.482421875 605.51953125 207.1875 535.588867188 173.670898438 390.41015625 c 2
 151.723632812 295.349609375 l 2
 119.53515625 155.923828125 160.841796875 86.1201171875 292.0703125 86.1201171875 c 0
EndSplineSet
EndChar

StartChar: Egrave
Encoding: 200 200 138
Width: 598
GlyphClass: 2
Flags: MW
HStem: -0.120117 94.0801<116.011 477.471> 303.68 94.0801<186.148 492.729 164.429 514.448> 596.7 94.0801<232.077 615.257 232.077 232.077>
VStem: 73.8965 103.881
LayerCount: 2
Fore
SplineSet
116.010742188 93.9599609375 m 1
 499.190429688 93.9599609375 l 1
 477.470703125 -0.1201171875 l 1
 -9.58984375 -0.1201171875 l 1
 149.916992188 690.780273438 l 1
 636.977539062 690.780273438 l 1
 615.256835938 596.700195312 l 1
 232.077148438 596.700195312 l 1
 186.1484375 397.759765625 l 1
 514.448242188 397.759765625 l 1
 492.728515625 303.6796875 l 1
 164.428710938 303.6796875 l 1
 116.010742188 93.9599609375 l 1
264.272460938 875.01953125 m 1
 392.295898438 875.01953125 l 1
 481.46875 734.879882812 l 1
 384.1015625 734.879882812 l 1
 264.272460938 875.01953125 l 1
EndSplineSet
EndChar

StartChar: Eacute
Encoding: 201 201 139
Width: 598
GlyphClass: 2
Flags: MW
HStem: -0.120117 94.0801<116.011 477.471> 303.68 94.0801<186.148 492.729 164.429 514.448> 596.7 94.0801<232.077 615.257 232.077 232.077>
VStem: 73.8965 103.881
LayerCount: 2
Fore
SplineSet
116.010742188 93.9599609375 m 1
 499.190429688 93.9599609375 l 1
 477.470703125 -0.1201171875 l 1
 -9.58984375 -0.1201171875 l 1
 149.916992188 690.780273438 l 1
 636.977539062 690.780273438 l 1
 615.256835938 596.700195312 l 1
 232.077148438 596.700195312 l 1
 186.1484375 397.759765625 l 1
 514.448242188 397.759765625 l 1
 492.728515625 303.6796875 l 1
 164.428710938 303.6796875 l 1
 116.010742188 93.9599609375 l 1
462.048828125 875.01953125 m 1
 589.072265625 875.01953125 l 1
 404.53515625 734.879882812 l 1
 307.072265625 734.879882812 l 1
 462.048828125 875.01953125 l 1
EndSplineSet
EndChar

StartChar: Ecircumflex
Encoding: 202 202 140
Width: 598
GlyphClass: 2
Flags: MW
HStem: -0.120117 94.0801<116.011 477.471> 303.68 94.0801<186.148 492.729 164.429 514.448> 596.7 94.0801<232.077 615.257 232.077 232.077>
VStem: 73.8965 103.881
LayerCount: 2
Fore
SplineSet
116.010742188 93.9599609375 m 1
 499.190429688 93.9599609375 l 1
 477.470703125 -0.1201171875 l 1
 -9.58984375 -0.1201171875 l 1
 149.916992188 690.780273438 l 1
 636.977539062 690.780273438 l 1
 615.256835938 596.700195312 l 1
 232.077148438 596.700195312 l 1
 186.1484375 397.759765625 l 1
 514.448242188 397.759765625 l 1
 492.728515625 303.6796875 l 1
 164.428710938 303.6796875 l 1
 116.010742188 93.9599609375 l 1
470.62109375 887.759765625 m 1
 575.765625 729.98046875 l 1
 477.678710938 729.98046875 l 1
 419.090820312 814.725585938 l 1
 320.4296875 729.98046875 l 1
 222.369140625 729.98046875 l 1
 400.365234375 887.759765625 l 1
 470.62109375 887.759765625 l 1
EndSplineSet
EndChar

StartChar: Edieresis
Encoding: 203 203 141
Width: 598
GlyphClass: 2
Flags: MW
HStem: -0.120117 94.0801<116.011 477.471> 303.68 94.0801<186.148 492.729 164.429 514.448> 596.7 94.0801<232.077 615.257 232.077 232.077> 743.7 107.8<273.262 346.374 248.374 371.262 273.262 459.074 483.962 556.095>
VStem: 73.8965 103.881 160.137 98 370.837 97.0205
LayerCount: 2
Fore
SplineSet
116.010742188 93.9599609375 m 1xfa
 499.190429688 93.9599609375 l 1
 477.470703125 -0.1201171875 l 1
 -9.58984375 -0.1201171875 l 1
 149.916992188 690.780273438 l 1
 636.977539062 690.780273438 l 1
 615.256835938 596.700195312 l 1
 232.077148438 596.700195312 l 1
 186.1484375 397.759765625 l 1
 514.448242188 397.759765625 l 1
 492.728515625 303.6796875 l 1
 164.428710938 303.6796875 l 1
 116.010742188 93.9599609375 l 1xfa
273.26171875 851.5 m 1xf6
 371.26171875 851.5 l 1
 346.374023438 743.700195312 l 1
 248.374023438 743.700195312 l 1
 273.26171875 851.5 l 1xf6
483.961914062 851.5 m 1
 580.982421875 851.5 l 1
 556.094726562 743.700195312 l 1
 459.07421875 743.700195312 l 1
 483.961914062 851.5 l 1
EndSplineSet
EndChar

StartChar: Igrave
Encoding: 204 204 142
Width: 255
GlyphClass: 2
Flags: MW
HStem: -0.120117 21G<-2.72949 101.15 -2.72949 -2.72949> 670.78 20G<156.777 260.657 260.657 260.657>
VStem: 80.7568 103.88
LayerCount: 2
Fore
SplineSet
156.77734375 690.780273438 m 1
 260.657226562 690.780273438 l 1
 101.150390625 -0.1201171875 l 1
 -2.7294921875 -0.1201171875 l 1
 156.77734375 690.780273438 l 1
82.97265625 875.01953125 m 1
 210.99609375 875.01953125 l 1
 300.168945312 734.879882812 l 1
 202.801757812 734.879882812 l 1
 82.97265625 875.01953125 l 1
EndSplineSet
EndChar

StartChar: Iacute
Encoding: 205 205 143
Width: 255
GlyphClass: 2
Flags: MW
HStem: -0.120117 21G<-2.72949 101.15 -2.72949 -2.72949> 670.78 20G<156.777 260.657 260.657 260.657>
VStem: 80.7568 103.88
LayerCount: 2
Fore
SplineSet
156.77734375 690.780273438 m 1
 260.657226562 690.780273438 l 1
 101.150390625 -0.1201171875 l 1
 -2.7294921875 -0.1201171875 l 1
 156.77734375 690.780273438 l 1
280.749023438 875.01953125 m 1
 407.772460938 875.01953125 l 1
 223.234375 734.879882812 l 1
 125.772460938 734.879882812 l 1
 280.749023438 875.01953125 l 1
EndSplineSet
EndChar

StartChar: Icircumflex
Encoding: 206 206 144
Width: 255
GlyphClass: 2
Flags: MW
HStem: -0.120117 21G<-2.72949 101.15 -2.72949 -2.72949> 670.78 20G<156.777 260.657 260.657 260.657>
VStem: 80.7568 103.88
LayerCount: 2
Fore
SplineSet
156.77734375 690.780273438 m 1
 260.657226562 690.780273438 l 1
 101.150390625 -0.1201171875 l 1
 -2.7294921875 -0.1201171875 l 1
 156.77734375 690.780273438 l 1
219.064453125 887.759765625 m 1
 289.321289062 887.759765625 l 1
 394.46484375 729.98046875 l 1
 296.37890625 729.98046875 l 1
 237.790039062 814.725585938 l 1
 139.12890625 729.98046875 l 1
 41.0693359375 729.98046875 l 1
 219.064453125 887.759765625 l 1
EndSplineSet
EndChar

StartChar: Idieresis
Encoding: 207 207 145
Width: 255
GlyphClass: 2
Flags: MW
HStem: -0.120117 21G<-2.72949 101.15 -2.72949 -2.72949> 670.78 20G<156.777 260.657 260.657 260.657> 743.7 107.8<91.9619 165.074 67.0742 189.962 91.9619 277.774 302.662 374.794>
VStem: -21.1631 98 80.7568 103.88 189.537 97.0195
LayerCount: 2
Fore
SplineSet
156.77734375 690.780273438 m 1
 260.657226562 690.780273438 l 1
 101.150390625 -0.1201171875 l 1
 -2.7294921875 -0.1201171875 l 1
 156.77734375 690.780273438 l 1
91.9619140625 851.5 m 1
 189.961914062 851.5 l 1
 165.07421875 743.700195312 l 1
 67.07421875 743.700195312 l 1
 91.9619140625 851.5 l 1
302.662109375 851.5 m 1
 399.681640625 851.5 l 1
 374.793945312 743.700195312 l 1
 277.774414062 743.700195312 l 1
 302.662109375 851.5 l 1
EndSplineSet
EndChar

StartChar: Eth
Encoding: 208 208 146
Width: 725
GlyphClass: 2
Flags: MW
HStem: -0.120117 94.0791<165.99 295.681> 303.679 94.0801<236.128 381.008 214.407 402.729> 596.699 94.0811<282.057 435.427 282.057 282.057>
VStem: 123.877 103.88 566.837 103.88
LayerCount: 2
Fore
SplineSet
677.390625 390.409179688 m 2
 656.801757812 301.229492188 l 2
 634.055664062 202.705078125 591.629882812 127.177734375 528.666015625 76.0234375 c 0
 465.83984375 24.982421875 387.799804688 -0.1201171875 295.680664062 -0.1201171875 c 2
 40.390625 -0.1201171875 l 1
 110.528320312 303.6796875 l 1
 23.30859375 303.6796875 l 1
 45.0283203125 397.759765625 l 1
 132.248046875 397.759765625 l 1
 199.897460938 690.780273438 l 1
 457.147460938 690.780273438 l 2
 548.615234375 690.780273438 614.612304688 665.83984375 653.6171875 615.125976562 c 0
 692.719726562 564.287109375 700.133789062 488.920898438 677.390625 390.409179688 c 2
319.360351562 93.958984375 m 2
 445.18359375 93.958984375 519.841796875 157.942382812 552.469726562 299.26953125 c 2
 572.379882812 385.508789062 l 2
 606.497070312 533.286132812 558.989257812 596.69921875 435.426757812 596.69921875 c 2
 282.056640625 596.69921875 l 1
 236.127929688 397.758789062 l 1
 402.728515625 397.758789062 l 1
 381.0078125 303.678710938 l 1
 214.407226562 303.678710938 l 1
 165.990234375 93.958984375 l 1
 319.360351562 93.958984375 l 2
EndSplineSet
EndChar

StartChar: Ntilde
Encoding: 209 209 147
Width: 721
GlyphClass: 2
Flags: MW
HStem: -0.120117 21G<-9.58984 94.291 -9.58984 -9.58984 470.336 570.57 470.336 470.336> 670.78 20G<149.917 250.156 250.156 250.156 626.197 730.077 730.077 730.077> 732.92 83.2998<526.376 534.575> 770.16 83.2998<392.135 395.393>
VStem: 73.8965 103.881 550.177 103.88
LayerCount: 2
Fore
SplineSet
730.077148438 690.780273438 m 1xcc
 570.5703125 -0.1201171875 l 1
 470.3359375 -0.1201171875 l 1
 211.658203125 508.255859375 l 1
 94.291015625 -0.1201171875 l 1
 -9.58984375 -0.1201171875 l 1
 149.916992188 690.780273438 l 1
 250.15625 690.780273438 l 1
 508.610351562 181.458007812 l 1
 626.197265625 690.780273438 l 1
 730.077148438 690.780273438 l 1xcc
411.401367188 853.459960938 m 0xdc
 432.572265625 853.459960938 448.959960938 850.375976562 479.495117188 833.123046875 c 0
 507.7421875 818.107421875 518.627929688 816.219726562 534.124023438 816.219726562 c 0
 567.54296875 816.219726562 586.293945312 830.859375 627.79296875 863.2578125 c 1
 606.85546875 772.568359375 l 1
 593.860351562 761.766601562 559.15625 732.919921875 509.993164062 732.919921875 c 0xec
 487.717773438 732.919921875 471.51953125 735.9765625 440.975585938 753.224609375 c 0
 410.787109375 768.376953125 403.51171875 770.16015625 387.2734375 770.16015625 c 0
 355.619140625 770.16015625 336.072265625 755.47265625 293.727539062 723.657226562 c 1
 314.354492188 813.002929688 l 1
 345.000976562 836.881835938 372.869140625 853.459960938 411.401367188 853.459960938 c 0xdc
EndSplineSet
EndChar

StartChar: Ograve
Encoding: 210 210 148
Width: 694
GlyphClass: 2
Flags: MW
HStem: -8.94043 95.0605<227.008 310.975> 605.52 95.0605<386.218 476.924>
VStem: 63.1172 103.88 538.417 102.9
LayerCount: 2
Fore
SplineSet
48.0712890625 296.330078125 m 2
 70.9228515625 395.309570312 l 2
 93.966796875 495.123046875 136.595703125 571.606445312 199.696289062 623.421875 c 0
 262.65234375 675.119140625 340.467773438 700.580078125 431.96875 700.580078125 c 0
 522.827148438 700.580078125 588.25390625 675.108398438 626.682617188 623.38671875 c 0
 665.1875 571.563476562 672.162109375 495.104492188 649.123046875 395.309570312 c 2
 626.271484375 296.330078125 l 2
 603.228515625 196.517578125 560.598632812 120.034179688 497.499023438 68.21875 c 0
 434.541015625 16.5205078125 356.725585938 -8.9404296875 265.223632812 -8.9404296875 c 0
 174.365234375 -8.9404296875 108.939453125 16.53125 70.5107421875 68.25390625 c 0
 32.0068359375 120.076171875 25.0322265625 196.536132812 48.0712890625 296.330078125 c 2
289.130859375 86.1201171875 m 0
 421.69140625 86.1201171875 492.020507812 160.537109375 523.145507812 295.350585938 c 2
 545.091796875 390.411132812 l 2
 576.4375 526.186523438 544.8046875 605.51953125 409.04296875 605.51953125 c 0
 280.625 605.51953125 207.393554688 536.477539062 173.671875 390.41015625 c 2
 151.724609375 295.349609375 l 2
 118.088867188 149.65625 164.884765625 86.1201171875 289.130859375 86.1201171875 c 0
302.493164062 875.020507812 m 1
 430.515625 875.020507812 l 1
 519.689453125 734.880859375 l 1
 422.321289062 734.880859375 l 1
 302.493164062 875.020507812 l 1
EndSplineSet
EndChar

StartChar: Oacute
Encoding: 211 211 149
Width: 694
GlyphClass: 2
Flags: MW
HStem: -8.94043 95.0605<227.008 310.975> 605.52 95.0605<386.218 476.924>
VStem: 63.1172 103.88 538.417 102.9
LayerCount: 2
Fore
SplineSet
48.0712890625 296.330078125 m 2
 70.9228515625 395.309570312 l 2
 93.966796875 495.123046875 136.595703125 571.606445312 199.696289062 623.421875 c 0
 262.65234375 675.119140625 340.467773438 700.580078125 431.96875 700.580078125 c 0
 522.827148438 700.580078125 588.25390625 675.108398438 626.682617188 623.38671875 c 0
 665.1875 571.563476562 672.162109375 495.104492188 649.123046875 395.309570312 c 2
 626.271484375 296.330078125 l 2
 603.228515625 196.517578125 560.598632812 120.034179688 497.499023438 68.21875 c 0
 434.541015625 16.5205078125 356.725585938 -8.9404296875 265.223632812 -8.9404296875 c 0
 174.365234375 -8.9404296875 108.939453125 16.53125 70.5107421875 68.25390625 c 0
 32.0068359375 120.076171875 25.0322265625 196.536132812 48.0712890625 296.330078125 c 2
289.130859375 86.1201171875 m 0
 421.69140625 86.1201171875 492.020507812 160.537109375 523.145507812 295.350585938 c 2
 545.091796875 390.411132812 l 2
 576.4375 526.186523438 544.8046875 605.51953125 409.04296875 605.51953125 c 0
 280.625 605.51953125 207.393554688 536.477539062 173.671875 390.41015625 c 2
 151.724609375 295.349609375 l 2
 118.088867188 149.65625 164.884765625 86.1201171875 289.130859375 86.1201171875 c 0
490.46875 875.020507812 m 1
 617.4921875 875.020507812 l 1
 432.955078125 734.880859375 l 1
 335.4921875 734.880859375 l 1
 490.46875 875.020507812 l 1
EndSplineSet
EndChar

StartChar: Ocircumflex
Encoding: 212 212 150
Width: 694
GlyphClass: 2
Flags: MW
HStem: -8.94043 95.0605<227.008 310.975> 605.52 95.0605<386.218 476.924>
VStem: 63.1172 103.88 538.417 102.9
LayerCount: 2
Fore
SplineSet
48.0712890625 296.330078125 m 2
 70.9228515625 395.309570312 l 2
 93.966796875 495.123046875 136.595703125 571.606445312 199.696289062 623.421875 c 0
 262.65234375 675.119140625 340.467773438 700.580078125 431.96875 700.580078125 c 0
 522.827148438 700.580078125 588.25390625 675.108398438 626.682617188 623.38671875 c 0
 665.1875 571.563476562 672.162109375 495.104492188 649.123046875 395.309570312 c 2
 626.271484375 296.330078125 l 2
 603.228515625 196.517578125 560.598632812 120.034179688 497.499023438 68.21875 c 0
 434.541015625 16.5205078125 356.725585938 -8.9404296875 265.223632812 -8.9404296875 c 0
 174.365234375 -8.9404296875 108.939453125 16.53125 70.5107421875 68.25390625 c 0
 32.0068359375 120.076171875 25.0322265625 196.536132812 48.0712890625 296.330078125 c 2
289.130859375 86.1201171875 m 0
 421.69140625 86.1201171875 492.020507812 160.537109375 523.145507812 295.350585938 c 2
 545.091796875 390.411132812 l 2
 576.4375 526.186523438 544.8046875 605.51953125 409.04296875 605.51953125 c 0
 280.625 605.51953125 207.393554688 536.477539062 173.671875 390.41015625 c 2
 151.724609375 295.349609375 l 2
 118.088867188 149.65625 164.884765625 86.1201171875 289.130859375 86.1201171875 c 0
438.5859375 887.760742188 m 1
 508.842773438 887.760742188 l 1
 613.985351562 729.981445312 l 1
 515.899414062 729.981445312 l 1
 457.310546875 814.7265625 l 1
 358.649414062 729.981445312 l 1
 260.588867188 729.981445312 l 1
 438.5859375 887.760742188 l 1
EndSplineSet
EndChar

StartChar: Otilde
Encoding: 213 213 151
Width: 694
GlyphClass: 2
Flags: MW
HStem: -8.94043 95.0605<227.008 310.975> 605.52 95.0605<386.218 476.924> 732.921 83.2998<517.556 525.754> 770.161 83.2998<383.315 386.573>
VStem: 63.1172 103.88 538.417 102.9
LayerCount: 2
Fore
SplineSet
48.0712890625 296.330078125 m 2xcc
 70.9228515625 395.309570312 l 2
 93.966796875 495.123046875 136.595703125 571.606445312 199.696289062 623.421875 c 0
 262.65234375 675.119140625 340.467773438 700.580078125 431.96875 700.580078125 c 0
 522.827148438 700.580078125 588.25390625 675.108398438 626.682617188 623.38671875 c 0
 665.1875 571.563476562 672.162109375 495.104492188 649.123046875 395.309570312 c 2
 626.271484375 296.330078125 l 2
 603.228515625 196.517578125 560.598632812 120.034179688 497.499023438 68.21875 c 0
 434.541015625 16.5205078125 356.725585938 -8.9404296875 265.223632812 -8.9404296875 c 0
 174.365234375 -8.9404296875 108.939453125 16.53125 70.5107421875 68.25390625 c 0
 32.0068359375 120.076171875 25.0322265625 196.536132812 48.0712890625 296.330078125 c 2xcc
289.130859375 86.1201171875 m 0
 421.69140625 86.1201171875 492.020507812 160.537109375 523.145507812 295.350585938 c 2
 545.091796875 390.411132812 l 2
 576.4375 526.186523438 544.8046875 605.51953125 409.04296875 605.51953125 c 0
 280.625 605.51953125 207.393554688 536.477539062 173.671875 390.41015625 c 2
 151.724609375 295.349609375 l 2
 118.088867188 149.65625 164.884765625 86.1201171875 289.130859375 86.1201171875 c 0
402.581054688 853.4609375 m 0xdc
 423.752929688 853.4609375 440.139648438 850.376953125 470.67578125 833.124023438 c 0
 498.921875 818.108398438 509.80859375 816.220703125 525.303710938 816.220703125 c 0
 558.72265625 816.220703125 577.473632812 830.860351562 618.97265625 863.258789062 c 1
 598.03515625 772.569335938 l 1
 585.041015625 761.767578125 550.3359375 732.920898438 501.172851562 732.920898438 c 0xec
 478.897460938 732.920898438 462.700195312 735.977539062 432.15625 753.225585938 c 0
 401.96875 768.377929688 394.69140625 770.161132812 378.454101562 770.161132812 c 0
 346.798828125 770.161132812 327.251953125 755.473632812 284.907226562 723.658203125 c 1
 305.534179688 813.00390625 l 1
 336.182617188 836.8828125 364.048828125 853.4609375 402.581054688 853.4609375 c 0xdc
EndSplineSet
EndChar

StartChar: Odieresis
Encoding: 214 214 152
Width: 694
GlyphClass: 2
Flags: MW
HStem: -8.94043 95.0605<227.008 310.975> 605.52 95.0605<386.218 476.924> 743.701 107.8<311.483 384.596 286.596 409.483 311.483 497.295 522.183 594.315>
VStem: 63.1172 103.88 198.357 98 409.057 97.0205 538.417 102.9
LayerCount: 2
Fore
SplineSet
48.0712890625 296.330078125 m 2
 70.9228515625 395.309570312 l 2
 93.966796875 495.123046875 136.595703125 571.606445312 199.696289062 623.421875 c 0
 262.65234375 675.119140625 340.467773438 700.580078125 431.96875 700.580078125 c 0
 522.827148438 700.580078125 588.25390625 675.108398438 626.682617188 623.38671875 c 0
 665.1875 571.563476562 672.162109375 495.104492188 649.123046875 395.309570312 c 2
 626.271484375 296.330078125 l 2
 603.228515625 196.517578125 560.598632812 120.034179688 497.499023438 68.21875 c 0
 434.541015625 16.5205078125 356.725585938 -8.9404296875 265.223632812 -8.9404296875 c 0
 174.365234375 -8.9404296875 108.939453125 16.53125 70.5107421875 68.25390625 c 0
 32.0068359375 120.076171875 25.0322265625 196.536132812 48.0712890625 296.330078125 c 2
289.130859375 86.1201171875 m 0
 421.69140625 86.1201171875 492.020507812 160.537109375 523.145507812 295.350585938 c 2
 545.091796875 390.411132812 l 2
 576.4375 526.186523438 544.8046875 605.51953125 409.04296875 605.51953125 c 0
 280.625 605.51953125 207.393554688 536.477539062 173.671875 390.41015625 c 2
 151.724609375 295.349609375 l 2
 118.088867188 149.65625 164.884765625 86.1201171875 289.130859375 86.1201171875 c 0
311.483398438 851.500976562 m 1
 409.483398438 851.500976562 l 1
 384.595703125 743.701171875 l 1
 286.595703125 743.701171875 l 1
 311.483398438 851.500976562 l 1
522.182617188 851.500976562 m 1
 619.203125 851.500976562 l 1
 594.315429688 743.701171875 l 1
 497.294921875 743.701171875 l 1
 522.182617188 851.500976562 l 1
EndSplineSet
EndChar

StartChar: multiply
Encoding: 215 215 153
Width: 512
GlyphClass: 2
Flags: W
LayerCount: 2
Fore
SplineSet
226.625976562 214.397460938 m 1
 81.8759765625 96.7978515625 l 1
 33.1962890625 160.088867188 l 1
 178.172851562 278.668945312 l 1
 87.70703125 396.290039062 l 1
 165.635742188 459.602539062 l 1
 256.084960938 342.001953125 l 1
 400.834960938 459.602539062 l 1
 449.53125 396.290039062 l 1
 304.754882812 278.668945312 l 1
 394.977539062 160.088867188 l 1
 317.075195312 96.7978515625 l 1
 226.625976562 214.397460938 l 1
EndSplineSet
EndChar

StartChar: Oslash
Encoding: 216 216 154
Width: 694
GlyphClass: 2
Flags: MW
HStem: -8.94043 95.0605<265.55 310.974> 605.52 95.0605<386.218 431.998>
VStem: 63.1172 103.879 538.416 102.901
LayerCount: 2
Fore
SplineSet
265.22265625 -8.9404296875 m 0
 201.166992188 -8.9404296875 149.53515625 3.798828125 110.775390625 29.6572265625 c 1
 66.7685546875 -19.7197265625 l 1
 -21.3125 -19.7197265625 l 1
 64.2197265625 77.140625 l 1
 31.5166015625 129.619140625 26.52734375 203.013671875 48.0712890625 296.330078125 c 2
 70.9228515625 395.309570312 l 2
 93.966796875 495.123046875 136.595703125 571.606445312 199.696289062 623.421875 c 0
 262.65234375 675.119140625 340.467773438 700.580078125 431.96875 700.580078125 c 0
 496.5625 700.580078125 548.197265625 687.879882812 586.403320312 662.048828125 c 1
 630.610351562 712.33984375 l 1
 717.752929688 712.33984375 l 1
 632.276367188 615.541992188 l 1
 665.758789062 563.618164062 670.950195312 489.854492188 649.123046875 395.309570312 c 2
 626.271484375 296.330078125 l 2
 603.228515625 196.517578125 560.59765625 120.034179688 497.498046875 68.21875 c 0
 434.540039062 16.5205078125 356.724609375 -8.9404296875 265.22265625 -8.9404296875 c 0
409.041992188 605.51953125 m 0
 280.624023438 605.51953125 207.392578125 536.477539062 173.670898438 390.41015625 c 2
 151.723632812 295.349609375 l 2
 139.452148438 242.193359375 137.790039062 199.959960938 146.078125 168.491210938 c 1
 512.432617188 579.470703125 l 1
 489.211914062 596.615234375 454.953125 605.51953125 409.041992188 605.51953125 c 0
289.129882812 86.1201171875 m 0
 421.689453125 86.1201171875 492.01953125 160.53515625 523.143554688 295.349609375 c 2
 545.090820312 390.41015625 l 2
 557.983398438 446.254882812 559.47265625 490.486328125 550.260742188 523.291992188 c 1
 183.782226562 112.173828125 l 1
 207.061523438 95.0478515625 241.970703125 86.1201171875 289.129882812 86.1201171875 c 0
EndSplineSet
EndChar

StartChar: Ugrave
Encoding: 217 217 155
Width: 691
GlyphClass: 2
Flags: MW
HStem: -6 93.0996<223.027 307.682> 670.78 20G<149.917 253.798 253.798 253.798 597.777 701.657 701.657 701.657>
VStem: 73.8965 103.881 521.757 103.88
LayerCount: 2
Fore
SplineSet
286.416015625 87.099609375 m 0
 413.053710938 87.099609375 473.801757812 153.782226562 497.208007812 255.169921875 c 2
 597.77734375 690.780273438 l 1
 701.657226562 690.780273438 l 1
 599.73046875 249.290039062 l 2
 581.286132812 169.395507812 542.391601562 106.172851562 482.849609375 61.1025390625 c 0
 423.392578125 16.0966796875 350.44140625 -6 264.922851562 -6 c 0
 179.405273438 -6 116.655273438 16.0966796875 77.978515625 61.1025390625 c 0
 39.248046875 106.172851562 29.5458984375 169.395507812 47.990234375 249.290039062 c 2
 149.916992188 690.780273438 l 1
 253.797851562 690.780273438 l 1
 153.228515625 255.169921875 l 2
 129.856445312 153.93359375 159.637695312 87.099609375 286.416015625 87.099609375 c 0
427.576171875 875.01953125 m 1
 516.749023438 734.879882812 l 1
 419.381835938 734.879882812 l 1
 299.552734375 875.01953125 l 1
 427.576171875 875.01953125 l 1
EndSplineSet
EndChar

StartChar: Uacute
Encoding: 218 218 156
Width: 691
GlyphClass: 2
Flags: MW
HStem: -6 93.0996<223.027 307.682> 670.78 20G<149.917 253.798 253.798 253.798 597.777 701.657 701.657 701.657>
VStem: 73.8965 103.881 521.757 103.88
LayerCount: 2
Fore
SplineSet
286.416015625 87.099609375 m 0
 413.053710938 87.099609375 473.801757812 153.782226562 497.208007812 255.169921875 c 2
 597.77734375 690.780273438 l 1
 701.657226562 690.780273438 l 1
 599.73046875 249.290039062 l 2
 581.286132812 169.395507812 542.391601562 106.172851562 482.849609375 61.1025390625 c 0
 423.392578125 16.0966796875 350.44140625 -6 264.922851562 -6 c 0
 179.405273438 -6 116.655273438 16.0966796875 77.978515625 61.1025390625 c 0
 39.248046875 106.172851562 29.5458984375 169.395507812 47.990234375 249.290039062 c 2
 149.916992188 690.780273438 l 1
 253.797851562 690.780273438 l 1
 153.228515625 255.169921875 l 2
 129.856445312 153.93359375 159.637695312 87.099609375 286.416015625 87.099609375 c 0
497.329101562 875.01953125 m 1
 624.352539062 875.01953125 l 1
 439.814453125 734.879882812 l 1
 342.352539062 734.879882812 l 1
 497.329101562 875.01953125 l 1
EndSplineSet
EndChar

StartChar: Ucircumflex
Encoding: 219 219 157
Width: 691
GlyphClass: 2
Flags: MW
HStem: -6 93.0996<223.027 307.682> 670.78 20G<149.917 253.798 253.798 253.798 597.777 701.657 701.657 701.657>
VStem: 73.8965 103.881 521.757 103.88
LayerCount: 2
Fore
SplineSet
286.416015625 87.099609375 m 0
 413.053710938 87.099609375 473.801757812 153.782226562 497.208007812 255.169921875 c 2
 597.77734375 690.780273438 l 1
 701.657226562 690.780273438 l 1
 599.73046875 249.290039062 l 2
 581.286132812 169.395507812 542.391601562 106.172851562 482.849609375 61.1025390625 c 0
 423.392578125 16.0966796875 350.44140625 -6 264.922851562 -6 c 0
 179.405273438 -6 116.655273438 16.0966796875 77.978515625 61.1025390625 c 0
 39.248046875 106.172851562 29.5458984375 169.395507812 47.990234375 249.290039062 c 2
 149.916992188 690.780273438 l 1
 253.797851562 690.780273438 l 1
 153.228515625 255.169921875 l 2
 129.856445312 153.93359375 159.637695312 87.099609375 286.416015625 87.099609375 c 0
505.901367188 887.759765625 m 1
 611.044921875 729.98046875 l 1
 512.958984375 729.98046875 l 1
 454.370117188 814.725585938 l 1
 355.708984375 729.98046875 l 1
 257.649414062 729.98046875 l 1
 435.64453125 887.759765625 l 1
 505.901367188 887.759765625 l 1
EndSplineSet
EndChar

StartChar: Udieresis
Encoding: 220 220 158
Width: 691
GlyphClass: 2
Flags: MW
HStem: -6 93.0996<223.027 307.682> 670.78 20G<149.917 253.798 253.798 253.798 597.777 701.657 701.657 701.657> 743.7 107.8<308.542 381.654 283.654 406.542 308.542 494.354 519.242 591.374>
VStem: 73.8965 103.881 195.417 98 406.117 97.0195 521.757 103.88
LayerCount: 2
Fore
SplineSet
286.416015625 87.099609375 m 0
 413.053710938 87.099609375 473.801757812 153.782226562 497.208007812 255.169921875 c 2
 597.77734375 690.780273438 l 1
 701.657226562 690.780273438 l 1
 599.73046875 249.290039062 l 2
 581.286132812 169.395507812 542.391601562 106.172851562 482.849609375 61.1025390625 c 0
 423.392578125 16.0966796875 350.44140625 -6 264.922851562 -6 c 0
 179.405273438 -6 116.655273438 16.0966796875 77.978515625 61.1025390625 c 0
 39.248046875 106.172851562 29.5458984375 169.395507812 47.990234375 249.290039062 c 2
 149.916992188 690.780273438 l 1
 253.797851562 690.780273438 l 1
 153.228515625 255.169921875 l 2
 129.856445312 153.93359375 159.637695312 87.099609375 286.416015625 87.099609375 c 0
308.541992188 851.5 m 1
 406.541992188 851.5 l 1
 381.654296875 743.700195312 l 1
 283.654296875 743.700195312 l 1
 308.541992188 851.5 l 1
519.2421875 851.5 m 1
 616.26171875 851.5 l 1
 591.374023438 743.700195312 l 1
 494.354492188 743.700195312 l 1
 519.2421875 851.5 l 1
EndSplineSet
EndChar

StartChar: Yacute
Encoding: 221 221 159
Width: 582
GlyphClass: 2
Flags: MW
HStem: -0.120117 21G<159.95 262.851 159.95 159.95> 670.78 20G<79.8105 196.908 196.908 196.908 544.884 661.988 661.988 661.988>
VStem: 243.437 102.9
LayerCount: 2
Fore
SplineSet
544.883789062 690.780273438 m 1
 661.98828125 690.780273438 l 1
 326.98828125 277.692382812 l 1
 262.850585938 -0.1201171875 l 1
 159.950195312 -0.1201171875 l 1
 224.313476562 278.66796875 l 1
 79.810546875 690.780273438 l 1
 196.908203125 690.780273438 l 1
 297.915039062 370.52734375 l 1
 544.883789062 690.780273438 l 1
442.44921875 875.01953125 m 1
 569.47265625 875.01953125 l 1
 384.934570312 734.879882812 l 1
 287.47265625 734.879882812 l 1
 442.44921875 875.01953125 l 1
EndSplineSet
EndChar

StartChar: Thorn
Encoding: 222 222 160
Width: 637
GlyphClass: 2
Flags: MW
HStem: -0.120117 21G<-9.58984 94.29 -9.58984 -9.58984> 151.78 94.0801<151.078 323.888 129.358 347.567> 477.14 94.0801<226.194 396.062 204.473 420.724> 670.78 20G<149.917 253.797 253.797 253.797>
VStem: 73.8965 103.879 509.015 102.9
LayerCount: 2
Fore
SplineSet
420.723632812 571.219726562 m 2
 478.841796875 571.219726562 658.517578125 563.358398438 611.801757812 361.009765625 c 0
 600.297851562 311.182617188 554.455078125 151.780273438 323.887695312 151.780273438 c 2
 129.358398438 151.780273438 l 1
 94.2900390625 -0.1201171875 l 1
 -9.58984375 -0.1201171875 l 1
 149.916992188 690.780273438 l 1
 253.796875 690.780273438 l 1
 226.194335938 571.219726562 l 1
 420.723632812 571.219726562 l 2
347.567382812 245.860351562 m 2
 452.328125 245.860351562 492.955078125 291.939453125 508.674804688 360.030273438 c 0
 518.5 402.586914062 513.853515625 431.728515625 496.686523438 449.44140625 c 0
 479.33984375 467.340820312 446.200195312 477.139648438 396.0625 477.139648438 c 2
 204.47265625 477.139648438 l 1
 151.078125 245.860351562 l 1
 347.567382812 245.860351562 l 2
EndSplineSet
EndChar

StartChar: germandbls
Encoding: 223 223 161
Width: 562
GlyphClass: 2
Flags: MW
HStem: -4.04004 88.2002<210.768 233.035 190.405 248.498> 374.24 88.2002<297.122 308.609 276.76 334.852> 609.439 89.1807<328.675 400.674>
VStem: 68.9971 98 409.058 97.999 417.877 98
LayerCount: 2
Fore
SplineSet
485.671875 230.669921875 m 0xf4
 446.719726562 61.9462890625 386.944335938 -4.0400390625 233.03515625 -4.0400390625 c 2
 190.405273438 -4.0400390625 l 1
 210.767578125 84.16015625 l 1
 248.498046875 84.16015625 l 2
 310.28515625 84.16015625 338.633789062 103.03125 357.526367188 139.142578125 c 0
 368.046875 159.252929688 378.03515625 188.924804688 386.994140625 227.73046875 c 0xf4
 408.2578125 319.836914062 397.463867188 346.403320312 376.254882812 360.518554688 c 0
 363.040039062 369.314453125 340.587890625 374.240234375 308.609375 374.240234375 c 2
 276.759765625 374.240234375 l 1
 297.122070312 462.440429688 l 1
 334.8515625 462.440429688 l 2
 409.90234375 462.440429688 438.26953125 488.030273438 448.990234375 534.469726562 c 0
 458.140625 574.103515625 449.21875 609.439453125 352.12890625 609.439453125 c 0
 305.221679688 609.439453125 270.534179688 600.416992188 247.66015625 584.2265625 c 0
 225.1015625 568.256835938 208.340820312 540.580078125 198.78515625 499.190429688 c 2
 83.5107421875 -0.1201171875 l 1
 -14.4892578125 -0.1201171875 l 1
 98.7490234375 490.370117188 l 2
 139.064453125 664.994140625 260.586914062 698.620117188 369.77734375 698.620117188 c 0
 437.333007812 698.620117188 487.189453125 685.27734375 518.49609375 657.501953125 c 0
 549.963867188 629.583984375 559.565429688 588.940429688 547.668945312 537.41015625 c 0xf8
 536.299804688 488.166015625 510.893554688 448.486328125 458.84765625 422.09375 c 1
 502.40625 395.603515625 513.201171875 349.91015625 485.671875 230.669921875 c 0xf4
EndSplineSet
EndChar

StartChar: agrave
Encoding: 224 224 162
Width: 551
GlyphClass: 2
Flags: MW
HStem: -6 82.3203<141.307 186.854> 228.221 77.4189<178.324 379.5 231.029 361.625> 438.92 84.2803<272.568 337.015> 680.581 20G<178.918 306.941 306.941 306.941>
VStem: 44.4961 97.0195 61.1572 96.04 392.396 98.001
LayerCount: 2
Fore
SplineSet
285.3203125 438.919921875 m 0xfa
 252.427734375 438.919921875 173.8984375 433.841796875 157.762695312 363.950195312 c 2
 155.38671875 353.66015625 l 1
 59.3466796875 353.66015625 l 1
 61.72265625 363.950195312 l 2xf6
 73.037109375 412.958984375 100.883789062 452.512695312 144.544921875 481.010742188 c 0
 188.078125 509.42578125 241.337890625 523.200195312 303.797851562 523.200195312 c 0
 374.732421875 523.200195312 426.54296875 507.489257812 458.079101562 474.948242188 c 0
 489.719726562 442.298828125 498.11328125 394.92578125 484.174804688 334.549804688 c 2
 406.91015625 -0.1201171875 l 1
 310.870117188 -0.1201171875 l 1
 321.391601562 45.4560546875 l 1
 276.956054688 10.859375 220.504882812 -6 153.202148438 -6 c 0
 91.470703125 -6 46.4384765625 7.0498046875 19.212890625 34.3583984375 c 0
 -8.10546875 61.759765625 -15.4951171875 101.651367188 -3.80859375 152.26953125 c 0
 9.916015625 211.717773438 58.8447265625 305.639648438 231.029296875 305.639648438 c 2
 379.5 305.639648438 l 1
 385.721679688 332.58984375 l 2
 397.984375 385.706054688 388.709960938 438.919921875 285.3203125 438.919921875 c 0xfa
188.8671875 76.3203125 m 0
 286.532226562 76.3203125 335.890625 116.75 354.272460938 196.37109375 c 2
 361.625 228.220703125 l 1
 226.875 228.220703125 l 2
 129.7734375 228.220703125 102.578125 192.845703125 93.4375 153.25 c 0xfa
 84.2353515625 113.393554688 93.7470703125 76.3203125 188.8671875 76.3203125 c 0
178.91796875 700.581054688 m 1
 306.94140625 700.581054688 l 1
 396.114257812 560.44140625 l 1
 298.747070312 560.44140625 l 1
 178.91796875 700.581054688 l 1
EndSplineSet
EndChar

StartChar: aacute
Encoding: 225 225 163
Width: 551
GlyphClass: 2
Flags: MW
HStem: -6 82.3203<141.307 186.854> 228.221 77.4189<178.324 379.5 231.029 361.625> 438.92 84.2803<272.568 337.015> 680.581 20G<371.795 498.818 498.818 498.818>
VStem: 44.4961 97.0195 61.1572 96.04 392.396 98.001
LayerCount: 2
Fore
SplineSet
285.3203125 438.919921875 m 0xfa
 252.427734375 438.919921875 173.8984375 433.841796875 157.762695312 363.950195312 c 2
 155.38671875 353.66015625 l 1
 59.3466796875 353.66015625 l 1
 61.72265625 363.950195312 l 2xf6
 73.037109375 412.958984375 100.883789062 452.512695312 144.544921875 481.010742188 c 0
 188.078125 509.42578125 241.337890625 523.200195312 303.797851562 523.200195312 c 0
 374.732421875 523.200195312 426.54296875 507.489257812 458.079101562 474.948242188 c 0
 489.719726562 442.298828125 498.11328125 394.92578125 484.174804688 334.549804688 c 2
 406.91015625 -0.1201171875 l 1
 310.870117188 -0.1201171875 l 1
 321.391601562 45.4560546875 l 1
 276.956054688 10.859375 220.504882812 -6 153.202148438 -6 c 0
 91.470703125 -6 46.4384765625 7.0498046875 19.212890625 34.3583984375 c 0
 -8.10546875 61.759765625 -15.4951171875 101.651367188 -3.80859375 152.26953125 c 0
 9.916015625 211.717773438 58.8447265625 305.639648438 231.029296875 305.639648438 c 2
 379.5 305.639648438 l 1
 385.721679688 332.58984375 l 2
 397.984375 385.706054688 388.709960938 438.919921875 285.3203125 438.919921875 c 0xfa
188.8671875 76.3203125 m 0
 286.532226562 76.3203125 335.890625 116.75 354.272460938 196.37109375 c 2
 361.625 228.220703125 l 1
 226.875 228.220703125 l 2
 129.7734375 228.220703125 102.578125 192.845703125 93.4375 153.25 c 0xfa
 84.2353515625 113.393554688 93.7470703125 76.3203125 188.8671875 76.3203125 c 0
371.794921875 700.581054688 m 1
 498.818359375 700.581054688 l 1
 314.280273438 560.44140625 l 1
 216.817382812 560.44140625 l 1
 371.794921875 700.581054688 l 1
EndSplineSet
EndChar

StartChar: acircumflex
Encoding: 226 226 164
Width: 551
GlyphClass: 2
Flags: MW
HStem: -6 82.3203<141.307 186.854> 228.221 77.4189<178.324 379.5 231.029 361.625> 438.92 84.2803<272.568 337.015>
VStem: 44.4961 97.0195 61.1572 96.04 392.396 98.001
LayerCount: 2
Fore
SplineSet
285.3203125 438.919921875 m 0xf4
 252.427734375 438.919921875 173.8984375 433.841796875 157.762695312 363.950195312 c 2
 155.38671875 353.66015625 l 1
 59.3466796875 353.66015625 l 1
 61.72265625 363.950195312 l 2xec
 73.037109375 412.958984375 100.883789062 452.512695312 144.544921875 481.010742188 c 0
 188.078125 509.42578125 241.337890625 523.200195312 303.797851562 523.200195312 c 0
 374.732421875 523.200195312 426.54296875 507.489257812 458.079101562 474.948242188 c 0
 489.719726562 442.298828125 498.11328125 394.92578125 484.174804688 334.549804688 c 2
 406.91015625 -0.1201171875 l 1
 310.870117188 -0.1201171875 l 1
 321.391601562 45.4560546875 l 1
 276.956054688 10.859375 220.504882812 -6 153.202148438 -6 c 0
 91.470703125 -6 46.4384765625 7.0498046875 19.212890625 34.3583984375 c 0
 -8.10546875 61.759765625 -15.4951171875 101.651367188 -3.80859375 152.26953125 c 0
 9.916015625 211.717773438 58.8447265625 305.639648438 231.029296875 305.639648438 c 2
 379.5 305.639648438 l 1
 385.721679688 332.58984375 l 2
 397.984375 385.706054688 388.709960938 438.919921875 285.3203125 438.919921875 c 0xf4
188.8671875 76.3203125 m 0
 286.532226562 76.3203125 335.890625 116.75 354.272460938 196.37109375 c 2
 361.625 228.220703125 l 1
 226.875 228.220703125 l 2
 129.7734375 228.220703125 102.578125 192.845703125 93.4375 153.25 c 0xf4
 84.2353515625 113.393554688 93.7470703125 76.3203125 188.8671875 76.3203125 c 0
315.01171875 713.321289062 m 1
 385.267578125 713.321289062 l 1
 490.411132812 555.541015625 l 1
 392.325195312 555.541015625 l 1
 333.735351562 640.286132812 l 1
 235.075195312 555.541015625 l 1
 137.014648438 555.541015625 l 1
 315.01171875 713.321289062 l 1
EndSplineSet
EndChar

StartChar: atilde
Encoding: 227 227 165
Width: 551
GlyphClass: 2
Flags: MW
HStem: -6 82.3203<141.307 186.854> 228.221 77.4189<178.324 379.5 231.029 361.625> 438.92 84.2803<272.568 337.015> 558.481 83.2998<393.984 402.182> 595.721 83.2998<259.762 263>
VStem: 44.4961 97.0195 61.1572 96.04 392.396 98.001
LayerCount: 2
Fore
SplineSet
285.3203125 438.919921875 m 0xe5
 252.427734375 438.919921875 173.8984375 433.841796875 157.762695312 363.950195312 c 2
 155.38671875 353.66015625 l 1
 59.3466796875 353.66015625 l 1
 61.72265625 363.950195312 l 2xe3
 73.037109375 412.958984375 100.883789062 452.512695312 144.544921875 481.010742188 c 0
 188.078125 509.42578125 241.337890625 523.200195312 303.797851562 523.200195312 c 0
 374.732421875 523.200195312 426.54296875 507.489257812 458.079101562 474.948242188 c 0
 489.719726562 442.298828125 498.11328125 394.92578125 484.174804688 334.549804688 c 2
 406.91015625 -0.1201171875 l 1
 310.870117188 -0.1201171875 l 1
 321.391601562 45.4560546875 l 1
 276.956054688 10.859375 220.504882812 -6 153.202148438 -6 c 0
 91.470703125 -6 46.4384765625 7.0498046875 19.212890625 34.3583984375 c 0
 -8.10546875 61.759765625 -15.4951171875 101.651367188 -3.80859375 152.26953125 c 0
 9.916015625 211.717773438 58.8447265625 305.639648438 231.029296875 305.639648438 c 2
 379.5 305.639648438 l 1
 385.721679688 332.58984375 l 2
 397.984375 385.706054688 388.709960938 438.919921875 285.3203125 438.919921875 c 0xe5
188.8671875 76.3203125 m 0
 286.532226562 76.3203125 335.890625 116.75 354.272460938 196.37109375 c 2
 361.625 228.220703125 l 1
 226.875 228.220703125 l 2
 129.7734375 228.220703125 102.578125 192.845703125 93.4375 153.25 c 0xe5
 84.2353515625 113.393554688 93.7470703125 76.3203125 188.8671875 76.3203125 c 0
279.010742188 679.020507812 m 0xe9
 300.180664062 679.020507812 316.56640625 675.9375 347.103515625 658.684570312 c 0
 375.349609375 643.668945312 386.236328125 641.78125 401.731445312 641.78125 c 0
 435.150390625 641.78125 453.901367188 656.419921875 495.400390625 688.818359375 c 1
 474.462890625 598.12890625 l 1
 461.467773438 587.327148438 426.763671875 558.481445312 377.600585938 558.481445312 c 0xf1
 355.325195312 558.481445312 339.126953125 561.537109375 308.583984375 578.78515625 c 0
 278.397460938 593.936523438 271.122070312 595.720703125 254.87890625 595.720703125 c 0
 223.224609375 595.720703125 203.677734375 581.034179688 161.333007812 549.21875 c 1
 181.959960938 638.564453125 l 1
 212.650390625 662.4765625 240.512695312 679.020507812 279.010742188 679.020507812 c 0xe9
EndSplineSet
EndChar

StartChar: adieresis
Encoding: 228 228 166
Width: 551
GlyphClass: 2
Flags: MW
HStem: -6 82.3203<141.307 186.854> 228.221 77.4189<178.324 379.5 231.029 361.625> 438.92 84.2803<272.568 337.015> 569.261 107.8<187.907 261.02 163.02 285.907 187.907 373.72 398.607 470.74>
VStem: 44.4961 97.0195 61.1572 96.04 115.055 98 325.755 97.0205 392.396 98.001
LayerCount: 2
Fore
SplineSet
285.3203125 438.919921875 m 0xf880
 252.427734375 438.919921875 173.8984375 433.841796875 157.762695312 363.950195312 c 2
 155.38671875 353.66015625 l 1
 59.3466796875 353.66015625 l 1
 61.72265625 363.950195312 l 2xf4
 73.037109375 412.958984375 100.883789062 452.512695312 144.544921875 481.010742188 c 0
 188.078125 509.42578125 241.337890625 523.200195312 303.797851562 523.200195312 c 0
 374.732421875 523.200195312 426.54296875 507.489257812 458.079101562 474.948242188 c 0
 489.719726562 442.298828125 498.11328125 394.92578125 484.174804688 334.549804688 c 2
 406.91015625 -0.1201171875 l 1
 310.870117188 -0.1201171875 l 1
 321.391601562 45.4560546875 l 1
 276.956054688 10.859375 220.504882812 -6 153.202148438 -6 c 0
 91.470703125 -6 46.4384765625 7.0498046875 19.212890625 34.3583984375 c 0
 -8.10546875 61.759765625 -15.4951171875 101.651367188 -3.80859375 152.26953125 c 0
 9.916015625 211.717773438 58.8447265625 305.639648438 231.029296875 305.639648438 c 2
 379.5 305.639648438 l 1
 385.721679688 332.58984375 l 2
 397.984375 385.706054688 388.709960938 438.919921875 285.3203125 438.919921875 c 0xf880
188.8671875 76.3203125 m 0
 286.532226562 76.3203125 335.890625 116.75 354.272460938 196.37109375 c 2
 361.625 228.220703125 l 1
 226.875 228.220703125 l 2
 129.7734375 228.220703125 102.578125 192.845703125 93.4375 153.25 c 0xf880
 84.2353515625 113.393554688 93.7470703125 76.3203125 188.8671875 76.3203125 c 0
187.907226562 677.060546875 m 1xf2
 285.907226562 677.060546875 l 1
 261.01953125 569.260742188 l 1
 163.01953125 569.260742188 l 1
 187.907226562 677.060546875 l 1xf2
398.607421875 677.060546875 m 1xf1
 495.627929688 677.060546875 l 1
 470.740234375 569.260742188 l 1
 373.719726562 569.260742188 l 1
 398.607421875 677.060546875 l 1xf1
EndSplineSet
EndChar

StartChar: aring
Encoding: 229 229 167
Width: 551
GlyphClass: 2
Flags: MW
HStem: -6 82.3203<141.307 186.854> 228.221 77.4189<178.324 379.5 231.029 361.625> 438.92 84.2803<272.568 337.015> 550.641 55.8604<312.716 327.307> 693.721 56.8398<344.991 358.591>
VStem: 44.4961 97.0195 61.1572 96.04 169.935 57.8203 311.055 57.8203 392.396 98.001
LayerCount: 2
Fore
SplineSet
285.3203125 438.919921875 m 0xfdc0
 252.427734375 438.919921875 173.8984375 433.841796875 157.762695312 363.950195312 c 2
 155.38671875 353.66015625 l 1
 59.3466796875 353.66015625 l 1
 61.72265625 363.950195312 l 2xfbc0
 73.037109375 412.958984375 100.883789062 452.512695312 144.544921875 481.010742188 c 0
 188.078125 509.42578125 241.337890625 523.200195312 303.797851562 523.200195312 c 0
 374.732421875 523.200195312 426.54296875 507.489257812 458.079101562 474.948242188 c 0
 489.719726562 442.298828125 498.11328125 394.92578125 484.174804688 334.549804688 c 2
 406.91015625 -0.1201171875 l 1
 310.870117188 -0.1201171875 l 1
 321.391601562 45.4560546875 l 1
 276.956054688 10.859375 220.504882812 -6 153.202148438 -6 c 0
 91.470703125 -6 46.4384765625 7.0498046875 19.212890625 34.3583984375 c 0
 -8.10546875 61.759765625 -15.4951171875 101.651367188 -3.80859375 152.26953125 c 0
 9.916015625 211.717773438 58.8447265625 305.639648438 231.029296875 305.639648438 c 2
 379.5 305.639648438 l 1
 385.721679688 332.58984375 l 2
 397.984375 385.706054688 388.709960938 438.919921875 285.3203125 438.919921875 c 0xfdc0
188.8671875 76.3203125 m 0
 286.532226562 76.3203125 335.890625 116.75 354.272460938 196.37109375 c 2
 361.625 228.220703125 l 1
 226.875 228.220703125 l 2
 129.7734375 228.220703125 102.578125 192.845703125 93.4375 153.25 c 0xfdc0
 84.2353515625 113.393554688 93.7470703125 76.3203125 188.8671875 76.3203125 c 0
236.565429688 650.111328125 m 0
 243.130859375 678.546875 258.104492188 702.8359375 281.213867188 721.8984375 c 0
 304.364257812 740.993164062 330.755859375 750.560546875 359.2265625 750.560546875 c 0
 387.096679688 750.560546875 408.853515625 740.959960938 423.477539062 721.947265625 c 0
 438.129882812 702.896484375 442.079101562 678.583007812 435.505859375 650.111328125 c 0
 429.080078125 622.278320312 414.147460938 598.328125 391.083984375 579.303710938 c 0
 367.932617188 560.208984375 341.541992188 550.640625 313.071289062 550.640625 c 0
 284.63671875 550.640625 262.642578125 560.01171875 248.217773438 578.764648438 c 0
 233.794921875 597.518554688 230.000976562 621.676757812 236.565429688 650.111328125 c 0
325.967773438 606.500976562 m 0
 352.470703125 606.500976562 372.305664062 626.809570312 377.685546875 650.111328125 c 0
 383.740234375 676.336914062 371.078125 693.720703125 346.104492188 693.720703125 c 0
 321.131835938 693.720703125 300.440429688 676.336914062 294.385742188 650.111328125 c 0
 289.005859375 626.80859375 299.46484375 606.500976562 325.967773438 606.500976562 c 0
EndSplineSet
EndChar

StartChar: ae
Encoding: 230 230 168
Width: 897
GlyphClass: 2
Flags: MW
HStem: -8.93945 87.2207<529.027 587.957 529.027 619.411> 230.18 77.4209<478.454 739.612 478.454 819.739 460.097 739.612> 437.941 88.1982<613.848 694.535 613.848 699.114>
VStem: 44.4961 97.0195 61.1572 96.04 392.396 98.0176 750.097 97.0205
LayerCount: 2
Fore
SplineSet
471.970703125 457.693359375 m 1xee
 507.763671875 489.7265625 568.459960938 526.139648438 659.236328125 526.139648438 c 0
 729.833984375 526.139648438 781.6640625 506.5625 813.328125 466.721679688 c 0
 845.094726562 426.75390625 851.825195312 369.159179688 834.784179688 295.349609375 c 2
 819.739257812 230.1796875 l 1
 460.096679688 230.1796875 l 1
 434.311523438 113.294921875 488.494140625 78.28125 569.560546875 78.28125 c 0
 606.353515625 78.28125 636.033203125 86.84375 659.275390625 103.046875 c 0
 682.709960938 119.381835938 697.7109375 140.026367188 705 166.166992188 c 2
 707.334960938 176.28125 l 1
 804.35546875 176.28125 l 1
 802.659179688 168.930664062 l 2
 780.978515625 75.0205078125 689.397460938 -8.939453125 549.423828125 -8.939453125 c 0
 465.045898438 -8.939453125 406.784179688 17.3115234375 376.7109375 70.4501953125 c 1
 323.897460938 18.4794921875 252.932617188 -6.9794921875 165.715820312 -6.9794921875 c 0
 101.995117188 -6.9794921875 54.5673828125 6.5947265625 24.3671875 34.7138671875 c 0
 -5.9541015625 62.9443359375 -15.177734375 103.026367188 -3.58203125 153.25 c 0xf6
 10.142578125 212.697265625 59.0712890625 306.620117188 231.255859375 306.620117188 c 2
 379.7265625 306.620117188 l 1
 385.721679688 332.58984375 l 2
 397.984375 385.706054688 388.709960938 438.919921875 285.3203125 438.919921875 c 0
 252.427734375 438.919921875 173.8984375 433.841796875 157.762695312 363.950195312 c 2
 155.38671875 353.66015625 l 1
 59.3466796875 353.66015625 l 1
 61.72265625 363.950195312 l 2
 73.037109375 412.958984375 100.883789062 452.512695312 144.544921875 481.010742188 c 0
 188.078125 509.42578125 241.337890625 523.200195312 303.797851562 523.200195312 c 0
 386.413085938 523.200195312 443.213867188 501.833984375 471.970703125 457.693359375 c 1xee
739.724609375 308.090820312 m 2
 750.78125 355.981445312 758.374023438 437.94140625 639.853515625 437.94140625 c 0
 563.98828125 437.94140625 506.916015625 399.358398438 478.454101562 307.600585938 c 1
 739.612304688 307.600585938 l 1
 739.724609375 308.090820312 l 2
193.767578125 76.3212890625 m 0
 275.138671875 76.3212890625 334.54296875 110.908203125 354.7265625 198.33203125 c 2
 362.079101562 230.181640625 l 1
 227.329101562 230.181640625 l 2
 125.401367188 230.181640625 101.916015625 189.975585938 93.6640625 154.231445312 c 0
 86.8828125 124.860351562 86.4755859375 76.3212890625 193.767578125 76.3212890625 c 0
EndSplineSet
EndChar

StartChar: ccedilla
Encoding: 231 231 169
Width: 555
GlyphClass: 2
Flags: MW
HStem: 436.961 89.1787<292.361 362.37>
VStem: 54.2979 98 412.976 96.041
LayerCount: 2
Fore
SplineSet
407.206054688 336.510742188 m 2
 415.598632812 372.862304688 415.369140625 436.9609375 309.370117188 436.9609375 c 0
 234.282226562 436.9609375 162.341796875 405.005859375 133.858398438 281.630859375 c 2
 123.224609375 235.571289062 l 2
 94.4580078125 110.966796875 152.197265625 79.2607421875 226.788085938 79.2607421875 c 0
 266.872070312 79.2607421875 298.786132812 88.5009765625 323.23828125 105.924804688 c 0
 347.6953125 123.352539062 363.48046875 147.106445312 370.782226562 178.731445312 c 2
 373.383789062 190.000976562 l 1
 469.423828125 190.000976562 l 1
 466.822265625 178.731445312 l 2
 455.473632812 129.577148438 431.504882812 88.2568359375 394.90625 55.7421875 c 0
 359.274414062 24.0859375 315.548828125 4.166015625 264.55859375 -4.2763671875 c 1
 167.098632812 -149.080078125 l 1
 65.9892578125 -149.080078125 l 1
 171.735351562 -7.0927734375 l 1
 111.56640625 -1.341796875 67.611328125 20.9384765625 41.0185546875 60.1064453125 c 0
 12.7783203125 101.69921875 7.7548828125 159.901367188 24.7724609375 233.610351562 c 2
 36.310546875 283.58984375 l 2
 54.2490234375 361.288085938 88.869140625 421.793945312 140.836914062 463.737304688 c 0
 192.659179688 505.563476562 255.74609375 526.139648438 328.9765625 526.139648438 c 0
 396.1328125 526.139648438 445.876953125 509.65625 477.017578125 475.831054688 c 0
 508.204101562 441.95703125 516.752929688 395.008789062 503.247070312 336.509765625 c 2
 500.418945312 324.259765625 l 1
 404.377929688 324.259765625 l 1
 407.206054688 336.510742188 l 2
EndSplineSet
EndChar

